<svg width="450" height="360" viewBox="0 0 450 360" fill="none" xmlns="http://www.w3.org/2000/svg">
<path d="M-39.5913 27.4285C-39.5913 12.7953 -27.7287 0.932643 -13.0954 0.932643H457.762C472.395 0.932643 484.258 12.7953 484.258 27.4286V359.067H-39.5913V27.4285Z" fill="#1F1F1F"/>
<path d="M-39.5913 27.4285C-39.5913 12.7953 -27.7287 0.932643 -13.0954 0.932643H457.762C472.395 0.932643 484.258 12.7953 484.258 27.4286V359.067H-39.5913V27.4285Z" stroke="#404040" stroke-width="1.86529"/>
<rect x="-56.5" y="47.5" width="198" height="76.9988" rx="7.5" fill="white" fill-opacity="0.04"/>
<rect x="-56.5" y="47.5" width="198" height="76.9988" rx="7.5" stroke="#404040"/>
<path d="M5.00265 85.1765C5.00265 83.1621 4.2791 81.7671 3.65852 80.6813C2.83232 79.3388 2.05791 78.2018 2.05791 76.8592C2.05791 75.361 3.19425 73.9663 4.79486 73.9663C4.86712 73.9663 4.93566 73.9753 5.00606 73.9793C2.10629 71.3227 -1.75707 69.7007 -6.00035 69.7007C-11.6944 69.7007 -16.7041 72.6222 -19.6184 77.0472C-19.236 77.0587 -18.8756 77.0667 -18.5695 77.0667C-16.8647 77.0667 -14.2258 76.8599 -14.2258 76.8599C-13.3472 76.8081 -13.2436 78.0985 -14.1213 78.2024C-14.1213 78.2024 -15.0042 78.3063 -15.9867 78.3578L-10.0513 96.0123L-6.48447 85.3148L-9.02386 78.3572C-9.90154 78.3057 -10.733 78.2018 -10.733 78.2018C-11.6113 78.1503 -11.5084 76.8074 -10.6301 76.8592C-10.6301 76.8592 -7.93839 77.0661 -6.33685 77.0661C-4.63234 77.0661 -1.99308 76.8592 -1.99308 76.8592C-1.11385 76.8074 -1.01057 78.0979 -1.88857 78.2018C-1.88857 78.2018 -2.77339 78.3057 -3.75404 78.3572L2.13606 95.878L3.76179 90.4454C4.46642 88.191 5.00265 86.5718 5.00265 85.1765Z" fill="white"/>
<path d="M8.30124 78.1792C8.37133 78.6984 8.41103 79.2557 8.41103 79.8552C8.41103 81.5091 8.10213 83.3684 7.17172 85.6932L2.19312 100.087C7.03868 97.2618 10.2979 92.0122 10.2979 85.9993C10.2982 83.1656 9.57435 80.5009 8.30124 78.1792Z" fill="white"/>
<path d="M-6.00047 67C-16.4765 67 -25 75.5228 -25 85.9989C-25 96.4762 -16.4765 104.999 -6.00047 104.999C4.4753 104.999 13 96.4762 13 85.9989C12.9997 75.5228 4.4753 67 -6.00047 67ZM-6.00047 104.128C-15.9961 104.128 -24.1288 95.9952 -24.1288 85.9989C-24.1288 76.0032 -15.9964 67.8712 -6.00047 67.8712C3.9949 67.8712 12.127 76.0032 12.127 85.9989C12.127 95.9952 3.9949 104.128 -6.00047 104.128Z" fill="white"/>
<path opacity="0.8" d="M32.424 91.0154L29.4 79.7994H31.224L33.448 89.0794L36.008 79.7994H37.88L40.36 89.0794L42.584 79.7994H44.408L41.336 90.9994H39.352L36.904 82.2154L34.376 90.9994L32.424 91.0154ZM48.784 91.1914C48.0267 91.1914 47.344 91.0207 46.736 90.6794C46.1387 90.3274 45.664 89.8421 45.312 89.2234C44.96 88.5941 44.784 87.8634 44.784 87.0314C44.784 86.1994 44.96 85.4741 45.312 84.8554C45.6747 84.2261 46.16 83.7407 46.768 83.3994C47.376 83.0474 48.0533 82.8714 48.8 82.8714C49.5573 82.8714 50.2347 83.0474 50.832 83.3994C51.44 83.7407 51.92 84.2261 52.272 84.8554C52.6347 85.4741 52.816 86.1994 52.816 87.0314C52.816 87.8634 52.6347 88.5941 52.272 89.2234C51.92 89.8421 51.44 90.3274 50.832 90.6794C50.224 91.0207 49.5413 91.1914 48.784 91.1914ZM48.784 89.7354C49.1893 89.7354 49.5627 89.6341 49.904 89.4314C50.256 89.2287 50.5387 88.9301 50.752 88.5354C50.9653 88.1301 51.072 87.6287 51.072 87.0314C51.072 86.4341 50.9653 85.9381 50.752 85.5434C50.5493 85.1381 50.272 84.8341 49.92 84.6314C49.5787 84.4287 49.2053 84.3274 48.8 84.3274C48.3947 84.3274 48.016 84.4287 47.664 84.6314C47.3227 84.8341 47.0453 85.1381 46.832 85.5434C46.6187 85.9381 46.512 86.4341 46.512 87.0314C46.512 87.6287 46.6187 88.1301 46.832 88.5354C47.0453 88.9301 47.3227 89.2287 47.664 89.4314C48.0053 89.6341 48.3787 89.7354 48.784 89.7354ZM54.6501 90.9994V83.0634H56.1701L56.3141 84.5674C56.5915 84.0447 56.9755 83.6341 57.4661 83.3354C57.9675 83.0261 58.5701 82.8714 59.2741 82.8714V84.6474H58.8101C58.3408 84.6474 57.9195 84.7274 57.5461 84.8874C57.1835 85.0367 56.8901 85.2981 56.6661 85.6714C56.4528 86.0341 56.3461 86.5407 56.3461 87.1914V90.9994H54.6501ZM64.1255 91.1914C63.3575 91.1914 62.6802 91.0101 62.0935 90.6474C61.5068 90.2847 61.0482 89.7887 60.7175 89.1594C60.3868 88.5301 60.2215 87.8154 60.2215 87.0154C60.2215 86.2154 60.3868 85.5061 60.7175 84.8874C61.0482 84.2581 61.5068 83.7674 62.0935 83.4154C62.6908 83.0527 63.3735 82.8714 64.1415 82.8714C64.7708 82.8714 65.3202 82.9941 65.7895 83.2394C66.2695 83.4847 66.6428 83.8314 66.9095 84.2794V79.4794H68.6055V90.9994H67.0855L66.9095 89.7674C66.6535 90.1407 66.3015 90.4714 65.8535 90.7594C65.4055 91.0474 64.8295 91.1914 64.1255 91.1914ZM64.4295 89.7194C65.1548 89.7194 65.7468 89.4687 66.2055 88.9674C66.6748 88.4661 66.9095 87.8207 66.9095 87.0314C66.9095 86.2314 66.6748 85.5861 66.2055 85.0954C65.7468 84.5941 65.1548 84.3434 64.4295 84.3434C63.7042 84.3434 63.1068 84.5941 62.6375 85.0954C62.1682 85.5861 61.9335 86.2314 61.9335 87.0314C61.9335 87.5541 62.0402 88.0181 62.2535 88.4234C62.4668 88.8287 62.7602 89.1487 63.1335 89.3834C63.5175 89.6074 63.9495 89.7194 64.4295 89.7194ZM70.8079 90.9994V79.7994H74.7279C75.6025 79.7994 76.3279 79.9487 76.9039 80.2474C77.4799 80.5354 77.9065 80.9354 78.1839 81.4474C78.4719 81.9487 78.6159 82.5194 78.6159 83.1594C78.6159 83.7674 78.4772 84.3274 78.1999 84.8394C77.9332 85.3407 77.5119 85.7407 76.9359 86.0394C76.3599 86.3381 75.6239 86.4874 74.7279 86.4874H72.5039V90.9994H70.8079ZM72.5039 85.0954H74.6479C75.4479 85.0954 76.0185 84.9247 76.3599 84.5834C76.7119 84.2314 76.8879 83.7567 76.8879 83.1594C76.8879 82.5407 76.7119 82.0607 76.3599 81.7194C76.0185 81.3674 75.4479 81.1914 74.6479 81.1914H72.5039V85.0954ZM80.2283 90.9994V83.0634H81.7483L81.8923 84.5674C82.1696 84.0447 82.5536 83.6341 83.0443 83.3354C83.5456 83.0261 84.1483 82.8714 84.8523 82.8714V84.6474H84.3883C83.9189 84.6474 83.4976 84.7274 83.1243 84.8874C82.7616 85.0367 82.4683 85.2981 82.2443 85.6714C82.0309 86.0341 81.9243 86.5407 81.9243 87.1914V90.9994H80.2283ZM89.7996 91.1914C89.021 91.1914 88.3276 91.0207 87.7196 90.6794C87.1223 90.3274 86.653 89.8421 86.3116 89.2234C85.9703 88.6047 85.7996 87.8847 85.7996 87.0634C85.7996 86.2314 85.965 85.5007 86.2956 84.8714C86.637 84.2421 87.1063 83.7514 87.7036 83.3994C88.3116 83.0474 89.0156 82.8714 89.8156 82.8714C90.5943 82.8714 91.2716 83.0474 91.8476 83.3994C92.4236 83.7407 92.8716 84.1994 93.1916 84.7754C93.5116 85.3514 93.6716 85.9861 93.6716 86.6794C93.6716 86.7861 93.6663 86.9034 93.6556 87.0314C93.6556 87.1487 93.6503 87.2821 93.6396 87.4314H87.4636C87.517 88.1994 87.7676 88.7861 88.2156 89.1914C88.6743 89.5861 89.2023 89.7834 89.7996 89.7834C90.2796 89.7834 90.6796 89.6767 90.9996 89.4634C91.3303 89.2394 91.5756 88.9407 91.7356 88.5674H93.4316C93.2183 89.3141 92.7916 89.9381 92.1516 90.4394C91.5223 90.9407 90.7383 91.1914 89.7996 91.1914ZM89.7996 84.2634C89.2343 84.2634 88.733 84.4341 88.2956 84.7754C87.8583 85.1061 87.5916 85.6074 87.4956 86.2794H91.9756C91.9436 85.6607 91.725 85.1701 91.3196 84.8074C90.9143 84.4447 90.4076 84.2634 89.7996 84.2634ZM98.5994 91.1914C97.5967 91.1914 96.77 90.9461 96.1194 90.4554C95.4687 89.9647 95.0954 89.3141 94.9994 88.5034H96.7114C96.7967 88.8661 96.9994 89.1807 97.3194 89.4474C97.6394 89.7034 98.0607 89.8314 98.5834 89.8314C99.0954 89.8314 99.4687 89.7247 99.7034 89.5114C99.938 89.2981 100.055 89.0527 100.055 88.7754C100.055 88.3701 99.89 88.0981 99.5594 87.9594C99.2394 87.8101 98.7914 87.6767 98.2154 87.5594C97.7674 87.4634 97.3194 87.3354 96.8714 87.1754C96.434 87.0154 96.066 86.7914 95.7674 86.5034C95.4794 86.2047 95.3354 85.8047 95.3354 85.3034C95.3354 84.6101 95.602 84.0341 96.1354 83.5754C96.6687 83.1061 97.4154 82.8714 98.3754 82.8714C99.2607 82.8714 99.9754 83.0847 100.519 83.5114C101.074 83.9381 101.399 84.5407 101.495 85.3194H99.8634C99.81 84.9781 99.65 84.7114 99.3834 84.5194C99.1274 84.3274 98.7807 84.2314 98.3434 84.2314C97.9167 84.2314 97.586 84.3221 97.3514 84.5034C97.1167 84.6741 96.9994 84.8981 96.9994 85.1754C96.9994 85.4527 97.1594 85.6714 97.4794 85.8314C97.81 85.9914 98.242 86.1354 98.7754 86.2634C99.3087 86.3807 99.7994 86.5194 100.247 86.6794C100.706 86.8287 101.074 87.0527 101.351 87.3514C101.629 87.6501 101.767 88.0874 101.767 88.6634C101.778 89.3887 101.495 89.9914 100.919 90.4714C100.354 90.9514 99.5807 91.1914 98.5994 91.1914ZM106.787 91.1914C105.784 91.1914 104.958 90.9461 104.307 90.4554C103.656 89.9647 103.283 89.3141 103.187 88.5034H104.899C104.984 88.8661 105.187 89.1807 105.507 89.4474C105.827 89.7034 106.248 89.8314 106.771 89.8314C107.283 89.8314 107.656 89.7247 107.891 89.5114C108.126 89.2981 108.243 89.0527 108.243 88.7754C108.243 88.3701 108.078 88.0981 107.747 87.9594C107.427 87.8101 106.979 87.6767 106.403 87.5594C105.955 87.4634 105.507 87.3354 105.059 87.1754C104.622 87.0154 104.254 86.7914 103.955 86.5034C103.667 86.2047 103.523 85.8047 103.523 85.3034C103.523 84.6101 103.79 84.0341 104.323 83.5754C104.856 83.1061 105.603 82.8714 106.563 82.8714C107.448 82.8714 108.163 83.0847 108.707 83.5114C109.262 83.9381 109.587 84.5407 109.683 85.3194H108.051C107.998 84.9781 107.838 84.7114 107.571 84.5194C107.315 84.3274 106.968 84.2314 106.531 84.2314C106.104 84.2314 105.774 84.3221 105.539 84.5034C105.304 84.6741 105.187 84.8981 105.187 85.1754C105.187 85.4527 105.347 85.6714 105.667 85.8314C105.998 85.9914 106.43 86.1354 106.963 86.2634C107.496 86.3807 107.987 86.5194 108.435 86.6794C108.894 86.8287 109.262 87.0527 109.539 87.3514C109.816 87.6501 109.955 88.0874 109.955 88.6634C109.966 89.3887 109.683 89.9914 109.107 90.4714C108.542 90.9514 107.768 91.1914 106.787 91.1914Z" fill="white"/>
<g clip-path="url(#clip0_2568_14861)">
<rect x="158" y="47" width="161" height="78" rx="8" fill="white" fill-opacity="0.04"/>
<g clip-path="url(#clip1_2568_14861)">
<path d="M198.045 67H199.752V68.6922H201.326V67H203.033V72.1211H201.326V70.4141H199.767V72.1211H198.045M205.289 68.707H203.783V67H208.51V68.707H206.996V72.1211H205.289M209.26 67H211.049L212.147 68.8035L213.245 67H215.034V72.1211H213.327V69.5828L212.132 71.4234L210.937 69.5828V72.1211H209.26M215.88 67H217.587V70.4289H220.007V72.1211H215.88" fill="#EBEBEB"/>
<path d="M197.986 101.957L195.537 74.4664H222.463L220.014 101.942L208.978 105" fill="#E44D26"/>
<path d="M209 102.662V76.7227H220.007L217.906 100.176" fill="#F16529"/>
<path d="M200.539 80.0847H209V83.4542H204.235L204.547 86.9054H209V90.2675H201.459M201.608 91.9597H204.992L205.23 94.6539L209 95.6632V99.1812L202.083 97.2515" fill="#EBEBEB"/>
<path d="M217.431 80.0847H208.985V83.4542H217.119M216.815 86.9054H208.985V90.275H213.141L212.748 94.6539L208.985 95.6632V99.1664L215.887 97.2515" fill="white"/>
</g>
<path opacity="0.8" d="M245.136 91V79.8H246.832V84.6H252.256V79.8H253.952V91H252.256V85.992H246.832V91H245.136ZM258.854 91V81.176H255.542V79.8H263.846V81.176H260.55V91H258.854ZM265.433 91V79.8H267.433L271.225 87.256L275.001 79.8H277.001V91H275.305V82.728L271.881 89.4H270.569L267.129 82.744V91H265.433ZM279.277 91V79.8H280.973V89.656H286.061V91H279.277Z" fill="white"/>
</g>
<rect x="158.5" y="47.5" width="160" height="77" rx="7.5" stroke="#404040"/>
<rect x="335.5" y="47.5" width="148" height="77" rx="7.5" fill="white" fill-opacity="0.04"/>
<rect x="335.5" y="47.5" width="148" height="77" rx="7.5" stroke="#404040"/>
<path d="M400 74.4679L397.54 101.944L386.483 105L375.457 101.948L373 74.4679H400Z" fill="#264DE4"/>
<path d="M395.434 100.194L397.536 76.7148H386.5V102.664L395.434 100.194Z" fill="#2965F1"/>
<path d="M378.633 86.9067L378.936 90.277H386.5V86.9067H378.633Z" fill="#EBEBEB"/>
<path d="M386.5 80.0851H386.488H378.024L378.331 83.4554H386.5V80.0851Z" fill="#EBEBEB"/>
<path d="M386.5 99.1663V95.6598L386.485 95.6637L382.721 94.6502L382.48 91.9622H380.651H379.087L379.56 97.2541L386.484 99.1706L386.5 99.1663Z" fill="#EBEBEB"/>
<path d="M379.354 67H383.448V68.707H381.066V70.4141H383.448V72.1211H379.354V67Z" fill="#EBEBEB"/>
<path d="M384.267 67H388.361V68.4844H385.979V68.7812H388.361V72.1953H384.267V70.6367H386.649V70.3398H384.267V67Z" fill="#EBEBEB"/>
<path d="M389.18 67H393.274V68.4844H390.892V68.7812H393.274V72.1953H389.18V70.6367H391.562V70.3398H389.18V67Z" fill="#EBEBEB"/>
<path d="M390.651 90.277L390.258 94.648L386.488 95.6626V99.169L393.418 97.254L393.469 96.6846L394.263 87.8117L394.345 86.9067L394.956 80.0851H386.488V83.4554H391.251L390.944 86.9067H386.488V90.277H390.651Z" fill="white"/>
<path opacity="0.8" d="M427.128 91.192C426.019 91.192 425.059 90.952 424.248 90.472C423.448 89.9813 422.829 89.304 422.392 88.44C421.955 87.5653 421.736 86.5573 421.736 85.416C421.736 84.264 421.955 83.256 422.392 82.392C422.829 81.5173 423.448 80.8347 424.248 80.344C425.059 79.8533 426.019 79.608 427.128 79.608C428.44 79.608 429.512 79.928 430.344 80.568C431.176 81.208 431.704 82.104 431.928 83.256H430.04C429.891 82.6053 429.571 82.088 429.08 81.704C428.589 81.32 427.933 81.128 427.112 81.128C425.992 81.128 425.107 81.512 424.456 82.28C423.805 83.0373 423.48 84.0827 423.48 85.416C423.48 86.7387 423.805 87.7787 424.456 88.536C425.107 89.2933 425.992 89.672 427.112 89.672C427.933 89.672 428.589 89.4907 429.08 89.128C429.571 88.7653 429.891 88.2693 430.04 87.64H431.928C431.704 88.7493 431.176 89.6187 430.344 90.248C429.512 90.8773 428.44 91.192 427.128 91.192ZM437.488 91.192C436.667 91.192 435.947 91.048 435.328 90.76C434.71 90.472 434.224 90.0613 433.872 89.528C433.531 88.9947 433.355 88.36 433.344 87.624H435.136C435.147 88.2213 435.355 88.728 435.76 89.144C436.166 89.56 436.736 89.768 437.472 89.768C438.123 89.768 438.63 89.6133 438.992 89.304C439.366 88.984 439.552 88.5787 439.552 88.088C439.552 87.6933 439.462 87.3733 439.28 87.128C439.11 86.8827 438.87 86.68 438.56 86.52C438.262 86.36 437.915 86.216 437.52 86.088C437.126 85.96 436.71 85.8213 436.272 85.672C435.408 85.384 434.758 85.0107 434.32 84.552C433.894 84.0933 433.68 83.4907 433.68 82.744C433.67 82.1147 433.814 81.5653 434.112 81.096C434.422 80.6267 434.848 80.264 435.392 80.008C435.947 79.7413 436.592 79.608 437.328 79.608C438.054 79.608 438.688 79.7413 439.232 80.008C439.787 80.2747 440.219 80.648 440.528 81.128C440.838 81.5973 440.998 82.1467 441.008 82.776H439.216C439.216 82.488 439.142 82.216 438.992 81.96C438.843 81.6933 438.624 81.4747 438.336 81.304C438.048 81.1333 437.696 81.048 437.28 81.048C436.747 81.0373 436.304 81.1707 435.952 81.448C435.611 81.7253 435.44 82.1093 435.44 82.6C435.44 83.0373 435.568 83.3733 435.824 83.608C436.08 83.8427 436.432 84.04 436.88 84.2C437.328 84.3493 437.84 84.5253 438.416 84.728C438.971 84.9093 439.467 85.128 439.904 85.384C440.342 85.64 440.688 85.976 440.944 86.392C441.211 86.808 441.344 87.336 441.344 87.976C441.344 88.5413 441.2 89.0693 440.912 89.56C440.624 90.04 440.192 90.4347 439.616 90.744C439.04 91.0427 438.331 91.192 437.488 91.192ZM446.895 91.192C446.073 91.192 445.353 91.048 444.735 90.76C444.116 90.472 443.631 90.0613 443.279 89.528C442.937 88.9947 442.761 88.36 442.751 87.624H444.543C444.553 88.2213 444.761 88.728 445.167 89.144C445.572 89.56 446.143 89.768 446.879 89.768C447.529 89.768 448.036 89.6133 448.399 89.304C448.772 88.984 448.959 88.5787 448.959 88.088C448.959 87.6933 448.868 87.3733 448.687 87.128C448.516 86.8827 448.276 86.68 447.967 86.52C447.668 86.36 447.321 86.216 446.927 86.088C446.532 85.96 446.116 85.8213 445.679 85.672C444.815 85.384 444.164 85.0107 443.727 84.552C443.3 84.0933 443.087 83.4907 443.087 82.744C443.076 82.1147 443.22 81.5653 443.519 81.096C443.828 80.6267 444.255 80.264 444.799 80.008C445.353 79.7413 445.999 79.608 446.735 79.608C447.46 79.608 448.095 79.7413 448.639 80.008C449.193 80.2747 449.625 80.648 449.935 81.128C450.244 81.5973 450.404 82.1467 450.415 82.776H448.623C448.623 82.488 448.548 82.216 448.399 81.96C448.249 81.6933 448.031 81.4747 447.743 81.304C447.455 81.1333 447.103 81.048 446.687 81.048C446.153 81.0373 445.711 81.1707 445.359 81.448C445.017 81.7253 444.847 82.1093 444.847 82.6C444.847 83.0373 444.975 83.3733 445.231 83.608C445.487 83.8427 445.839 84.04 446.286 84.2C446.735 84.3493 447.247 84.5253 447.823 84.728C448.377 84.9093 448.873 85.128 449.311 85.384C449.748 85.64 450.095 85.976 450.351 86.392C450.617 86.808 450.751 87.336 450.751 87.976C450.751 88.5413 450.607 89.0693 450.319 89.56C450.031 90.04 449.599 90.4347 449.023 90.744C448.447 91.0427 447.737 91.192 446.895 91.192Z" fill="white"/>
<g clip-path="url(#clip2_2568_14861)">
<rect x="-57" y="141" width="175" height="78" rx="8" fill="white" fill-opacity="0.04"/>
<g clip-path="url(#clip3_2568_14861)">
<mask id="mask0_2568_14861" style="mask-type:luminance" maskUnits="userSpaceOnUse" x="-25" y="162" width="66" height="35">
<path d="M-24.8267 179.799C-24.8267 189.219 -10.3084 196.857 7.60001 196.857C25.5084 196.857 40.0268 189.219 40.0268 179.799C40.0268 170.378 25.5084 162.741 7.60001 162.741C-10.3084 162.741 -24.8267 170.378 -24.8267 179.799Z" fill="white"/>
</mask>
<g mask="url(#mask0_2568_14861)">
<path d="M-24.8267 179.799C-24.8267 189.219 -10.3084 196.857 7.60001 196.857C25.5084 196.857 40.0268 189.219 40.0268 179.799C40.0268 170.378 25.5084 162.741 7.60001 162.741C-10.3084 162.741 -24.8267 170.378 -24.8267 179.799Z" fill="url(#paint0_radial_2568_14861)"/>
</g>
<mask id="mask1_2568_14861" style="mask-type:luminance" maskUnits="userSpaceOnUse" x="-27" y="160" width="69" height="39">
<path d="M-26.1777 160.799H41.3778V198.799H-26.1777V160.799Z" fill="white"/>
</mask>
<g mask="url(#mask1_2568_14861)">
<path d="M7.60018 195.59C24.8091 195.59 38.7602 188.52 38.7602 179.799C38.7602 171.078 24.8091 164.008 7.60018 164.008C-9.60877 164.008 -23.5598 171.078 -23.5598 179.799C-23.5598 188.52 -9.60877 195.59 7.60018 195.59Z" fill="#777BB3"/>
</g>
<mask id="mask2_2568_14861" style="mask-type:luminance" maskUnits="userSpaceOnUse" x="-27" y="160" width="69" height="39">
<path d="M-26.1777 160.799H41.3778V198.799H-26.1777V160.799Z" fill="white"/>
</mask>
<g mask="url(#mask2_2568_14861)">
<path d="M-7.20875 181.756C-5.79372 181.756 -4.73735 181.495 -4.06895 180.981C-3.4077 180.472 -2.95099 179.59 -2.71162 178.359C-2.48843 177.209 -2.57346 176.406 -2.96425 175.973C-3.36383 175.53 -4.22775 175.306 -5.53195 175.306H-7.7933L-9.04695 181.756H-7.20875ZM-14.605 189.702C-14.71 189.702 -14.8097 189.655 -14.8764 189.574C-14.9433 189.493 -14.9704 189.386 -14.9503 189.283L-11.6279 172.189C-11.5958 172.024 -11.4509 171.904 -11.2825 171.904H-4.12184C-1.8714 171.904 -0.196347 172.515 0.856511 173.721C1.915 174.932 2.24187 176.626 1.82797 178.755C1.65956 179.622 1.36986 180.427 0.966992 181.148C0.563653 181.87 0.0305977 182.538 -0.617631 183.134C-1.39358 183.86 -2.2718 184.387 -3.22556 184.697C-4.16418 185.002 -5.36962 185.158 -6.80835 185.158H-9.70784L-10.5359 189.418C-10.568 189.583 -10.7127 189.702 -10.8811 189.702H-14.605Z" fill="black"/>
<path d="M-7.50319 175.658H-5.53188C-3.95781 175.658 -3.41103 176.003 -3.22526 176.209C-2.91703 176.551 -2.85886 177.271 -3.05695 178.293C-3.27956 179.436 -3.69216 180.247 -4.28351 180.703C-4.88893 181.169 -5.87317 181.405 -7.20869 181.405H-8.62008L-7.50319 175.658ZM-4.12177 171.553H-11.2825C-11.6194 171.553 -11.909 171.792 -11.9732 172.122L-15.2957 189.217C-15.3358 189.423 -15.2816 189.636 -15.148 189.798C-15.0143 189.961 -14.8151 190.055 -14.605 190.055H-10.8812C-10.5442 190.055 -10.2547 189.816 -10.1904 189.485L-9.41773 185.51H-6.80828C-5.33261 185.51 -4.09034 185.349 -3.1163 185.032C-2.11458 184.706 -1.19296 184.154 -0.377249 183.391C0.297368 182.771 0.85306 182.074 1.27411 181.321C1.69527 180.567 1.99787 179.726 2.17344 178.822C2.60915 176.582 2.25519 174.787 1.12152 173.49C-0.00111961 172.205 -1.7653 171.553 -4.12177 171.553ZM-9.47379 182.109H-7.20869C-5.70734 182.109 -4.58903 181.826 -3.85425 181.26C-3.11935 180.694 -2.62371 179.75 -2.36615 178.427C-2.11974 177.156 -2.23198 176.26 -2.70287 175.738C-3.17435 175.215 -4.1172 174.954 -5.53188 174.954H-8.08327L-9.47379 182.109ZM-4.12177 172.257C-1.96762 172.257 -0.396132 172.822 0.591633 173.953C1.57928 175.083 1.87671 176.662 1.48264 178.688C1.32044 179.523 1.04611 180.286 0.659892 180.977C0.273208 181.669 -0.2317 182.302 -0.85565 182.875C-1.59923 183.571 -2.42526 184.067 -3.33421 184.362C-4.24316 184.659 -5.40087 184.806 -6.80828 184.806H-9.99793L-10.8812 189.351H-14.605L-11.2825 172.257H-4.12177Z" fill="white"/>
<path d="M10.366 185.158C10.2609 185.158 10.1613 185.111 10.0946 185.03C10.0276 184.949 10.0005 184.842 10.0206 184.739L11.4902 177.175C11.63 176.456 11.5956 175.94 11.3933 175.722C11.2694 175.588 10.8974 175.365 9.79737 175.365H7.13479L5.28698 184.873C5.25485 185.038 5.11 185.158 4.94158 185.158H1.24714C1.14205 185.158 1.04248 185.111 0.975624 185.03C0.908772 184.949 0.881679 184.842 0.901735 184.739L4.22415 167.645C4.25629 167.479 4.40114 167.36 4.56956 167.36H8.264C8.36909 167.36 8.46866 167.407 8.53551 167.488C8.60236 167.569 8.62946 167.676 8.6094 167.779L7.80765 171.905H10.672C12.854 171.905 14.3337 172.289 15.1955 173.081C16.0739 173.888 16.348 175.179 16.0103 176.918L14.4645 184.873C14.4323 185.038 14.2876 185.158 14.1191 185.158H10.366Z" fill="black"/>
<path d="M8.26407 167.008H4.56962C4.23267 167.008 3.94309 167.247 3.87882 167.578L0.556399 184.672C0.516288 184.878 0.570474 185.092 0.704178 185.254C0.837881 185.416 1.03703 185.51 1.2472 185.51H4.94165C5.27849 185.51 5.56818 185.271 5.63245 184.94L7.4249 175.717H9.79744C10.8956 175.717 11.126 175.951 11.1353 175.961C11.2019 176.033 11.2895 176.365 11.1449 177.108L9.67523 184.672C9.63512 184.878 9.6893 185.092 9.823 185.254C9.95671 185.416 10.1559 185.51 10.366 185.51H14.1191C14.456 185.51 14.7456 185.271 14.8099 184.94L16.3556 176.986C16.7184 175.118 16.408 173.718 15.4336 172.822C14.5038 171.968 12.9463 171.553 10.672 171.553H8.23439L8.95487 167.846C8.99486 167.64 8.94079 167.426 8.80709 167.264C8.67339 167.102 8.47424 167.008 8.26407 167.008ZM8.26407 167.712L7.3808 172.257H10.672C12.7429 172.257 14.1713 172.618 14.9575 173.34C15.7436 174.063 15.9791 175.233 15.6649 176.851L14.1191 184.806H10.366L11.8357 177.243C12.003 176.382 11.9415 175.795 11.6511 175.482C11.3606 175.17 10.7426 175.013 9.79744 175.013H6.8447L4.94165 184.806H1.2472L4.56962 167.712H8.26407Z" fill="white"/>
<path d="M21.8557 181.756C23.2707 181.756 24.3271 181.495 24.9955 180.981C25.6567 180.472 26.1134 179.59 26.3529 178.359C26.5761 177.209 26.4911 176.406 26.1002 175.973C25.7006 175.53 24.8367 175.306 23.5325 175.306H21.2711L20.0175 181.756H21.8557ZM14.4595 189.702C14.3546 189.702 14.2549 189.655 14.1881 189.574C14.1213 189.493 14.0941 189.386 14.1141 189.283L17.4365 172.189C17.4688 172.024 17.6135 171.904 17.7821 171.904H24.9426C27.1932 171.904 28.8681 172.515 29.9211 173.721C30.9796 174.932 31.3063 176.626 30.8925 178.755C30.7239 179.622 30.4343 180.427 30.0314 181.148C29.6281 181.87 29.095 182.538 28.4468 183.134C27.6709 183.86 26.7926 184.387 25.8389 184.697C24.9003 185.002 23.6948 185.158 22.2561 185.158H19.3565L18.5288 189.418C18.4966 189.583 18.3518 189.702 18.1833 189.702H14.4595Z" fill="black"/>
<path d="M21.5616 175.658H23.5329C25.107 175.658 25.6538 176.003 25.8396 176.209C26.1479 176.551 26.2061 177.271 26.0079 178.293C25.7853 179.436 25.3725 180.247 24.7813 180.703C24.1759 181.169 23.1916 181.405 21.8561 181.405H20.4449L21.5616 175.658ZM24.9431 171.553H17.7824C17.4456 171.553 17.156 171.792 17.0917 172.122L13.7693 189.217C13.7292 189.423 13.7834 189.636 13.917 189.798C14.0507 189.961 14.2498 190.055 14.46 190.055H18.1837C18.5206 190.055 18.8103 189.816 18.8745 189.485L19.6471 185.51H22.2565C23.7322 185.51 24.9745 185.349 25.9485 185.032C26.9502 184.706 27.8721 184.154 28.6878 183.391C29.3624 182.771 29.9179 182.074 30.3389 181.321C30.7601 180.567 31.0627 179.726 31.2383 178.822C31.674 176.582 31.32 174.787 30.1863 173.49C29.0637 172.205 27.2996 171.553 24.9431 171.553ZM19.5911 182.109H21.8561C23.3575 182.109 24.4758 181.826 25.2106 181.26C25.9456 180.694 26.4411 179.75 26.6987 178.427C26.9452 177.156 26.833 176.26 26.362 175.738C25.8905 175.215 24.9476 174.954 23.5329 174.954H20.9816L19.5911 182.109ZM24.9431 172.257C27.0972 172.257 28.6687 172.822 29.6565 173.953C30.6442 175.083 30.9415 176.662 30.5475 178.688C30.3853 179.523 30.1109 180.286 29.7247 180.977C29.338 181.669 28.8331 182.302 28.2092 182.875C27.4656 183.571 26.6396 184.067 25.7306 184.362C24.8217 184.659 23.664 184.806 22.2565 184.806H19.0669L18.1837 189.351H14.46L17.7824 172.257H24.9431Z" fill="white"/>
</g>
</g>
<path opacity="0.8" d="M57.136 185V173.8H61.056C61.9307 173.8 62.656 173.949 63.232 174.248C63.808 174.536 64.2347 174.936 64.512 175.448C64.8 175.949 64.944 176.52 64.944 177.16C64.944 177.768 64.8053 178.328 64.528 178.84C64.2613 179.341 63.84 179.741 63.264 180.04C62.688 180.339 61.952 180.488 61.056 180.488H58.832V185H57.136ZM58.832 179.096H60.976C61.776 179.096 62.3467 178.925 62.688 178.584C63.04 178.232 63.216 177.757 63.216 177.16C63.216 176.541 63.04 176.061 62.688 175.72C62.3467 175.368 61.776 175.192 60.976 175.192H58.832V179.096ZM66.6204 185V173.8H68.3164V178.6H73.7404V173.8H75.4364V185H73.7404V179.992H68.3164V185H66.6204ZM77.7141 185V173.8H81.6341C82.5088 173.8 83.2341 173.949 83.8101 174.248C84.3861 174.536 84.8128 174.936 85.0901 175.448C85.3781 175.949 85.5221 176.52 85.5221 177.16C85.5221 177.768 85.3835 178.328 85.1061 178.84C84.8395 179.341 84.4181 179.741 83.8421 180.04C83.2661 180.339 82.5301 180.488 81.6341 180.488H79.4101V185H77.7141ZM79.4101 179.096H81.5541C82.3541 179.096 82.9248 178.925 83.2661 178.584C83.6181 178.232 83.7941 177.757 83.7941 177.16C83.7941 176.541 83.6181 176.061 83.2661 175.72C82.9248 175.368 82.3541 175.192 81.5541 175.192H79.4101V179.096Z" fill="white"/>
</g>
<rect x="-56.5" y="141.5" width="174" height="77" rx="7.5" stroke="#404040"/>
<rect x="134.5" y="141.5" width="171" height="77" rx="7.5" fill="white" fill-opacity="0.04"/>
<rect x="134.5" y="141.5" width="171" height="77" rx="7.5" stroke="#404040"/>
<g clip-path="url(#clip4_2568_14861)">
<path fill-rule="evenodd" clip-rule="evenodd" d="M201.002 190.6C198.936 190.542 197.332 190.754 195.988 191.32C195.602 191.475 194.981 191.475 194.93 191.962C195.136 192.166 195.161 192.501 195.343 192.784C195.653 193.298 196.196 193.991 196.686 194.35L198.34 195.532C199.348 196.148 200.485 196.507 201.467 197.124C202.036 197.484 202.604 197.946 203.173 198.332C203.462 198.537 203.638 198.872 204 198.999V198.922C203.819 198.691 203.767 198.358 203.587 198.1L202.811 197.355C202.062 196.354 201.131 195.48 200.123 194.761C199.296 194.196 197.488 193.426 197.152 192.476L197.101 192.418C197.668 192.361 198.34 192.161 198.884 192.007C199.763 191.777 200.563 191.827 201.467 191.596L202.708 191.237V191.006C202.243 190.544 201.907 189.928 201.417 189.491C200.099 188.361 198.651 187.257 197.152 186.332C196.35 185.819 195.317 185.484 194.464 185.048C194.153 184.894 193.637 184.817 193.456 184.56C192.99 183.996 192.732 183.251 192.396 182.582L190.277 178.113C189.812 177.112 189.527 176.11 188.959 175.186C186.297 170.819 183.402 168.174 178.957 165.58C178.001 165.04 176.864 164.808 175.655 164.526L173.717 164.423C173.303 164.243 172.89 163.755 172.528 163.523C171.055 162.599 167.256 160.596 166.169 163.236C165.471 164.905 167.203 166.549 167.791 167.396C168.232 167.987 168.799 168.655 169.11 169.323C169.284 169.759 169.342 170.222 169.523 170.684C169.936 171.814 170.324 173.073 170.867 174.126C171.157 174.666 171.461 175.232 171.823 175.719C172.03 176.007 172.392 176.13 172.469 176.593C172.107 177.107 172.082 177.876 171.875 178.519C170.944 181.422 171.306 185.017 172.624 187.154C173.038 187.796 174.014 189.209 175.338 188.669C176.501 188.207 176.242 186.743 176.578 185.459C176.656 185.151 176.604 184.945 176.759 184.739V184.797L177.819 186.928C178.62 188.187 180.016 189.497 181.178 190.371C181.798 190.833 182.289 191.63 183.064 191.912V191.834H183.013C182.858 191.604 182.625 191.5 182.418 191.321C181.953 190.858 181.437 190.293 181.075 189.78C179.99 188.342 179.034 186.749 178.181 185.105C177.767 184.309 177.405 183.436 177.07 182.64C176.913 182.331 176.913 181.868 176.656 181.715C176.267 182.279 175.7 182.769 175.414 183.462C174.923 184.566 174.872 185.927 174.691 187.34C174.587 187.366 174.633 187.34 174.587 187.398C173.761 187.193 173.476 186.344 173.166 185.626C172.391 183.802 172.261 180.874 172.933 178.768C173.114 178.229 173.89 176.533 173.58 176.02C173.424 175.532 172.908 175.25 172.623 174.864C172.287 174.376 171.927 173.76 171.694 173.22C171.074 171.781 170.764 170.19 170.092 168.751C169.78 168.083 169.238 167.39 168.799 166.774C168.307 166.08 167.766 165.592 167.378 164.77C167.249 164.482 167.068 164.025 167.275 163.717C167.326 163.511 167.43 163.429 167.636 163.383C167.971 163.095 168.928 163.46 169.264 163.613C170.22 163.999 171.021 164.358 171.822 164.897C172.184 165.154 172.572 165.642 173.038 165.771H173.581C174.408 165.95 175.338 165.828 176.112 166.059C177.482 166.496 178.722 167.137 179.834 167.832C183.22 169.963 186.012 172.994 187.898 176.616C188.207 177.207 188.337 177.746 188.622 178.363C189.165 179.622 189.837 180.905 190.378 182.139C190.922 183.346 191.438 184.58 192.214 185.581C192.602 186.121 194.152 186.403 194.849 186.686C195.366 186.916 196.167 187.123 196.633 187.405C197.511 187.944 198.39 188.561 199.217 189.152C199.63 189.459 200.922 190.101 201 190.614L201.002 190.6ZM174.647 168.281C174.29 168.278 173.934 168.321 173.588 168.409V168.467H173.639C173.846 168.878 174.208 169.16 174.466 169.52L175.061 170.753L175.112 170.696C175.474 170.439 175.655 170.028 175.655 169.412C175.5 169.232 175.474 169.052 175.345 168.872C175.19 168.616 174.854 168.487 174.647 168.282V168.281Z" fill="white"/>
</g>
<path opacity="0.8" d="M221.136 185V173.8H223.136L226.928 181.256L230.704 173.8H232.704V185H231.008V176.728L227.584 183.4H226.272L222.832 176.744V185H221.136ZM235.844 188.52L237.748 184.344H237.284L234.148 177.064H235.988L238.42 182.936L240.964 177.064H242.756L237.636 188.52H235.844ZM247.91 185.192C247.089 185.192 246.369 185.048 245.75 184.76C245.131 184.472 244.646 184.061 244.294 183.528C243.953 182.995 243.777 182.36 243.766 181.624H245.558C245.569 182.221 245.777 182.728 246.182 183.144C246.587 183.56 247.158 183.768 247.894 183.768C248.545 183.768 249.051 183.613 249.414 183.304C249.787 182.984 249.974 182.579 249.974 182.088C249.974 181.693 249.883 181.373 249.702 181.128C249.531 180.883 249.291 180.68 248.982 180.52C248.683 180.36 248.337 180.216 247.942 180.088C247.547 179.96 247.131 179.821 246.694 179.672C245.83 179.384 245.179 179.011 244.742 178.552C244.315 178.093 244.102 177.491 244.102 176.744C244.091 176.115 244.235 175.565 244.534 175.096C244.843 174.627 245.27 174.264 245.814 174.008C246.369 173.741 247.014 173.608 247.75 173.608C248.475 173.608 249.11 173.741 249.654 174.008C250.209 174.275 250.641 174.648 250.95 175.128C251.259 175.597 251.419 176.147 251.43 176.776H249.638C249.638 176.488 249.563 176.216 249.414 175.96C249.265 175.693 249.046 175.475 248.758 175.304C248.47 175.133 248.118 175.048 247.702 175.048C247.169 175.037 246.726 175.171 246.374 175.448C246.033 175.725 245.862 176.109 245.862 176.6C245.862 177.037 245.99 177.373 246.246 177.608C246.502 177.843 246.854 178.04 247.302 178.2C247.75 178.349 248.262 178.525 248.838 178.728C249.393 178.909 249.889 179.128 250.326 179.384C250.763 179.64 251.11 179.976 251.366 180.392C251.633 180.808 251.766 181.336 251.766 181.976C251.766 182.541 251.622 183.069 251.334 183.56C251.046 184.04 250.614 184.435 250.038 184.744C249.462 185.043 248.753 185.192 247.91 185.192ZM258.788 185.192C257.679 185.192 256.708 184.947 255.876 184.456C255.044 183.965 254.394 183.288 253.924 182.424C253.455 181.549 253.22 180.541 253.22 179.4C253.22 178.259 253.455 177.256 253.924 176.392C254.394 175.517 255.044 174.835 255.876 174.344C256.708 173.853 257.679 173.608 258.788 173.608C259.898 173.608 260.868 173.853 261.7 174.344C262.532 174.835 263.178 175.517 263.636 176.392C264.106 177.256 264.34 178.259 264.34 179.4C264.34 180.499 264.122 181.475 263.684 182.328C263.258 183.181 262.66 183.853 261.892 184.344L264.596 187.096H262.452L260.452 184.984C259.93 185.123 259.375 185.192 258.788 185.192ZM258.788 183.672C259.556 183.672 260.223 183.501 260.788 183.16C261.364 182.819 261.812 182.328 262.132 181.688C262.452 181.048 262.612 180.285 262.612 179.4C262.612 178.515 262.452 177.752 262.132 177.112C261.812 176.472 261.364 175.981 260.788 175.64C260.223 175.299 259.556 175.128 258.788 175.128C258.02 175.128 257.348 175.299 256.772 175.64C256.196 175.981 255.748 176.472 255.428 177.112C255.119 177.752 254.964 178.515 254.964 179.4C254.964 180.285 255.119 181.048 255.428 181.688C255.748 182.328 256.196 182.819 256.772 183.16C257.348 183.501 258.02 183.672 258.788 183.672ZM266.245 185V173.8H267.941V183.656H273.029V185H266.245Z" fill="white"/>
<rect x="322.5" y="141.5" width="170" height="76.848" rx="7.5" fill="white" fill-opacity="0.04"/>
<rect x="322.5" y="141.5" width="170" height="76.848" rx="7.5" stroke="#404040"/>
<g clip-path="url(#clip5_2568_14861)">
<path d="M372.837 161.011C363.215 161.011 363.816 165.184 363.816 165.184L363.826 169.507H373.009V170.805H360.179C360.179 170.805 354.021 170.107 354.021 179.816C354.021 189.525 359.396 189.181 359.396 189.181H362.603V184.675C362.603 184.675 362.43 179.301 367.892 179.301H377C377 179.301 382.116 179.383 382.116 174.355V166.042C382.116 166.042 382.894 161.011 372.837 161.011ZM367.774 163.918C367.991 163.918 368.206 163.96 368.406 164.043C368.607 164.126 368.789 164.248 368.943 164.401C369.096 164.555 369.218 164.737 369.301 164.938C369.384 165.138 369.426 165.353 369.426 165.57C369.426 165.787 369.384 166.002 369.301 166.202C369.218 166.403 369.096 166.585 368.943 166.738C368.789 166.892 368.607 167.014 368.406 167.097C368.206 167.18 367.991 167.222 367.774 167.222C367.557 167.222 367.342 167.18 367.142 167.097C366.941 167.014 366.759 166.892 366.605 166.738C366.452 166.585 366.33 166.403 366.247 166.202C366.164 166.002 366.122 165.787 366.122 165.57C366.122 165.353 366.164 165.138 366.247 164.938C366.33 164.737 366.452 164.555 366.605 164.401C366.759 164.248 366.941 164.126 367.142 164.043C367.342 163.96 367.557 163.918 367.774 163.918Z" fill="url(#paint1_linear_2568_14861)"/>
<path d="M373.111 198.718C382.733 198.718 382.132 194.545 382.132 194.545L382.122 190.222H372.939V188.924H385.769C385.769 188.924 391.926 189.623 391.926 179.913C391.926 170.204 386.552 170.548 386.552 170.548H383.344V175.054C383.344 175.054 383.517 180.428 378.056 180.428H368.948C368.948 180.428 363.831 180.345 363.831 185.374V193.687C363.831 193.687 363.054 198.718 373.11 198.718H373.111ZM378.174 195.811C377.957 195.811 377.742 195.769 377.542 195.686C377.341 195.603 377.159 195.481 377.005 195.328C376.852 195.174 376.73 194.992 376.647 194.792C376.564 194.591 376.522 194.376 376.522 194.159C376.522 193.942 376.564 193.727 376.647 193.527C376.73 193.326 376.852 193.144 377.005 192.991C377.159 192.837 377.341 192.716 377.541 192.633C377.742 192.55 377.957 192.507 378.174 192.507C378.391 192.507 378.606 192.55 378.806 192.633C379.007 192.716 379.189 192.837 379.342 192.991C379.496 193.144 379.618 193.326 379.701 193.527C379.783 193.727 379.826 193.942 379.826 194.159C379.826 194.376 379.783 194.591 379.701 194.792C379.618 194.992 379.496 195.174 379.342 195.328C379.189 195.481 379.007 195.603 378.806 195.686C378.606 195.769 378.391 195.811 378.174 195.811Z" fill="url(#paint2_linear_2568_14861)"/>
</g>
<path opacity="0.8" d="M409.136 184.924V173.724H413.056C413.931 173.724 414.656 173.873 415.232 174.172C415.808 174.46 416.235 174.86 416.512 175.372C416.8 175.873 416.944 176.444 416.944 177.084C416.944 177.692 416.805 178.252 416.528 178.764C416.261 179.265 415.84 179.665 415.264 179.964C414.688 180.263 413.952 180.412 413.056 180.412H410.832V184.924H409.136ZM410.832 179.02H412.976C413.776 179.02 414.347 178.849 414.688 178.508C415.04 178.156 415.216 177.681 415.216 177.084C415.216 176.465 415.04 175.985 414.688 175.644C414.347 175.292 413.776 175.116 412.976 175.116H410.832V179.02ZM419.484 188.444L421.388 184.268H420.924L417.788 176.988H419.628L422.06 182.86L424.604 176.988H426.396L421.276 188.444H419.484ZM431.119 184.924C430.34 184.924 429.721 184.737 429.263 184.364C428.804 183.98 428.575 183.303 428.575 182.332V178.412H427.215V176.988H428.575L428.783 174.972H430.271V176.988H432.511V178.412H430.271V182.332C430.271 182.769 430.361 183.073 430.543 183.244C430.735 183.404 431.06 183.484 431.519 183.484H432.431V184.924H431.119ZM434.26 184.924V173.404H435.956V178.268C436.222 177.809 436.59 177.452 437.06 177.196C437.54 176.929 438.068 176.796 438.644 176.796C439.593 176.796 440.34 177.095 440.884 177.692C441.428 178.289 441.7 179.18 441.7 180.364V184.924H440.02V180.54C440.02 179.004 439.406 178.236 438.18 178.236C437.54 178.236 437.006 178.46 436.58 178.908C436.164 179.356 435.956 179.996 435.956 180.828V184.924H434.26ZM447.409 185.116C446.652 185.116 445.969 184.945 445.361 184.604C444.764 184.252 444.289 183.767 443.937 183.148C443.585 182.519 443.409 181.788 443.409 180.956C443.409 180.124 443.585 179.399 443.937 178.78C444.3 178.151 444.785 177.665 445.393 177.324C446.001 176.972 446.678 176.796 447.425 176.796C448.182 176.796 448.86 176.972 449.457 177.324C450.065 177.665 450.545 178.151 450.897 178.78C451.26 179.399 451.441 180.124 451.441 180.956C451.441 181.788 451.26 182.519 450.897 183.148C450.545 183.767 450.065 184.252 449.457 184.604C448.849 184.945 448.166 185.116 447.409 185.116ZM447.409 183.66C447.814 183.66 448.188 183.559 448.529 183.356C448.881 183.153 449.164 182.855 449.377 182.46C449.59 182.055 449.697 181.553 449.697 180.956C449.697 180.359 449.59 179.863 449.377 179.468C449.174 179.063 448.897 178.759 448.545 178.556C448.204 178.353 447.83 178.252 447.425 178.252C447.02 178.252 446.641 178.353 446.289 178.556C445.948 178.759 445.67 179.063 445.457 179.468C445.244 179.863 445.137 180.359 445.137 180.956C445.137 181.553 445.244 182.055 445.457 182.46C445.67 182.855 445.948 183.153 446.289 183.356C446.63 183.559 447.004 183.66 447.409 183.66ZM453.275 184.924V176.988H454.779L454.907 178.38C455.152 177.889 455.51 177.505 455.979 177.228C456.459 176.94 457.008 176.796 457.627 176.796C458.587 176.796 459.339 177.095 459.883 177.692C460.438 178.289 460.715 179.18 460.715 180.364V184.924H459.035V180.54C459.035 179.004 458.406 178.236 457.147 178.236C456.518 178.236 455.995 178.46 455.579 178.908C455.174 179.356 454.971 179.996 454.971 180.828V184.924H453.275Z" fill="white"/>
<rect x="-56.5" y="235.5" width="196" height="77" rx="7.5" fill="white" fill-opacity="0.04"/>
<rect x="-56.5" y="235.5" width="196" height="77" rx="7.5" stroke="#404040"/>
<g clip-path="url(#clip6_2568_14861)">
<path d="M13 255H-25V293H13V255Z" fill="#F7DF1E"/>
<path d="M0.52626 284.688C1.29169 285.937 2.28753 286.856 4.0488 286.856C5.52839 286.856 6.47356 286.117 6.47356 285.095C6.47356 283.87 5.50245 283.437 3.87388 282.724L2.98118 282.341C0.404418 281.244 -1.30739 279.868 -1.30739 276.961C-1.30739 274.283 0.733149 272.244 3.92213 272.244C6.19248 272.244 7.82467 273.034 9.00086 275.103L6.22023 276.889C5.608 275.791 4.94753 275.358 3.92213 275.358C2.87623 275.358 2.21334 276.022 2.21334 276.889C2.21334 277.96 2.87683 278.394 4.4089 279.057L5.30159 279.439C8.33556 280.74 10.0486 282.067 10.0486 285.049C10.0486 288.264 7.52308 290.025 4.13143 290.025C0.815181 290.025 -1.3273 288.445 -2.37561 286.374L0.52626 284.688ZM-12.0879 284.997C-11.527 285.992 -11.0167 286.834 -9.78984 286.834C-8.61666 286.834 -7.87656 286.375 -7.87656 284.59V272.448H-4.30577V284.638C-4.30577 288.336 -6.47358 290.018 -9.63784 290.018C-12.4969 290.018 -14.1526 288.539 -14.9946 286.757L-12.0879 284.997Z" fill="black"/>
</g>
<path opacity="0.8" d="M32.84 279.192C31.7947 279.192 30.9627 278.899 30.344 278.312C29.736 277.725 29.432 276.899 29.432 275.832H31.128C31.128 276.365 31.256 276.808 31.512 277.16C31.7787 277.512 32.2107 277.688 32.808 277.688C33.3947 277.688 33.8107 277.523 34.056 277.192C34.3013 276.851 34.424 276.419 34.424 275.896V267.8H36.12V275.896C36.12 276.952 35.8267 277.768 35.24 278.344C34.6533 278.909 33.8533 279.192 32.84 279.192ZM41.01 279.192C40.338 279.192 39.7833 279.08 39.346 278.856C38.9087 278.632 38.5833 278.339 38.37 277.976C38.1567 277.603 38.05 277.197 38.05 276.76C38.05 275.992 38.3487 275.384 38.946 274.936C39.5433 274.488 40.3967 274.264 41.506 274.264H43.586V274.12C43.586 273.501 43.4153 273.037 43.074 272.728C42.7433 272.419 42.3113 272.264 41.778 272.264C41.3087 272.264 40.898 272.381 40.546 272.616C40.2047 272.84 39.9967 273.176 39.922 273.624H38.226C38.2793 273.048 38.4713 272.557 38.802 272.152C39.1433 271.736 39.57 271.421 40.082 271.208C40.6047 270.984 41.1753 270.872 41.794 270.872C42.9033 270.872 43.762 271.165 44.37 271.752C44.978 272.328 45.282 273.117 45.282 274.12V279H43.81L43.666 277.64C43.442 278.077 43.1167 278.445 42.69 278.744C42.2633 279.043 41.7033 279.192 41.01 279.192ZM41.346 277.816C41.8047 277.816 42.1887 277.709 42.498 277.496C42.818 277.272 43.0633 276.979 43.234 276.616C43.4153 276.253 43.5273 275.853 43.57 275.416H41.682C41.01 275.416 40.53 275.533 40.242 275.768C39.9647 276.003 39.826 276.296 39.826 276.648C39.826 277.011 39.9593 277.299 40.226 277.512C40.5033 277.715 40.8767 277.816 41.346 277.816ZM49.2179 279L46.2419 271.064H48.0179L50.2259 277.384L52.4339 271.064H54.1939L51.2339 279H49.2179ZM57.8225 279.192C57.1505 279.192 56.5958 279.08 56.1585 278.856C55.7212 278.632 55.3958 278.339 55.1825 277.976C54.9692 277.603 54.8625 277.197 54.8625 276.76C54.8625 275.992 55.1612 275.384 55.7585 274.936C56.3558 274.488 57.2092 274.264 58.3185 274.264H60.3985V274.12C60.3985 273.501 60.2278 273.037 59.8865 272.728C59.5558 272.419 59.1238 272.264 58.5905 272.264C58.1212 272.264 57.7105 272.381 57.3585 272.616C57.0172 272.84 56.8092 273.176 56.7345 273.624H55.0385C55.0918 273.048 55.2838 272.557 55.6145 272.152C55.9558 271.736 56.3825 271.421 56.8945 271.208C57.4172 270.984 57.9878 270.872 58.6065 270.872C59.7158 270.872 60.5745 271.165 61.1825 271.752C61.7905 272.328 62.0945 273.117 62.0945 274.12V279H60.6225L60.4785 277.64C60.2545 278.077 59.9292 278.445 59.5025 278.744C59.0758 279.043 58.5158 279.192 57.8225 279.192ZM58.1585 277.816C58.6172 277.816 59.0012 277.709 59.3105 277.496C59.6305 277.272 59.8758 276.979 60.0465 276.616C60.2278 276.253 60.3398 275.853 60.3825 275.416H58.4945C57.8225 275.416 57.3425 275.533 57.0545 275.768C56.7772 276.003 56.6385 276.296 56.6385 276.648C56.6385 277.011 56.7718 277.299 57.0385 277.512C57.3158 277.715 57.6892 277.816 58.1585 277.816ZM67.832 279.192C67.0107 279.192 66.2907 279.048 65.672 278.76C65.0533 278.472 64.568 278.061 64.216 277.528C63.8747 276.995 63.6987 276.36 63.688 275.624H65.48C65.4907 276.221 65.6987 276.728 66.104 277.144C66.5093 277.56 67.08 277.768 67.816 277.768C68.4667 277.768 68.9733 277.613 69.336 277.304C69.7093 276.984 69.896 276.579 69.896 276.088C69.896 275.693 69.8053 275.373 69.624 275.128C69.4533 274.883 69.2133 274.68 68.904 274.52C68.6053 274.36 68.2587 274.216 67.864 274.088C67.4693 273.96 67.0533 273.821 66.616 273.672C65.752 273.384 65.1013 273.011 64.664 272.552C64.2373 272.093 64.024 271.491 64.024 270.744C64.0133 270.115 64.1573 269.565 64.456 269.096C64.7653 268.627 65.192 268.264 65.736 268.008C66.2907 267.741 66.936 267.608 67.672 267.608C68.3973 267.608 69.032 267.741 69.576 268.008C70.1307 268.275 70.5627 268.648 70.872 269.128C71.1813 269.597 71.3413 270.147 71.352 270.776H69.56C69.56 270.488 69.4853 270.216 69.336 269.96C69.1867 269.693 68.968 269.475 68.68 269.304C68.392 269.133 68.04 269.048 67.624 269.048C67.0907 269.037 66.648 269.171 66.296 269.448C65.9547 269.725 65.784 270.109 65.784 270.6C65.784 271.037 65.912 271.373 66.168 271.608C66.424 271.843 66.776 272.04 67.224 272.2C67.672 272.349 68.184 272.525 68.76 272.728C69.3147 272.909 69.8107 273.128 70.248 273.384C70.6853 273.64 71.032 273.976 71.288 274.392C71.5547 274.808 71.688 275.336 71.688 275.976C71.688 276.541 71.544 277.069 71.256 277.56C70.968 278.04 70.536 278.435 69.96 278.744C69.384 279.043 68.6747 279.192 67.832 279.192ZM77.2383 279.192C76.4596 279.192 75.7609 279.016 75.1423 278.664C74.5343 278.312 74.0543 277.827 73.7023 277.208C73.3609 276.579 73.1903 275.853 73.1903 275.032C73.1903 274.211 73.3609 273.491 73.7023 272.872C74.0543 272.243 74.5343 271.752 75.1423 271.4C75.7609 271.048 76.4596 270.872 77.2383 270.872C78.2196 270.872 79.0409 271.128 79.7023 271.64C80.3743 272.152 80.8063 272.845 80.9983 273.72H79.2223C79.1156 273.283 78.8809 272.941 78.5183 272.696C78.1556 272.451 77.7289 272.328 77.2383 272.328C76.8223 272.328 76.4383 272.435 76.0863 272.648C75.7343 272.851 75.4516 273.155 75.2383 273.56C75.0249 273.955 74.9183 274.445 74.9183 275.032C74.9183 275.619 75.0249 276.115 75.2383 276.52C75.4516 276.915 75.7343 277.219 76.0863 277.432C76.4383 277.645 76.8223 277.752 77.2383 277.752C77.7289 277.752 78.1556 277.629 78.5183 277.384C78.8809 277.139 79.1156 276.792 79.2223 276.344H80.9983C80.8169 277.197 80.3903 277.885 79.7183 278.408C79.0463 278.931 78.2196 279.192 77.2383 279.192ZM82.8376 279V271.064H84.3576L84.5016 272.568C84.779 272.045 85.163 271.635 85.6536 271.336C86.155 271.027 86.7576 270.872 87.4616 270.872V272.648H86.9976C86.5283 272.648 86.107 272.728 85.7336 272.888C85.371 273.037 85.0776 273.299 84.8536 273.672C84.6403 274.035 84.5336 274.541 84.5336 275.192V279H82.8376ZM89.8758 269.56C89.5558 269.56 89.2891 269.464 89.0758 269.272C88.8731 269.069 88.7718 268.819 88.7718 268.52C88.7718 268.221 88.8731 267.976 89.0758 267.784C89.2891 267.581 89.5558 267.48 89.8758 267.48C90.1958 267.48 90.4571 267.581 90.6598 267.784C90.8731 267.976 90.9798 268.221 90.9798 268.52C90.9798 268.819 90.8731 269.069 90.6598 269.272C90.4571 269.464 90.1958 269.56 89.8758 269.56ZM89.0278 279V271.064H90.7238V279H89.0278ZM92.9626 282.52V271.064H94.4826L94.6586 272.296C94.9146 271.923 95.2666 271.592 95.7146 271.304C96.1626 271.016 96.7386 270.872 97.4426 270.872C98.2106 270.872 98.888 271.053 99.4746 271.416C100.061 271.779 100.52 272.275 100.851 272.904C101.192 273.533 101.363 274.248 101.363 275.048C101.363 275.848 101.192 276.563 100.851 277.192C100.52 277.811 100.061 278.301 99.4746 278.664C98.888 279.016 98.2053 279.192 97.4266 279.192C96.808 279.192 96.2586 279.069 95.7786 278.824C95.3093 278.579 94.936 278.232 94.6586 277.784V282.52H92.9626ZM97.1386 277.72C97.864 277.72 98.4613 277.475 98.9306 276.984C99.4 276.483 99.6346 275.832 99.6346 275.032C99.6346 274.509 99.528 274.045 99.3146 273.64C99.1013 273.235 98.808 272.92 98.4346 272.696C98.0613 272.461 97.6293 272.344 97.1386 272.344C96.4133 272.344 95.816 272.595 95.3466 273.096C94.888 273.597 94.6586 274.243 94.6586 275.032C94.6586 275.832 94.888 276.483 95.3466 276.984C95.816 277.475 96.4133 277.72 97.1386 277.72ZM106.213 279C105.434 279 104.815 278.813 104.357 278.44C103.898 278.056 103.669 277.379 103.669 276.408V272.488H102.309V271.064H103.669L103.877 269.048H105.365V271.064H107.605V272.488H105.365V276.408C105.365 276.845 105.455 277.149 105.637 277.32C105.829 277.48 106.154 277.56 106.613 277.56H107.525V279H106.213Z" fill="white"/>
<rect x="156.5" y="235.5" width="170" height="77" rx="7.5" fill="white" fill-opacity="0.04"/>
<rect x="156.5" y="235.5" width="170" height="77" rx="7.5" stroke="#404040"/>
<g clip-path="url(#clip7_2568_14861)">
<path d="M205.757 255.03C205.675 255.037 205.416 255.063 205.182 255.082C199.79 255.568 194.74 258.477 191.542 262.948C189.761 265.434 188.622 268.254 188.191 271.241C188.039 272.284 188.021 272.592 188.021 274.006C188.021 275.419 188.039 275.727 188.191 276.77C189.223 283.898 194.295 289.887 201.174 292.106C202.406 292.503 203.705 292.774 205.182 292.937C205.757 293 208.243 293 208.818 292.937C211.367 292.655 213.527 292.024 215.657 290.937C215.983 290.77 216.046 290.725 216.002 290.688C215.972 290.666 214.581 288.8 212.911 286.544L209.876 282.443L206.072 276.814C203.98 273.72 202.258 271.189 202.243 271.189C202.228 271.186 202.213 273.686 202.206 276.74C202.195 282.087 202.191 282.302 202.124 282.429C202.028 282.61 201.954 282.685 201.798 282.766C201.679 282.826 201.575 282.837 201.015 282.837H200.373L200.202 282.729C200.091 282.659 200.009 282.566 199.954 282.458L199.876 282.291L199.883 274.852L199.894 267.408L200.009 267.263C200.069 267.186 200.195 267.085 200.284 267.037C200.436 266.963 200.495 266.955 201.137 266.955C201.894 266.955 202.021 266.985 202.217 267.2C202.273 267.26 204.332 270.362 206.796 274.098C209.26 277.835 212.629 282.937 214.284 285.442L217.29 289.994L217.442 289.894C218.789 289.019 220.213 287.772 221.341 286.473C223.742 283.716 225.29 280.354 225.809 276.77C225.961 275.727 225.98 275.419 225.98 274.006C225.98 272.592 225.961 272.284 225.809 271.241C224.777 264.113 219.705 258.124 212.826 255.905C211.612 255.512 210.321 255.241 208.874 255.078C208.518 255.041 206.065 255 205.757 255.03ZM213.527 266.51C213.705 266.599 213.85 266.77 213.902 266.948C213.931 267.045 213.939 269.108 213.931 273.757L213.92 280.429L212.744 278.625L211.564 276.822V271.972C211.564 268.837 211.579 267.074 211.601 266.989C211.661 266.781 211.79 266.618 211.969 266.521C212.121 266.443 212.176 266.436 212.759 266.436C213.308 266.436 213.405 266.443 213.527 266.51Z" fill="white"/>
<path d="M217.104 290.076C216.974 290.158 216.933 290.213 217.048 290.15C217.13 290.102 217.264 290.002 217.241 289.998C217.23 289.998 217.167 290.035 217.104 290.076ZM216.848 290.243C216.781 290.295 216.781 290.299 216.863 290.258C216.907 290.236 216.944 290.21 216.944 290.202C216.944 290.173 216.926 290.18 216.848 290.243ZM216.662 290.354C216.596 290.406 216.596 290.41 216.677 290.369C216.722 290.347 216.759 290.321 216.759 290.314C216.759 290.284 216.74 290.291 216.662 290.354ZM216.477 290.466C216.41 290.518 216.41 290.521 216.492 290.481C216.536 290.458 216.573 290.432 216.573 290.425C216.573 290.395 216.555 290.403 216.477 290.466ZM216.195 290.614C216.054 290.688 216.061 290.718 216.202 290.648C216.265 290.614 216.314 290.581 216.314 290.573C216.314 290.547 216.31 290.551 216.195 290.614Z" fill="white"/>
</g>
<path opacity="0.8" d="M243.136 279V267.8H244.832L250.448 276.232V267.8H252.144V279H250.448L244.832 270.568V279H243.136ZM258.065 279.192C257.287 279.192 256.593 279.021 255.985 278.68C255.388 278.328 254.919 277.843 254.577 277.224C254.236 276.605 254.065 275.885 254.065 275.064C254.065 274.232 254.231 273.501 254.561 272.872C254.903 272.243 255.372 271.752 255.969 271.4C256.577 271.048 257.281 270.872 258.081 270.872C258.86 270.872 259.537 271.048 260.113 271.4C260.689 271.741 261.137 272.2 261.457 272.776C261.777 273.352 261.937 273.987 261.937 274.68C261.937 274.787 261.932 274.904 261.921 275.032C261.921 275.149 261.916 275.283 261.905 275.432H255.729C255.783 276.2 256.033 276.787 256.481 277.192C256.94 277.587 257.468 277.784 258.065 277.784C258.545 277.784 258.945 277.677 259.265 277.464C259.596 277.24 259.841 276.941 260.001 276.568H261.697C261.484 277.315 261.057 277.939 260.417 278.44C259.788 278.941 259.004 279.192 258.065 279.192ZM258.065 272.264C257.5 272.264 256.999 272.435 256.561 272.776C256.124 273.107 255.857 273.608 255.761 274.28H260.241C260.209 273.661 259.991 273.171 259.585 272.808C259.18 272.445 258.673 272.264 258.065 272.264ZM262.46 279L265.276 275.032L262.46 271.064H264.268L266.396 274.104L268.508 271.064H270.332L267.516 275.032L270.332 279H268.508L266.396 275.96L264.268 279H262.46ZM275.041 279C274.262 279 273.643 278.813 273.185 278.44C272.726 278.056 272.497 277.379 272.497 276.408V272.488H271.137V271.064H272.497L272.705 269.048H274.193V271.064H276.433V272.488H274.193V276.408C274.193 276.845 274.283 277.149 274.465 277.32C274.657 277.48 274.982 277.56 275.441 277.56H276.353V279H275.041ZM280.949 279.192C279.904 279.192 279.072 278.899 278.453 278.312C277.845 277.725 277.541 276.899 277.541 275.832H279.237C279.237 276.365 279.365 276.808 279.621 277.16C279.888 277.512 280.32 277.688 280.917 277.688C281.504 277.688 281.92 277.523 282.165 277.192C282.411 276.851 282.533 276.419 282.533 275.896V267.8H284.229V275.896C284.229 276.952 283.936 277.768 283.349 278.344C282.763 278.909 281.963 279.192 280.949 279.192ZM290.191 279.192C289.37 279.192 288.65 279.048 288.031 278.76C287.413 278.472 286.927 278.061 286.575 277.528C286.234 276.995 286.058 276.36 286.047 275.624H287.839C287.85 276.221 288.058 276.728 288.463 277.144C288.869 277.56 289.439 277.768 290.175 277.768C290.826 277.768 291.333 277.613 291.695 277.304C292.069 276.984 292.255 276.579 292.255 276.088C292.255 275.693 292.165 275.373 291.983 275.128C291.813 274.883 291.573 274.68 291.263 274.52C290.965 274.36 290.618 274.216 290.223 274.088C289.829 273.96 289.413 273.821 288.975 273.672C288.111 273.384 287.461 273.011 287.023 272.552C286.597 272.093 286.383 271.491 286.383 270.744C286.373 270.115 286.517 269.565 286.815 269.096C287.125 268.627 287.551 268.264 288.095 268.008C288.65 267.741 289.295 267.608 290.031 267.608C290.757 267.608 291.391 267.741 291.935 268.008C292.49 268.275 292.922 268.648 293.231 269.128C293.541 269.597 293.701 270.147 293.711 270.776H291.919C291.919 270.488 291.845 270.216 291.695 269.96C291.546 269.693 291.327 269.475 291.039 269.304C290.751 269.133 290.399 269.048 289.983 269.048C289.45 269.037 289.007 269.171 288.655 269.448C288.314 269.725 288.143 270.109 288.143 270.6C288.143 271.037 288.271 271.373 288.527 271.608C288.783 271.843 289.135 272.04 289.583 272.2C290.031 272.349 290.543 272.525 291.119 272.728C291.674 272.909 292.17 273.128 292.607 273.384C293.045 273.64 293.391 273.976 293.647 274.392C293.914 274.808 294.047 275.336 294.047 275.976C294.047 276.541 293.903 277.069 293.615 277.56C293.327 278.04 292.895 278.435 292.319 278.744C291.743 279.043 291.034 279.192 290.191 279.192Z" fill="white"/>
<rect x="343.5" y="235.5" width="194" height="77" rx="7.5" fill="white" fill-opacity="0.04"/>
<rect x="343.5" y="235.5" width="194" height="77" rx="7.5" stroke="#404040"/>
<g clip-path="url(#clip8_2568_14861)">
<mask id="mask3_2568_14861" style="mask-type:luminance" maskUnits="userSpaceOnUse" x="375" y="255" width="38" height="38">
<path d="M413 255H375V293H413V255Z" fill="white"/>
</mask>
<g mask="url(#mask3_2568_14861)">
<path d="M401.914 269.247H392.416V266.083H401.914V269.247Z" fill="white"/>
<path d="M389.251 281.914H386.086V266.083H389.251V281.914Z" fill="white"/>
<path d="M401.914 275.581H392.416V272.416H401.914V275.581Z" fill="white"/>
<path fill-rule="evenodd" clip-rule="evenodd" d="M394 255C383.506 255 375 263.506 375 274C375 284.491 383.506 293 394 293C404.494 293 413 284.494 413 274C412.997 263.506 404.491 255 394 255ZM386.086 281.914H389.251V266.083H386.086V281.914ZM392.416 281.914H401.914V278.749H392.416V281.914ZM392.416 275.581H401.914V272.416H392.416V275.581ZM392.416 269.247H401.914V266.083H392.416V269.247Z" fill="#92003B"/>
<path d="M401.914 281.914H392.416V278.749H401.914V281.914Z" fill="white"/>
</g>
</g>
<path opacity="0.8" d="M430.136 279V267.8H437.256V269.176H431.832V272.664H436.776V274.008H431.832V277.624H437.256V279H430.136ZM439.213 279V267.48H440.909V279H439.213ZM446.768 279.192C445.99 279.192 445.296 279.021 444.688 278.68C444.091 278.328 443.622 277.843 443.28 277.224C442.939 276.605 442.768 275.885 442.768 275.064C442.768 274.232 442.934 273.501 443.264 272.872C443.606 272.243 444.075 271.752 444.672 271.4C445.28 271.048 445.984 270.872 446.784 270.872C447.563 270.872 448.24 271.048 448.816 271.4C449.392 271.741 449.84 272.2 450.16 272.776C450.48 273.352 450.64 273.987 450.64 274.68C450.64 274.787 450.635 274.904 450.624 275.032C450.624 275.149 450.619 275.283 450.608 275.432H444.432C444.486 276.2 444.736 276.787 445.184 277.192C445.643 277.587 446.171 277.784 446.768 277.784C447.248 277.784 447.648 277.677 447.968 277.464C448.299 277.24 448.544 276.941 448.704 276.568H450.4C450.187 277.315 449.76 277.939 449.12 278.44C448.491 278.941 447.707 279.192 446.768 279.192ZM446.768 272.264C446.203 272.264 445.702 272.435 445.264 272.776C444.827 273.107 444.56 273.608 444.464 274.28H448.944C448.912 273.661 448.694 273.171 448.288 272.808C447.883 272.445 447.376 272.264 446.768 272.264ZM452.4 279V271.064H453.904L454.048 272.184C454.304 271.779 454.64 271.459 455.056 271.224C455.483 270.989 455.973 270.872 456.528 270.872C457.787 270.872 458.661 271.368 459.152 272.36C459.44 271.901 459.824 271.539 460.304 271.272C460.795 271.005 461.323 270.872 461.888 270.872C462.88 270.872 463.659 271.171 464.224 271.768C464.789 272.365 465.072 273.256 465.072 274.44V279H463.376V274.616C463.376 273.08 462.789 272.312 461.616 272.312C461.019 272.312 460.528 272.536 460.144 272.984C459.771 273.432 459.584 274.072 459.584 274.904V279H457.888V274.616C457.888 273.08 457.296 272.312 456.112 272.312C455.525 272.312 455.04 272.536 454.656 272.984C454.283 273.432 454.096 274.072 454.096 274.904V279H452.4ZM470.768 279.192C469.99 279.192 469.296 279.021 468.688 278.68C468.091 278.328 467.622 277.843 467.28 277.224C466.939 276.605 466.768 275.885 466.768 275.064C466.768 274.232 466.934 273.501 467.264 272.872C467.606 272.243 468.075 271.752 468.672 271.4C469.28 271.048 469.984 270.872 470.784 270.872C471.563 270.872 472.24 271.048 472.816 271.4C473.392 271.741 473.84 272.2 474.16 272.776C474.48 273.352 474.64 273.987 474.64 274.68C474.64 274.787 474.635 274.904 474.624 275.032C474.624 275.149 474.619 275.283 474.608 275.432H468.432C468.486 276.2 468.736 276.787 469.184 277.192C469.643 277.587 470.171 277.784 470.768 277.784C471.248 277.784 471.648 277.677 471.968 277.464C472.299 277.24 472.544 276.941 472.704 276.568H474.4C474.187 277.315 473.76 277.939 473.12 278.44C472.491 278.941 471.707 279.192 470.768 279.192ZM470.768 272.264C470.203 272.264 469.702 272.435 469.264 272.776C468.827 273.107 468.56 273.608 468.464 274.28H472.944C472.912 273.661 472.694 273.171 472.288 272.808C471.883 272.445 471.376 272.264 470.768 272.264ZM476.4 279V271.064H477.904L478.032 272.456C478.277 271.965 478.635 271.581 479.104 271.304C479.584 271.016 480.133 270.872 480.752 270.872C481.712 270.872 482.464 271.171 483.008 271.768C483.563 272.365 483.84 273.256 483.84 274.44V279H482.16V274.616C482.16 273.08 481.531 272.312 480.272 272.312C479.643 272.312 479.12 272.536 478.704 272.984C478.299 273.432 478.096 274.072 478.096 274.904V279H476.4ZM489.166 279C488.387 279 487.768 278.813 487.31 278.44C486.851 278.056 486.622 277.379 486.622 276.408V272.488H485.262V271.064H486.622L486.83 269.048H488.318V271.064H490.558V272.488H488.318V276.408C488.318 276.845 488.408 277.149 488.59 277.32C488.782 277.48 489.107 277.56 489.566 277.56H490.478V279H489.166ZM495.815 279.192C495.058 279.192 494.375 279.021 493.767 278.68C493.17 278.328 492.695 277.843 492.343 277.224C491.991 276.595 491.815 275.864 491.815 275.032C491.815 274.2 491.991 273.475 492.343 272.856C492.706 272.227 493.191 271.741 493.799 271.4C494.407 271.048 495.085 270.872 495.831 270.872C496.589 270.872 497.266 271.048 497.863 271.4C498.471 271.741 498.951 272.227 499.303 272.856C499.666 273.475 499.847 274.2 499.847 275.032C499.847 275.864 499.666 276.595 499.303 277.224C498.951 277.843 498.471 278.328 497.863 278.68C497.255 279.021 496.573 279.192 495.815 279.192ZM495.815 277.736C496.221 277.736 496.594 277.635 496.935 277.432C497.287 277.229 497.57 276.931 497.783 276.536C497.997 276.131 498.103 275.629 498.103 275.032C498.103 274.435 497.997 273.939 497.783 273.544C497.581 273.139 497.303 272.835 496.951 272.632C496.61 272.429 496.237 272.328 495.831 272.328C495.426 272.328 495.047 272.429 494.695 272.632C494.354 272.835 494.077 273.139 493.863 273.544C493.65 273.939 493.543 274.435 493.543 275.032C493.543 275.629 493.65 276.131 493.863 276.536C494.077 276.931 494.354 277.229 494.695 277.432C495.037 277.635 495.41 277.736 495.815 277.736ZM501.681 279V271.064H503.201L503.345 272.568C503.623 272.045 504.007 271.635 504.497 271.336C504.999 271.027 505.601 270.872 506.305 270.872V272.648H505.841C505.372 272.648 504.951 272.728 504.577 272.888C504.215 273.037 503.921 273.299 503.697 273.672C503.484 274.035 503.377 274.541 503.377 275.192V279H501.681Z" fill="white"/>
<defs>
<radialGradient id="paint0_radial_2568_14861" cx="0" cy="0" r="1" gradientUnits="userSpaceOnUse" gradientTransform="translate(-5.35752 168.738) scale(42.5809 42.5809)">
<stop stop-color="#AEB2D5"/>
<stop offset="0.3" stop-color="#AEB2D5"/>
<stop offset="0.75" stop-color="#484C89"/>
<stop offset="1" stop-color="#484C89"/>
</radialGradient>
<linearGradient id="paint1_linear_2568_14861" x1="718.284" y1="500.168" x2="2596.73" y2="2359.87" gradientUnits="userSpaceOnUse">
<stop stop-color="#387EB8"/>
<stop offset="1" stop-color="#366994"/>
</linearGradient>
<linearGradient id="paint2_linear_2568_14861" x1="901.484" y1="750.289" x2="2918.71" y2="2657.24" gradientUnits="userSpaceOnUse">
<stop stop-color="#FFE052"/>
<stop offset="1" stop-color="#FFC331"/>
</linearGradient>
<clipPath id="clip0_2568_14861">
<rect x="158" y="47" width="161" height="78" rx="8" fill="white"/>
</clipPath>
<clipPath id="clip1_2568_14861">
<rect width="38" height="38" fill="white" transform="translate(190 67)"/>
</clipPath>
<clipPath id="clip2_2568_14861">
<rect x="-57" y="141" width="175" height="78" rx="8" fill="white"/>
</clipPath>
<clipPath id="clip3_2568_14861">
<rect width="65" height="38" fill="white" transform="translate(-25 161)"/>
</clipPath>
<clipPath id="clip4_2568_14861">
<rect width="38" height="38" fill="white" transform="translate(166 161)"/>
</clipPath>
<clipPath id="clip5_2568_14861">
<rect width="38" height="37.848" fill="white" transform="translate(354 161)"/>
</clipPath>
<clipPath id="clip6_2568_14861">
<rect width="38" height="38" fill="white" transform="translate(-25 255)"/>
</clipPath>
<clipPath id="clip7_2568_14861">
<rect width="38" height="38" fill="white" transform="translate(188 255)"/>
</clipPath>
<clipPath id="clip8_2568_14861">
<rect width="38" height="38" fill="white" transform="translate(375 255)"/>
</clipPath>
</defs>
</svg>
