<svg width="38" height="38" viewBox="0 0 38 38" fill="none" xmlns="http://www.w3.org/2000/svg">
<path d="M2.7002 18.9989C2.7002 25.4503 6.44943 31.0257 11.8861 33.6677L4.11131 12.3657C3.20696 14.3928 2.7002 16.636 2.7002 18.9989Z" fill="#151515"/>
<path d="M30.0029 18.1765C30.0029 16.1621 29.2793 14.7671 28.6588 13.6813C27.8326 12.3388 27.0582 11.2018 27.0582 9.85924C27.0582 8.36097 28.1945 6.96629 29.7951 6.96629C29.8674 6.96629 29.9359 6.97528 30.0063 6.97932C27.1065 4.32269 23.2432 2.70068 18.9999 2.70068C13.3058 2.70068 8.29618 5.62216 5.38184 10.0472C5.76423 10.0587 6.12461 10.0667 6.43071 10.0667C8.13553 10.0667 10.7745 9.85986 10.7745 9.85986C11.6531 9.80806 11.7567 11.0985 10.879 11.2024C10.879 11.2024 9.99604 11.3063 9.01353 11.3578L14.9489 29.0123L18.5158 18.3148L15.9764 11.3572C15.0987 11.3057 14.2672 11.2018 14.2672 11.2018C13.3889 11.1503 13.4919 9.80744 14.3702 9.85924C14.3702 9.85924 17.0619 10.0661 18.6634 10.0661C20.3679 10.0661 23.0072 9.85924 23.0072 9.85924C23.8864 9.80744 23.9897 11.0979 23.1117 11.2018C23.1117 11.2018 22.2269 11.3057 21.2462 11.3572L27.1363 28.878L28.762 23.4454C29.4667 21.191 30.0029 19.5718 30.0029 18.1765Z" fill="#151515"/>
<path d="M19.2857 20.4246L14.3955 34.6347C15.8556 35.0639 17.3998 35.2987 18.9998 35.2987C20.8978 35.2987 22.718 34.9705 24.4123 34.3748C24.3685 34.305 24.3288 34.2309 24.2963 34.1502L19.2857 20.4246Z" fill="#151515"/>
<path d="M33.3015 11.1792C33.3716 11.6984 33.4113 12.2557 33.4113 12.8552C33.4113 14.5091 33.1024 16.3684 32.172 18.6932L27.1934 33.0875C32.0389 30.2618 35.2981 25.0122 35.2981 18.9993C35.2984 16.1656 34.5746 13.5009 33.3015 11.1792Z" fill="#151515"/>
<path d="M18.9995 0C8.52346 0 0 8.52284 0 18.9989C0 29.4762 8.52346 37.9988 18.9995 37.9988C29.4753 37.9988 38 29.4762 38 18.9989C37.9997 8.52284 29.4753 0 18.9995 0ZM18.9995 37.1279C9.00386 37.1279 0.871171 28.9952 0.871171 18.9989C0.871171 9.00324 9.00355 0.871171 18.9995 0.871171C28.9949 0.871171 37.127 9.00324 37.127 18.9989C37.127 28.9952 28.9949 37.1279 18.9995 37.1279Z" fill="#151515"/>
</svg>
