<svg width="65" height="38" viewBox="0 0 65 38" fill="none" xmlns="http://www.w3.org/2000/svg">
<g clip-path="url(#clip0_435_19948)">
<mask id="mask0_435_19948" style="mask-type:luminance" maskUnits="userSpaceOnUse" x="0" y="1" width="66" height="35">
<path d="M0.173828 18.7988C0.173828 28.2194 14.6921 35.8565 32.6005 35.8565C50.5089 35.8565 65.0273 28.2194 65.0273 18.7988C65.0273 9.37837 50.5089 1.74119 32.6005 1.74119C14.6921 1.74119 0.173828 9.37837 0.173828 18.7988Z" fill="white"/>
</mask>
<g mask="url(#mask0_435_19948)">
<path d="M0.173828 18.7988C0.173828 28.2194 14.6921 35.8565 32.6005 35.8565C50.5089 35.8565 65.0273 28.2194 65.0273 18.7988C65.0273 9.37837 50.5089 1.74119 32.6005 1.74119C14.6921 1.74119 0.173828 9.37837 0.173828 18.7988Z" fill="url(#paint0_radial_435_19948)"/>
</g>
<mask id="mask1_435_19948" style="mask-type:luminance" maskUnits="userSpaceOnUse" x="-2" y="-1" width="69" height="39">
<path d="M-1.17773 -0.201172H66.3778V37.7988H-1.17773V-0.201172Z" fill="white"/>
</mask>
<g mask="url(#mask1_435_19948)">
<path d="M32.6004 34.59C49.8094 34.59 63.7604 27.52 63.7604 18.7988C63.7604 10.0777 49.8094 3.00757 32.6004 3.00757C15.3915 3.00757 1.44043 10.0777 1.44043 18.7988C1.44043 27.52 15.3915 34.59 32.6004 34.59Z" fill="#777BB3"/>
</g>
<g clip-path="url(#clip1_435_19948)">
<mask id="mask2_435_19948" style="mask-type:luminance" maskUnits="userSpaceOnUse" x="0" y="1" width="66" height="35">
<path d="M0.173828 18.7988C0.173828 28.2194 14.6921 35.8565 32.6005 35.8565C50.5089 35.8565 65.0273 28.2194 65.0273 18.7988C65.0273 9.37837 50.5089 1.74119 32.6005 1.74119C14.6921 1.74119 0.173828 9.37837 0.173828 18.7988Z" fill="white"/>
</mask>
<g mask="url(#mask2_435_19948)">
<path d="M0.173828 18.7988C0.173828 28.2194 14.6921 35.8565 32.6005 35.8565C50.5089 35.8565 65.0273 28.2194 65.0273 18.7988C65.0273 9.37837 50.5089 1.74119 32.6005 1.74119C14.6921 1.74119 0.173828 9.37837 0.173828 18.7988Z" fill="url(#paint1_radial_435_19948)"/>
</g>
<mask id="mask3_435_19948" style="mask-type:luminance" maskUnits="userSpaceOnUse" x="-2" y="-1" width="69" height="39">
<path d="M-1.17773 -0.201172H66.3778V37.7988H-1.17773V-0.201172Z" fill="white"/>
</mask>
<g mask="url(#mask3_435_19948)">
<path d="M32.6004 34.59C49.8094 34.59 63.7604 27.52 63.7604 18.7988C63.7604 10.0777 49.8094 3.00757 32.6004 3.00757C15.3915 3.00757 1.44043 10.0777 1.44043 18.7988C1.44043 27.52 15.3915 34.59 32.6004 34.59Z" fill="#777BB3"/>
</g>
<mask id="mask4_435_19948" style="mask-type:luminance" maskUnits="userSpaceOnUse" x="-2" y="-1" width="69" height="39">
<path d="M-1.17773 -0.201172H66.3778V37.7988H-1.17773V-0.201172Z" fill="white"/>
</mask>
<g mask="url(#mask4_435_19948)">
<path d="M17.791 20.7563C19.206 20.7563 20.2624 20.4953 20.9308 19.9809C21.5921 19.4718 22.0488 18.5897 22.2881 17.3593C22.5113 16.2092 22.4263 15.4061 22.0355 14.9728C21.6359 14.5301 20.772 14.3057 19.4678 14.3057H17.2065L15.9528 20.7563H17.791ZM10.3947 28.7023C10.2898 28.7023 10.1901 28.6554 10.1233 28.5742C10.0565 28.4932 10.0294 28.3864 10.0494 28.2833L13.3719 11.1891C13.404 11.0238 13.5488 10.9044 13.7173 10.9044H20.8779C23.1284 10.9044 24.8034 11.5155 25.8563 12.7208C26.9148 13.9325 27.2416 15.6262 26.8277 17.7548C26.6593 18.622 26.3696 19.4273 25.9667 20.1484C25.5634 20.8703 25.0304 21.5382 24.3821 22.134C23.6062 22.8602 22.728 23.3868 21.7742 23.6967C20.8356 24.0025 19.6301 24.1575 18.1914 24.1575H15.2919L14.4639 28.4175C14.4318 28.5829 14.287 28.7023 14.1186 28.7023H10.3947Z" fill="black"/>
<path d="M17.4968 14.6579H19.4681C21.0422 14.6579 21.589 15.0033 21.7747 15.2091C22.083 15.5509 22.1411 16.2715 21.943 17.2929C21.7204 18.4364 21.3078 19.2472 20.7165 19.7025C20.1111 20.1686 19.1268 20.4048 17.7913 20.4048H16.3799L17.4968 14.6579ZM20.8782 10.553H13.7175C13.3806 10.553 13.091 10.7918 13.0268 11.1224L9.70435 28.2166C9.66424 28.4229 9.71842 28.6363 9.85201 28.7985C9.98571 28.9607 10.1849 29.0545 10.395 29.0545H14.1188C14.4558 29.0545 14.7453 28.8157 14.8096 28.4851L15.5823 24.5098H18.1917C19.6674 24.5098 20.9097 24.3488 21.8837 24.0316C22.8854 23.7061 23.807 23.1543 24.6228 22.3915C25.2974 21.7708 25.8531 21.0742 26.2741 20.3206C26.6953 19.5668 26.9979 18.7262 27.1734 17.8222C27.6092 15.5816 27.2552 13.7874 26.1215 12.4898C24.9989 11.2046 23.2347 10.553 20.8782 10.553ZM15.5262 21.1085H17.7913C19.2927 21.1085 20.411 20.8257 21.1458 20.2601C21.8807 19.6943 22.3763 18.7501 22.6339 17.4269C22.8803 16.1564 22.768 15.2599 22.2971 14.7377C21.8256 14.2154 20.8828 13.9542 19.4681 13.9542H16.9167L15.5262 21.1085ZM20.8782 11.2567C23.0324 11.2567 24.6039 11.822 25.5916 12.9527C26.5793 14.0834 26.8767 15.6617 26.4826 17.688C26.3204 18.5228 26.0461 19.2859 25.6599 19.9773C25.2732 20.6692 24.7683 21.3018 24.1444 21.8754C23.4008 22.5713 22.5747 23.0672 21.6658 23.3625C20.7568 23.6586 19.5991 23.806 18.1917 23.806H15.0021L14.1188 28.3508H10.395L13.7175 11.2567H20.8782Z" fill="white"/>
<path d="M35.3662 24.1577C35.2611 24.1577 35.1615 24.1108 35.0948 24.0296C35.0278 23.9486 35.0008 23.842 35.0208 23.7388L36.4905 16.1753C36.6303 15.4559 36.5958 14.9397 36.3935 14.7215C36.2696 14.5882 35.8976 14.3645 34.7976 14.3645H32.135L30.2872 23.8729C30.2551 24.0383 30.1102 24.1577 29.9418 24.1577H26.2474C26.1423 24.1577 26.0427 24.1108 25.9759 24.0296C25.909 23.9486 25.8819 23.8419 25.902 23.7388L29.2244 6.64452C29.2565 6.47927 29.4014 6.35987 29.5698 6.35987H33.2642C33.3693 6.35987 33.4689 6.40679 33.5358 6.48783C33.6026 6.56899 33.6297 6.6756 33.6096 6.77881L32.8079 10.9046H35.6722C37.8543 10.9046 39.3339 11.2893 40.1957 12.0808C41.0742 12.8881 41.3483 14.1791 41.0105 15.9182L39.4647 23.8729C39.4326 24.0383 39.2878 24.1577 39.1193 24.1577H35.3662Z" fill="black"/>
<path d="M33.2646 6.00822H29.5701C29.2332 6.00822 28.9436 6.24701 28.8793 6.57764L25.5569 23.6719C25.5168 23.8782 25.571 24.0915 25.7047 24.2537C25.8384 24.4159 26.0375 24.5098 26.2477 24.5098H29.9421C30.279 24.5098 30.5687 24.271 30.6329 23.9404L32.4254 14.7166H34.7979C35.8961 14.7166 36.1265 14.9511 36.1358 14.9612C36.2024 15.0329 36.29 15.3648 36.1454 16.1084L34.6757 23.6719C34.6356 23.8782 34.6898 24.0915 34.8235 24.2537C34.9572 24.4159 35.1563 24.5098 35.3665 24.5098H39.1196C39.4564 24.5098 39.7461 24.271 39.8104 23.9404L41.3561 15.9856C41.7189 14.1183 41.4085 12.7176 40.4341 11.822C39.5043 10.968 37.9468 10.553 35.6725 10.553H33.2349L33.9554 6.84622C33.9954 6.63992 33.9413 6.42646 33.8076 6.26437C33.6739 6.10217 33.4747 6.00822 33.2646 6.00822ZM33.2646 6.71193L32.3813 11.2567H35.6725C37.7434 11.2567 39.1718 11.6181 39.9579 12.3401C40.7441 13.0626 40.9796 14.2332 40.6654 15.8514L39.1196 23.8061H35.3665L36.8362 16.2427C37.0034 15.3823 36.942 14.7954 36.6516 14.4825C36.3611 14.1695 35.7431 14.0129 34.7979 14.0129H31.8452L29.9421 23.8061H26.2477L29.5701 6.71193H33.2646Z" fill="white"/>
<path d="M46.8554 20.7563C48.2705 20.7563 49.3268 20.4953 49.9952 19.9809C50.6565 19.4719 51.1132 18.5898 51.3527 17.3593C51.5759 16.2092 51.4909 15.4061 51.0999 14.9728C50.7004 14.5301 49.8364 14.3057 48.5323 14.3057H46.2709L45.0172 20.7563H46.8554ZM39.4593 28.7023C39.3543 28.7023 39.2546 28.6554 39.1879 28.5742C39.121 28.4932 39.0938 28.3864 39.1139 28.2833L42.4363 11.1891C42.4686 11.0238 42.6133 10.9044 42.7818 10.9044H49.9424C52.1929 10.9044 53.8678 11.5155 54.9208 12.7208C55.9793 13.9324 56.3061 15.626 55.8923 17.7548C55.7236 18.622 55.4341 19.4273 55.0312 20.1484C54.6278 20.8703 54.0948 21.5382 53.4466 22.134C52.6706 22.8602 51.7924 23.3868 50.8386 23.6967C49.9 24.0025 48.6946 24.1575 47.2558 24.1575H44.3562L43.5286 28.4175C43.4963 28.5829 43.3516 28.7023 43.183 28.7023H39.4593Z" fill="black"/>
<path d="M46.5611 14.6579H48.5325C50.1065 14.6579 50.6533 15.0033 50.8391 15.2091C51.1474 15.5509 51.2056 16.2715 51.0074 17.2928C50.7848 18.4364 50.3721 19.2472 49.7808 19.7025C49.1754 20.1686 48.1912 20.4048 46.8556 20.4048H45.4444L46.5611 14.6579ZM49.9426 10.553H42.7819C42.4451 10.553 42.1555 10.7918 42.0912 11.1224L38.7688 28.2166C38.7287 28.4229 38.7829 28.6363 38.9165 28.7985C39.0502 28.9607 39.2493 29.0545 39.4595 29.0545H43.1833C43.5201 29.0545 43.8098 28.8157 43.8741 28.4851L44.6466 24.5098H47.2561C48.7317 24.5098 49.974 24.3488 50.948 24.0316C51.9498 23.7061 52.8716 23.1542 53.6873 22.3913C54.3619 21.7707 54.9174 21.0742 55.3384 20.3206C55.7596 19.5668 56.0622 18.7262 56.2378 17.8222C56.6735 15.5815 56.3195 13.7873 55.1859 12.4897C54.0632 11.2046 52.2991 10.553 49.9426 10.553ZM44.5907 21.1085H46.8556C48.357 21.1085 49.4753 20.8257 50.2101 20.2601C50.9451 19.6943 51.4406 18.7501 51.6982 17.4269C51.9447 16.1564 51.8325 15.2599 51.3615 14.7377C50.89 14.2154 49.9471 13.9542 48.5325 13.9542H45.9811L44.5907 21.1085ZM49.9426 11.2567C52.0967 11.2567 53.6682 11.822 54.656 12.9527C55.6437 14.0834 55.941 15.6617 55.547 17.688C55.3848 18.5228 55.1104 19.2859 54.7242 19.9773C54.3375 20.6692 53.8326 21.3018 53.2087 21.8754C52.4651 22.5713 51.6391 23.0672 50.7301 23.3625C49.8212 23.6586 48.6635 23.806 47.2561 23.806H44.0664L43.1833 28.3508H39.4595L42.7819 11.2567H49.9426Z" fill="white"/>
</g>
</g>
</g>
<defs>
<radialGradient id="paint0_radial_435_19948" cx="0" cy="0" r="1" gradientUnits="userSpaceOnUse" gradientTransform="translate(19.643 7.73813) scale(42.5809 42.5809)">
<stop stop-color="#AEB2D5"/>
<stop offset="0.3" stop-color="#AEB2D5"/>
<stop offset="0.75" stop-color="#484C89"/>
<stop offset="1" stop-color="#484C89"/>
</radialGradient>
<radialGradient id="paint1_radial_435_19948" cx="0" cy="0" r="1" gradientUnits="userSpaceOnUse" gradientTransform="translate(19.643 7.73813) scale(42.5809 42.5809)">
<stop stop-color="#AEB2D5"/>
<stop offset="0.3" stop-color="#AEB2D5"/>
<stop offset="0.75" stop-color="#484C89"/>
<stop offset="1" stop-color="#484C89"/>
</radialGradient>
<clipPath id="clip0_435_19948">
<rect width="65" height="38" fill="white"/>
</clipPath>
<clipPath id="clip1_435_19948">
<rect width="65" height="38" fill="white"/>
</clipPath>
</defs>
</svg>
