<svg width="40" height="40" viewBox="0 0 40 40" fill="none" xmlns="http://www.w3.org/2000/svg">
<mask id="mask0_435_21908" style="mask-type:alpha" maskUnits="userSpaceOnUse" x="0" y="0" width="40" height="40">
<rect width="40" height="40" fill="#D9D9D9"/>
</mask>
<g mask="url(#mask0_435_21908)">
<path d="M5 35V26.6667H11.6667L18.3333 20V14.6667C17.3333 14.3056 16.5278 13.7014 15.9167 12.8542C15.3056 12.0069 15 11.0556 15 10C15 8.61111 15.4861 7.43056 16.4583 6.45833C17.4306 5.48611 18.6111 5 20 5C21.3889 5 22.5694 5.48611 23.5417 6.45833C24.5139 7.43056 25 8.61111 25 10C25 11.0556 24.6944 12.0069 24.0833 12.8542C23.4722 13.7014 22.6667 14.3056 21.6667 14.6667V20L28.3333 26.6667H35V35H26.6667V29.9167L20 23.25L13.3333 29.9167V35H5Z" fill="white"/>
</g>
</svg>
