<svg width="40" height="40" viewBox="0 0 40 40" fill="none" xmlns="http://www.w3.org/2000/svg">
<mask id="mask0_346_16058" style="mask-type:alpha" maskUnits="userSpaceOnUse" x="0" y="0" width="40" height="40">
<rect width="40" height="40" fill="#D9D9D9"/>
</mask>
<g mask="url(#mask0_346_16058)">
<path d="M30 18.3337C27.6944 18.3337 25.7292 17.5212 24.1042 15.8962C22.4792 14.2712 21.6667 12.3059 21.6667 10.0003C21.6667 7.69477 22.4792 5.72949 24.1042 4.10449C25.7292 2.47949 27.6944 1.66699 30 1.66699C32.3056 1.66699 34.2708 2.47949 35.8958 4.10449C37.5208 5.72949 38.3333 7.69477 38.3333 10.0003C38.3333 12.3059 37.5208 14.2712 35.8958 15.8962C34.2708 17.5212 32.3056 18.3337 30 18.3337ZM6 34.0003C5.69444 33.6948 5.45139 33.3475 5.27083 32.9587C5.09028 32.5698 5 32.1392 5 31.667V8.33366C5 7.41699 5.32639 6.63227 5.97917 5.97949C6.63194 5.32671 7.41667 5.00033 8.33333 5.00033H19.5C19.1111 5.75033 18.8194 6.54894 18.625 7.39616C18.4306 8.24338 18.3333 9.11144 18.3333 10.0003C18.3333 11.6392 18.6389 13.16 19.25 14.5628C19.8611 15.9656 20.6944 17.1948 21.75 18.2503L6 34.0003ZM20 35.0003V26.0003C20 24.8337 20.3542 23.785 21.0625 22.8545C21.7708 21.9239 22.6944 21.3337 23.8333 21.0837C24.8056 20.8614 25.8056 20.6948 26.8333 20.5837C27.8611 20.4725 28.9167 20.417 30 20.417C30.8889 20.417 31.7431 20.4517 32.5625 20.5212C33.3819 20.5906 34.1944 20.6948 35 20.8337V31.667C35 32.5837 34.6736 33.3684 34.0208 34.0212C33.3681 34.6739 32.5833 35.0003 31.6667 35.0003H20Z" fill="#3C7BF6"/>
</g>
</svg>
