<svg width="40" height="40" viewBox="0 0 40 40" fill="none" xmlns="http://www.w3.org/2000/svg">
<mask id="mask0_346_17661" style="mask-type:alpha" maskUnits="userSpaceOnUse" x="0" y="0" width="40" height="40">
<rect width="40" height="40" fill="#D9D9D9"/>
</mask>
<g mask="url(#mask0_346_17661)">
<path d="M10 33.3332C8.61111 33.3332 7.43056 32.8471 6.45833 31.8748C5.48611 30.9026 5 29.7221 5 28.3332C5 26.9443 5.48611 25.7637 6.45833 24.7915C7.43056 23.8193 8.61111 23.3332 10 23.3332C11.3889 23.3332 12.5694 23.8193 13.5417 24.7915C14.5139 25.7637 15 26.9443 15 28.3332C15 29.7221 14.5139 30.9026 13.5417 31.8748C12.5694 32.8471 11.3889 33.3332 10 33.3332ZM30 33.3332C28.6111 33.3332 27.4306 32.8471 26.4583 31.8748C25.4861 30.9026 25 29.7221 25 28.3332C25 26.9443 25.4861 25.7637 26.4583 24.7915C27.4306 23.8193 28.6111 23.3332 30 23.3332C31.3889 23.3332 32.5694 23.8193 33.5417 24.7915C34.5139 25.7637 35 26.9443 35 28.3332C35 29.7221 34.5139 30.9026 33.5417 31.8748C32.5694 32.8471 31.3889 33.3332 30 33.3332ZM20 16.6665C18.6111 16.6665 17.4306 16.1804 16.4583 15.2082C15.4861 14.2359 15 13.0554 15 11.6665C15 10.2776 15.4861 9.09706 16.4583 8.12484C17.4306 7.15261 18.6111 6.6665 20 6.6665C21.3889 6.6665 22.5694 7.15261 23.5417 8.12484C24.5139 9.09706 25 10.2776 25 11.6665C25 13.0554 24.5139 14.2359 23.5417 15.2082C22.5694 16.1804 21.3889 16.6665 20 16.6665Z" fill="#3C7BF6"/>
</g>
</svg>
