<svg width="40" height="40" viewBox="0 0 40 40" fill="none" xmlns="http://www.w3.org/2000/svg">
<mask id="mask0_346_17825" style="mask-type:alpha" maskUnits="userSpaceOnUse" x="0" y="0" width="40" height="40">
<rect width="40" height="40" fill="#3C7BF6"/>
</mask>
<g mask="url(#mask0_346_17825)">
<path d="M14.5833 37.375C13.3056 37.375 12.1597 37.0417 11.1458 36.375C10.1319 35.7084 9.34722 34.7917 8.79167 33.625C8.34722 34.2084 7.78472 34.6598 7.10417 34.9792C6.42361 35.2987 5.72222 35.4584 5 35.4584C3.58333 35.4584 2.39583 34.9723 1.4375 34C0.479167 33.0278 0 31.8473 0 30.4584C0 29.2639 0.388889 28.1875 1.16667 27.2292C1.94444 26.2709 2.93056 25.7223 4.125 25.5834C3.73611 25.0278 3.4375 24.4375 3.22917 23.8125C3.02083 23.1875 2.91667 22.5278 2.91667 21.8334C2.91667 20.7223 3.20139 19.6806 3.77083 18.7084C4.34028 17.7362 5.13889 16.9445 6.16667 16.3334C6.30556 16.8334 6.49306 17.3681 6.72917 17.9375C6.96528 18.507 7.23611 19 7.54167 19.4167C7.15278 19.7223 6.84722 20.0903 6.625 20.5209C6.40278 20.9514 6.29167 21.4028 6.29167 21.875C6.29167 23.4306 6.93056 24.3889 8.20833 24.75C9.48611 25.1112 10.6944 25.4028 11.8333 25.625L12.625 26.9584C12.3194 27.8473 12.0556 28.6042 11.8333 29.2292C11.6111 29.8542 11.5 30.4167 11.5 30.9167C11.5 31.75 11.7986 32.4792 12.3958 33.1042C12.9931 33.7292 13.7222 34.0417 14.5833 34.0417C15.6389 34.0417 16.5139 33.5695 17.2083 32.625C17.9028 31.6806 18.4722 30.5695 18.9167 29.2917C19.3611 28.0139 19.7014 26.7223 19.9375 25.4167C20.1736 24.1112 20.3611 23.1112 20.5 22.4167L23.75 23.2917C23.5 24.5417 23.1944 25.9723 22.8333 27.5834C22.4722 29.1945 21.9653 30.7292 21.3125 32.1875C20.6597 33.6459 19.7986 34.875 18.7292 35.875C17.6597 36.875 16.2778 37.375 14.5833 37.375ZM5 32.125C5.47222 32.125 5.86806 31.9653 6.1875 31.6459C6.50694 31.3264 6.66667 30.9306 6.66667 30.4584C6.66667 29.9862 6.50694 29.5903 6.1875 29.2709C5.86806 28.9514 5.47222 28.7917 5 28.7917C4.52778 28.7917 4.13194 28.9514 3.8125 29.2709C3.49306 29.5903 3.33333 29.9862 3.33333 30.4584C3.33333 30.9306 3.49306 31.3264 3.8125 31.6459C4.13194 31.9653 4.52778 32.125 5 32.125ZM16.8333 25.5417C15.5556 24.4028 14.3958 23.3403 13.3542 22.3542C12.3125 21.3681 11.4167 20.4098 10.6667 19.4792C9.91667 18.5487 9.34028 17.6181 8.9375 16.6875C8.53472 15.757 8.33333 14.7917 8.33333 13.7917C8.33333 11.9862 8.95139 10.4653 10.1875 9.22921C11.4236 7.9931 12.9444 7.37504 14.75 7.37504C14.8611 7.37504 14.9583 7.38199 15.0417 7.39587C15.125 7.40976 15.2222 7.41671 15.3333 7.41671C15.2222 7.13893 15.1389 6.86115 15.0833 6.58337C15.0278 6.3056 15 6.01393 15 5.70837C15 4.31949 15.4861 3.13893 16.4583 2.16671C17.4306 1.19449 18.6111 0.708374 20 0.708374C21.3889 0.708374 22.5694 1.19449 23.5417 2.16671C24.5139 3.13893 25 4.31949 25 5.70837C25 6.01393 24.9722 6.29865 24.9167 6.56254C24.8611 6.82643 24.7778 7.09726 24.6667 7.37504H25.25C26.9167 7.37504 28.3333 7.90976 29.5 8.97921C30.6667 10.0487 31.3611 11.375 31.5833 12.9584C31.0833 12.875 30.5208 12.8334 29.8958 12.8334C29.2708 12.8334 28.6944 12.8612 28.1667 12.9167C27.9722 12.2778 27.6181 11.75 27.1042 11.3334C26.5903 10.9167 25.9722 10.7084 25.25 10.7084C24.2778 10.7084 23.5208 10.9931 22.9792 11.5625C22.4375 12.132 21.6944 12.9584 20.75 14.0417H19.2083C18.2361 12.9028 17.4792 12.0625 16.9375 11.5209C16.3958 10.9792 15.6667 10.7084 14.75 10.7084C13.8611 10.7084 13.125 11 12.5417 11.5834C11.9583 12.1667 11.6667 12.9028 11.6667 13.7917C11.6667 14.4306 11.8472 15.0903 12.2083 15.7709C12.5694 16.4514 13.0764 17.1737 13.7292 17.9375C14.3819 18.7014 15.1736 19.5139 16.1042 20.375C17.0347 21.2362 18.0694 22.1667 19.2083 23.1667L16.8333 25.5417ZM20 7.37504C20.4722 7.37504 20.8681 7.21532 21.1875 6.89587C21.5069 6.57643 21.6667 6.1806 21.6667 5.70837C21.6667 5.23615 21.5069 4.84032 21.1875 4.52087C20.8681 4.20143 20.4722 4.04171 20 4.04171C19.5278 4.04171 19.1319 4.20143 18.8125 4.52087C18.4931 4.84032 18.3333 5.23615 18.3333 5.70837C18.3333 6.1806 18.4931 6.57643 18.8125 6.89587C19.1319 7.21532 19.5278 7.37504 20 7.37504ZM25.375 37.375C24.7639 37.375 24.1597 37.2917 23.5625 37.125C22.9653 36.9584 22.3889 36.6945 21.8333 36.3334C22.1389 35.9445 22.4444 35.4862 22.75 34.9584C23.0556 34.4306 23.3333 33.9445 23.5833 33.5C23.8889 33.6945 24.1944 33.8334 24.5 33.9167C24.8056 34 25.1111 34.0417 25.4167 34.0417C26.3056 34.0417 27.0486 33.7292 27.6458 33.1042C28.2431 32.4792 28.5417 31.7362 28.5417 30.875C28.5417 30.3473 28.4306 29.7778 28.2083 29.1667C27.9861 28.5556 27.7222 27.8056 27.4167 26.9167L28.2083 25.5834C29.375 25.3612 30.5903 25.0695 31.8542 24.7084C33.1181 24.3473 33.75 23.3889 33.75 21.8334C33.75 20.7223 33.3403 19.9167 32.5208 19.4167C31.7014 18.9167 30.8056 18.6667 29.8333 18.6667C28.6667 18.6667 27.3056 18.8889 25.75 19.3334C24.1944 19.7778 22.375 20.3473 20.2917 21.0417L19.4167 17.7917C21.5833 17.0973 23.5139 16.5139 25.2083 16.0417C26.9028 15.5695 28.4583 15.3334 29.875 15.3334C31.7917 15.3334 33.4722 15.9028 34.9167 17.0417C36.3611 18.1806 37.0833 19.7778 37.0833 21.8334C37.0833 22.5278 36.9792 23.1875 36.7708 23.8125C36.5625 24.4375 36.2639 25.0278 35.875 25.5834C37.0694 25.7223 38.0556 26.2709 38.8333 27.2292C39.6111 28.1875 40 29.2639 40 30.4584C40 31.8473 39.5208 33.0278 38.5625 34C37.6042 34.9723 36.4167 35.4584 35 35.4584C34.2778 35.4584 33.5764 35.2987 32.8958 34.9792C32.2153 34.6598 31.6528 34.2084 31.2083 33.625C30.6528 34.7917 29.8681 35.7084 28.8542 36.375C27.8403 37.0417 26.6806 37.375 25.375 37.375ZM35.0417 32.125C35.5139 32.125 35.9028 31.9653 36.2083 31.6459C36.5139 31.3264 36.6667 30.9306 36.6667 30.4584C36.6667 29.9862 36.5069 29.5834 36.1875 29.25C35.8681 28.9167 35.4722 28.75 35 28.75C34.5278 28.75 34.1319 28.9098 33.8125 29.2292C33.4931 29.5487 33.3333 29.9445 33.3333 30.4167C33.3333 30.8889 33.5 31.2917 33.8333 31.625C34.1667 31.9584 34.5694 32.125 35.0417 32.125Z" fill="#3C7BF6"/>
</g>
</svg>
