<svg width="40" height="40" viewBox="0 0 40 40" fill="none" xmlns="http://www.w3.org/2000/svg">
<mask id="mask0_346_20092" style="mask-type:alpha" maskUnits="userSpaceOnUse" x="0" y="0" width="40" height="40">
<rect width="40" height="40" fill="#D9D9D9"/>
</mask>
<g mask="url(#mask0_346_20092)">
<path d="M4.99935 24.1666C4.77713 24.1666 4.58268 24.0833 4.41602 23.9166C4.24935 23.75 4.16602 23.5555 4.16602 23.3333C4.16602 23.1111 4.24935 22.9166 4.41602 22.75C4.58268 22.5833 4.77713 22.5 4.99935 22.5C5.22157 22.5 5.41602 22.5833 5.58268 22.75C5.74935 22.9166 5.83268 23.1111 5.83268 23.3333C5.83268 23.5555 5.74935 23.75 5.58268 23.9166C5.41602 24.0833 5.22157 24.1666 4.99935 24.1666ZM4.99935 17.5C4.77713 17.5 4.58268 17.4166 4.41602 17.25C4.24935 17.0833 4.16602 16.8888 4.16602 16.6666C4.16602 16.4444 4.24935 16.25 4.41602 16.0833C4.58268 15.9166 4.77713 15.8333 4.99935 15.8333C5.22157 15.8333 5.41602 15.9166 5.58268 16.0833C5.74935 16.25 5.83268 16.4444 5.83268 16.6666C5.83268 16.8888 5.74935 17.0833 5.58268 17.25C5.41602 17.4166 5.22157 17.5 4.99935 17.5ZM9.99935 31.6666C9.52713 31.6666 9.13129 31.5069 8.81185 31.1875C8.4924 30.868 8.33268 30.4722 8.33268 30C8.33268 29.5277 8.4924 29.1319 8.81185 28.8125C9.13129 28.493 9.52713 28.3333 9.99935 28.3333C10.4716 28.3333 10.8674 28.493 11.1868 28.8125C11.5063 29.1319 11.666 29.5277 11.666 30C11.666 30.4722 11.5063 30.868 11.1868 31.1875C10.8674 31.5069 10.4716 31.6666 9.99935 31.6666ZM9.99935 25C9.52713 25 9.13129 24.8402 8.81185 24.5208C8.4924 24.2013 8.33268 23.8055 8.33268 23.3333C8.33268 22.8611 8.4924 22.4652 8.81185 22.1458C9.13129 21.8263 9.52713 21.6666 9.99935 21.6666C10.4716 21.6666 10.8674 21.8263 11.1868 22.1458C11.5063 22.4652 11.666 22.8611 11.666 23.3333C11.666 23.8055 11.5063 24.2013 11.1868 24.5208C10.8674 24.8402 10.4716 25 9.99935 25ZM9.99935 18.3333C9.52713 18.3333 9.13129 18.1736 8.81185 17.8541C8.4924 17.5347 8.33268 17.1388 8.33268 16.6666C8.33268 16.1944 8.4924 15.7986 8.81185 15.4791C9.13129 15.1597 9.52713 15 9.99935 15C10.4716 15 10.8674 15.1597 11.1868 15.4791C11.5063 15.7986 11.666 16.1944 11.666 16.6666C11.666 17.1388 11.5063 17.5347 11.1868 17.8541C10.8674 18.1736 10.4716 18.3333 9.99935 18.3333ZM9.99935 11.6666C9.52713 11.6666 9.13129 11.5069 8.81185 11.1875C8.4924 10.868 8.33268 10.4722 8.33268 9.99996C8.33268 9.52774 8.4924 9.1319 8.81185 8.81246C9.13129 8.49301 9.52713 8.33329 9.99935 8.33329C10.4716 8.33329 10.8674 8.49301 11.1868 8.81246C11.5063 9.1319 11.666 9.52774 11.666 9.99996C11.666 10.4722 11.5063 10.868 11.1868 11.1875C10.8674 11.5069 10.4716 11.6666 9.99935 11.6666ZM16.666 25.8333C15.9716 25.8333 15.3813 25.5902 14.8952 25.1041C14.4091 24.618 14.166 24.0277 14.166 23.3333C14.166 22.6388 14.4091 22.0486 14.8952 21.5625C15.3813 21.0763 15.9716 20.8333 16.666 20.8333C17.3605 20.8333 17.9507 21.0763 18.4368 21.5625C18.923 22.0486 19.166 22.6388 19.166 23.3333C19.166 24.0277 18.923 24.618 18.4368 25.1041C17.9507 25.5902 17.3605 25.8333 16.666 25.8333ZM16.666 19.1666C15.9716 19.1666 15.3813 18.9236 14.8952 18.4375C14.4091 17.9513 14.166 17.3611 14.166 16.6666C14.166 15.9722 14.4091 15.3819 14.8952 14.8958C15.3813 14.4097 15.9716 14.1666 16.666 14.1666C17.3605 14.1666 17.9507 14.4097 18.4368 14.8958C18.923 15.3819 19.166 15.9722 19.166 16.6666C19.166 17.3611 18.923 17.9513 18.4368 18.4375C17.9507 18.9236 17.3605 19.1666 16.666 19.1666ZM16.666 31.6666C16.1938 31.6666 15.798 31.5069 15.4785 31.1875C15.1591 30.868 14.9993 30.4722 14.9993 30C14.9993 29.5277 15.1591 29.1319 15.4785 28.8125C15.798 28.493 16.1938 28.3333 16.666 28.3333C17.1382 28.3333 17.5341 28.493 17.8535 28.8125C18.173 29.1319 18.3327 29.5277 18.3327 30C18.3327 30.4722 18.173 30.868 17.8535 31.1875C17.5341 31.5069 17.1382 31.6666 16.666 31.6666ZM16.666 11.6666C16.1938 11.6666 15.798 11.5069 15.4785 11.1875C15.1591 10.868 14.9993 10.4722 14.9993 9.99996C14.9993 9.52774 15.1591 9.1319 15.4785 8.81246C15.798 8.49301 16.1938 8.33329 16.666 8.33329C17.1382 8.33329 17.5341 8.49301 17.8535 8.81246C18.173 9.1319 18.3327 9.52774 18.3327 9.99996C18.3327 10.4722 18.173 10.868 17.8535 11.1875C17.5341 11.5069 17.1382 11.6666 16.666 11.6666ZM16.666 35.8333C16.4438 35.8333 16.2493 35.75 16.0827 35.5833C15.916 35.4166 15.8327 35.2222 15.8327 35C15.8327 34.7777 15.916 34.5833 16.0827 34.4166C16.2493 34.25 16.4438 34.1666 16.666 34.1666C16.8882 34.1666 17.0827 34.25 17.2493 34.4166C17.416 34.5833 17.4993 34.7777 17.4993 35C17.4993 35.2222 17.416 35.4166 17.2493 35.5833C17.0827 35.75 16.8882 35.8333 16.666 35.8333ZM16.666 5.83329C16.4438 5.83329 16.2493 5.74996 16.0827 5.58329C15.916 5.41663 15.8327 5.22218 15.8327 4.99996C15.8327 4.77774 15.916 4.58329 16.0827 4.41663C16.2493 4.24996 16.4438 4.16663 16.666 4.16663C16.8882 4.16663 17.0827 4.24996 17.2493 4.41663C17.416 4.58329 17.4993 4.77774 17.4993 4.99996C17.4993 5.22218 17.416 5.41663 17.2493 5.58329C17.0827 5.74996 16.8882 5.83329 16.666 5.83329ZM23.3327 25.8333C22.6382 25.8333 22.048 25.5902 21.5618 25.1041C21.0757 24.618 20.8327 24.0277 20.8327 23.3333C20.8327 22.6388 21.0757 22.0486 21.5618 21.5625C22.048 21.0763 22.6382 20.8333 23.3327 20.8333C24.0271 20.8333 24.6174 21.0763 25.1035 21.5625C25.5896 22.0486 25.8327 22.6388 25.8327 23.3333C25.8327 24.0277 25.5896 24.618 25.1035 25.1041C24.6174 25.5902 24.0271 25.8333 23.3327 25.8333ZM23.3327 19.1666C22.6382 19.1666 22.048 18.9236 21.5618 18.4375C21.0757 17.9513 20.8327 17.3611 20.8327 16.6666C20.8327 15.9722 21.0757 15.3819 21.5618 14.8958C22.048 14.4097 22.6382 14.1666 23.3327 14.1666C24.0271 14.1666 24.6174 14.4097 25.1035 14.8958C25.5896 15.3819 25.8327 15.9722 25.8327 16.6666C25.8327 17.3611 25.5896 17.9513 25.1035 18.4375C24.6174 18.9236 24.0271 19.1666 23.3327 19.1666ZM23.3327 31.6666C22.8605 31.6666 22.4646 31.5069 22.1452 31.1875C21.8257 30.868 21.666 30.4722 21.666 30C21.666 29.5277 21.8257 29.1319 22.1452 28.8125C22.4646 28.493 22.8605 28.3333 23.3327 28.3333C23.8049 28.3333 24.2007 28.493 24.5202 28.8125C24.8396 29.1319 24.9993 29.5277 24.9993 30C24.9993 30.4722 24.8396 30.868 24.5202 31.1875C24.2007 31.5069 23.8049 31.6666 23.3327 31.6666ZM23.3327 11.6666C22.8605 11.6666 22.4646 11.5069 22.1452 11.1875C21.8257 10.868 21.666 10.4722 21.666 9.99996C21.666 9.52774 21.8257 9.1319 22.1452 8.81246C22.4646 8.49301 22.8605 8.33329 23.3327 8.33329C23.8049 8.33329 24.2007 8.49301 24.5202 8.81246C24.8396 9.1319 24.9993 9.52774 24.9993 9.99996C24.9993 10.4722 24.8396 10.868 24.5202 11.1875C24.2007 11.5069 23.8049 11.6666 23.3327 11.6666ZM23.3327 35.8333C23.1105 35.8333 22.916 35.75 22.7493 35.5833C22.5827 35.4166 22.4993 35.2222 22.4993 35C22.4993 34.7777 22.5827 34.5833 22.7493 34.4166C22.916 34.25 23.1105 34.1666 23.3327 34.1666C23.5549 34.1666 23.7493 34.25 23.916 34.4166C24.0827 34.5833 24.166 34.7777 24.166 35C24.166 35.2222 24.0827 35.4166 23.916 35.5833C23.7493 35.75 23.5549 35.8333 23.3327 35.8333ZM23.3327 5.83329C23.1105 5.83329 22.916 5.74996 22.7493 5.58329C22.5827 5.41663 22.4993 5.22218 22.4993 4.99996C22.4993 4.77774 22.5827 4.58329 22.7493 4.41663C22.916 4.24996 23.1105 4.16663 23.3327 4.16663C23.5549 4.16663 23.7493 4.24996 23.916 4.41663C24.0827 4.58329 24.166 4.77774 24.166 4.99996C24.166 5.22218 24.0827 5.41663 23.916 5.58329C23.7493 5.74996 23.5549 5.83329 23.3327 5.83329ZM29.9993 31.6666C29.5271 31.6666 29.1313 31.5069 28.8118 31.1875C28.4924 30.868 28.3327 30.4722 28.3327 30C28.3327 29.5277 28.4924 29.1319 28.8118 28.8125C29.1313 28.493 29.5271 28.3333 29.9993 28.3333C30.4716 28.3333 30.8674 28.493 31.1868 28.8125C31.5063 29.1319 31.666 29.5277 31.666 30C31.666 30.4722 31.5063 30.868 31.1868 31.1875C30.8674 31.5069 30.4716 31.6666 29.9993 31.6666ZM29.9993 25C29.5271 25 29.1313 24.8402 28.8118 24.5208C28.4924 24.2013 28.3327 23.8055 28.3327 23.3333C28.3327 22.8611 28.4924 22.4652 28.8118 22.1458C29.1313 21.8263 29.5271 21.6666 29.9993 21.6666C30.4716 21.6666 30.8674 21.8263 31.1868 22.1458C31.5063 22.4652 31.666 22.8611 31.666 23.3333C31.666 23.8055 31.5063 24.2013 31.1868 24.5208C30.8674 24.8402 30.4716 25 29.9993 25ZM29.9993 18.3333C29.5271 18.3333 29.1313 18.1736 28.8118 17.8541C28.4924 17.5347 28.3327 17.1388 28.3327 16.6666C28.3327 16.1944 28.4924 15.7986 28.8118 15.4791C29.1313 15.1597 29.5271 15 29.9993 15C30.4716 15 30.8674 15.1597 31.1868 15.4791C31.5063 15.7986 31.666 16.1944 31.666 16.6666C31.666 17.1388 31.5063 17.5347 31.1868 17.8541C30.8674 18.1736 30.4716 18.3333 29.9993 18.3333ZM29.9993 11.6666C29.5271 11.6666 29.1313 11.5069 28.8118 11.1875C28.4924 10.868 28.3327 10.4722 28.3327 9.99996C28.3327 9.52774 28.4924 9.1319 28.8118 8.81246C29.1313 8.49301 29.5271 8.33329 29.9993 8.33329C30.4716 8.33329 30.8674 8.49301 31.1868 8.81246C31.5063 9.1319 31.666 9.52774 31.666 9.99996C31.666 10.4722 31.5063 10.868 31.1868 11.1875C30.8674 11.5069 30.4716 11.6666 29.9993 11.6666ZM34.9993 24.1666C34.7771 24.1666 34.5827 24.0833 34.416 23.9166C34.2493 23.75 34.166 23.5555 34.166 23.3333C34.166 23.1111 34.2493 22.9166 34.416 22.75C34.5827 22.5833 34.7771 22.5 34.9993 22.5C35.2216 22.5 35.416 22.5833 35.5827 22.75C35.7493 22.9166 35.8327 23.1111 35.8327 23.3333C35.8327 23.5555 35.7493 23.75 35.5827 23.9166C35.416 24.0833 35.2216 24.1666 34.9993 24.1666ZM34.9993 17.5C34.7771 17.5 34.5827 17.4166 34.416 17.25C34.2493 17.0833 34.166 16.8888 34.166 16.6666C34.166 16.4444 34.2493 16.25 34.416 16.0833C34.5827 15.9166 34.7771 15.8333 34.9993 15.8333C35.2216 15.8333 35.416 15.9166 35.5827 16.0833C35.7493 16.25 35.8327 16.4444 35.8327 16.6666C35.8327 16.8888 35.7493 17.0833 35.5827 17.25C35.416 17.4166 35.2216 17.5 34.9993 17.5Z" fill="#3C7BF6"/>
</g>
</svg>
