<svg width="40" height="40" viewBox="0 0 40 40" fill="none" xmlns="http://www.w3.org/2000/svg">
<mask id="mask0_435_21915" style="mask-type:alpha" maskUnits="userSpaceOnUse" x="0" y="0" width="40" height="40">
<rect width="40" height="40" fill="#D9D9D9"/>
</mask>
<g mask="url(#mask0_435_21915)">
<path d="M15.8333 36.6666C14.2222 36.6666 12.8472 36.0971 11.7083 34.9583C10.5694 33.8194 10 32.4444 10 30.8333V6.66659C10 5.74992 10.3264 4.9652 10.9792 4.31242C11.6319 3.65964 12.4167 3.33325 13.3333 3.33325H18.3333C19.25 3.33325 20.0347 3.65964 20.6875 4.31242C21.3403 4.9652 21.6667 5.74992 21.6667 6.66659V30.8333C21.6667 32.4444 21.0972 33.8194 19.9583 34.9583C18.8194 36.0971 17.4444 36.6666 15.8333 36.6666ZM13.3333 25.5833C13.7222 25.3888 14.1181 25.243 14.5208 25.1458C14.9236 25.0485 15.3611 24.9999 15.8333 24.9999C16.3056 24.9999 16.7431 25.0485 17.1458 25.1458C17.5486 25.243 17.9444 25.3888 18.3333 25.5833V6.66659H13.3333V25.5833ZM15.8333 33.3333C16.5278 33.3333 17.1181 33.0902 17.6042 32.6041C18.0903 32.118 18.3333 31.5277 18.3333 30.8333C18.3333 30.1388 18.0903 29.5485 17.6042 29.0624C17.1181 28.5763 16.5278 28.3333 15.8333 28.3333C15.1389 28.3333 14.5486 28.5763 14.0625 29.0624C13.5764 29.5485 13.3333 30.1388 13.3333 30.8333C13.3333 31.5277 13.5764 32.118 14.0625 32.6041C14.5486 33.0902 15.1389 33.3333 15.8333 33.3333ZM28.3333 29.9999C27.4167 29.9999 26.6319 29.6735 25.9792 29.0208C25.3264 28.368 25 27.5833 25 26.6666V13.3333C25 12.4166 25.3264 11.6319 25.9792 10.9791C26.6319 10.3263 27.4167 9.99992 28.3333 9.99992H30C30.9167 9.99992 31.7014 10.3263 32.3542 10.9791C33.0069 11.6319 33.3333 12.4166 33.3333 13.3333V26.6666C33.3333 27.5833 33.0069 28.368 32.3542 29.0208C31.7014 29.6735 30.9167 29.9999 30 29.9999H28.3333ZM28.3333 26.6666H30V13.3333H28.3333V26.6666Z" fill="white"/>
</g>
</svg>
