<svg width="36" height="36" viewBox="0 0 36 36" fill="none" xmlns="http://www.w3.org/2000/svg">
<mask id="mask0_479_37621" style="mask-type:alpha" maskUnits="userSpaceOnUse" x="0" y="0" width="36" height="36">
<rect width="36" height="36" fill="#D9D9D9"/>
</mask>
<g mask="url(#mask0_479_37621)">
<path d="M6 30C5.175 30 4.46875 29.7063 3.88125 29.1188C3.29375 28.5312 3 27.825 3 27V9C3 8.175 3.29375 7.46875 3.88125 6.88125C4.46875 6.29375 5.175 6 6 6H21.15C21.05 6.5 21 7 21 7.5C21 8 21.05 8.5 21.15 9H6L18 16.5L23.475 13.0875C23.825 13.4125 24.2062 13.6937 24.6187 13.9312C25.0312 14.1687 25.4625 14.375 25.9125 14.55L18 19.5L6 12V27H30V14.85C30.575 14.725 31.1125 14.55 31.6125 14.325C32.1125 14.1 32.575 13.825 33 13.5V27C33 27.825 32.7062 28.5312 32.1187 29.1188C31.5312 29.7063 30.825 30 30 30H6ZM28.5 12C27.25 12 26.1875 11.5625 25.3125 10.6875C24.4375 9.8125 24 8.75 24 7.5C24 6.25 24.4375 5.1875 25.3125 4.3125C26.1875 3.4375 27.25 3 28.5 3C29.75 3 30.8125 3.4375 31.6875 4.3125C32.5625 5.1875 33 6.25 33 7.5C33 8.75 32.5625 9.8125 31.6875 10.6875C30.8125 11.5625 29.75 12 28.5 12Z" fill="#3C7BF6"/>
</g>
</svg>
