<svg width="40" height="40" viewBox="0 0 40 40" fill="none" xmlns="http://www.w3.org/2000/svg">
<mask id="mask0_346_17457" style="mask-type:alpha" maskUnits="userSpaceOnUse" x="0" y="0" width="40" height="40">
<rect width="40" height="40" fill="#D9D9D9"/>
</mask>
<g mask="url(#mask0_346_17457)">
<path d="M3.33325 18.3333L11.6666 3.33325L19.9999 18.3333H3.33325ZM11.6666 34.9999C9.83325 34.9999 8.26381 34.3471 6.95825 33.0416C5.6527 31.736 4.99992 30.1666 4.99992 28.3333C4.99992 26.4721 5.6527 24.8958 6.95825 23.6041C8.26381 22.3124 9.83325 21.6666 11.6666 21.6666C13.4999 21.6666 15.0694 22.3194 16.3749 23.6249C17.6805 24.9305 18.3333 26.4999 18.3333 28.3333C18.3333 30.1666 17.6805 31.736 16.3749 33.0416C15.0694 34.3471 13.4999 34.9999 11.6666 34.9999ZM11.6666 31.6666C12.5833 31.6666 13.368 31.3402 14.0208 30.6874C14.6735 30.0346 14.9999 29.2499 14.9999 28.3333C14.9999 27.4166 14.6735 26.6319 14.0208 25.9791C13.368 25.3263 12.5833 24.9999 11.6666 24.9999C10.7499 24.9999 9.9652 25.3263 9.31242 25.9791C8.65964 26.6319 8.33325 27.4166 8.33325 28.3333C8.33325 29.2499 8.65964 30.0346 9.31242 30.6874C9.9652 31.3402 10.7499 31.6666 11.6666 31.6666ZM8.99992 14.9999H14.3333L11.6666 10.2083L8.99992 14.9999ZM21.6666 34.9999V21.6666H34.9999V34.9999H21.6666ZM24.9999 31.6666H31.6666V24.9999H24.9999V31.6666ZM28.3333 18.3333C26.7499 16.9999 25.4235 15.8749 24.3541 14.9583C23.2846 14.0416 22.4305 13.236 21.7916 12.5416C21.1527 11.8471 20.6944 11.1944 20.4166 10.5833C20.1388 9.97214 19.9999 9.31936 19.9999 8.62492C19.9999 7.37492 20.4374 6.31936 21.3124 5.45825C22.1874 4.59714 23.2777 4.16659 24.5833 4.16659C25.3333 4.16659 26.0346 4.3402 26.6874 4.68742C27.3402 5.03464 27.8888 5.51381 28.3333 6.12492C28.7777 5.51381 29.3263 5.03464 29.9791 4.68742C30.6319 4.3402 31.3333 4.16659 32.0833 4.16659C33.3888 4.16659 34.4791 4.59714 35.3541 5.45825C36.2291 6.31936 36.6666 7.37492 36.6666 8.62492C36.6666 9.31936 36.5277 9.97214 36.2499 10.5833C35.9721 11.1944 35.5138 11.8471 34.8749 12.5416C34.236 13.236 33.3819 14.0416 32.3124 14.9583C31.243 15.8749 29.9166 16.9999 28.3333 18.3333ZM28.3333 13.9583C30.3333 12.2916 31.6666 11.111 32.3333 10.4166C32.9999 9.72214 33.3333 9.1527 33.3333 8.70825C33.3333 8.34714 33.2291 8.05547 33.0208 7.83325C32.8124 7.61103 32.5277 7.49992 32.1666 7.49992C31.8888 7.49992 31.618 7.57631 31.3541 7.72909C31.0902 7.88186 30.7638 8.1527 30.3749 8.54158L28.3333 10.4999L26.2916 8.54158C25.9027 8.1527 25.5763 7.88186 25.3124 7.72909C25.0485 7.57631 24.7777 7.49992 24.4999 7.49992C24.1388 7.49992 23.8541 7.61103 23.6458 7.83325C23.4374 8.05547 23.3333 8.34714 23.3333 8.70825C23.3333 9.1527 23.6666 9.72214 24.3333 10.4166C24.9999 11.111 26.3333 12.2916 28.3333 13.9583Z" fill="#2E7BEE"/>
</g>
</svg>
