<svg width="40" height="40" viewBox="0 0 40 40" fill="none" xmlns="http://www.w3.org/2000/svg">
<mask id="mask0_377_24492" style="mask-type:alpha" maskUnits="userSpaceOnUse" x="0" y="0" width="40" height="40">
<rect width="40" height="40" fill="#D9D9D9"/>
</mask>
<g mask="url(#mask0_377_24492)">
<path d="M27.3333 34.9999L25 32.6666L27.625 29.9999L25 27.3749L27.3333 24.9999L30 27.6666L32.625 24.9999L35 27.3749L32.3333 29.9999L35 32.6666L32.625 34.9999L30 32.3749L27.3333 34.9999ZM10 31.6666C10.4722 31.6666 10.8681 31.5069 11.1875 31.1874C11.5069 30.868 11.6667 30.4721 11.6667 29.9999C11.6667 29.5277 11.5069 29.1319 11.1875 28.8124C10.8681 28.493 10.4722 28.3333 10 28.3333C9.52778 28.3333 9.13194 28.493 8.8125 28.8124C8.49306 29.1319 8.33333 29.5277 8.33333 29.9999C8.33333 30.4721 8.49306 30.868 8.8125 31.1874C9.13194 31.5069 9.52778 31.6666 10 31.6666ZM10 34.9999C8.61111 34.9999 7.43056 34.5138 6.45833 33.5416C5.48611 32.5694 5 31.3888 5 29.9999C5 28.611 5.48611 27.4305 6.45833 26.4583C7.43056 25.486 8.61111 24.9999 10 24.9999C11.0278 24.9999 11.9653 25.2846 12.8125 25.8541C13.6597 26.4235 14.2778 27.1944 14.6667 28.1666C15.75 27.861 16.6319 27.2638 17.3125 26.3749C17.9931 25.486 18.3333 24.4721 18.3333 23.3333V16.6666C18.3333 14.361 19.1458 12.3958 20.7708 10.7708C22.3958 9.14575 24.3611 8.33325 26.6667 8.33325H28.5833L25.9583 5.70825L28.3333 3.33325L35 9.99992L28.3333 16.6666L25.9583 14.3333L28.5833 11.6666H26.6667C25.2778 11.6666 24.0972 12.1527 23.125 13.1249C22.1528 14.0971 21.6667 15.2777 21.6667 16.6666V23.3333C21.6667 25.361 21.0139 27.1458 19.7083 28.6874C18.4028 30.2291 16.75 31.1805 14.75 31.5416C14.4167 32.5694 13.8125 33.4027 12.9375 34.0416C12.0625 34.6805 11.0833 34.9999 10 34.9999ZM7.33333 14.9999L5 12.6666L7.625 9.99992L5 7.37492L7.33333 4.99992L10 7.66659L12.625 4.99992L15 7.37492L12.3333 9.99992L15 12.6666L12.625 14.9999L10 12.3749L7.33333 14.9999Z" fill="white"/>
</g>
</svg>
