<svg width="40" height="40" viewBox="0 0 40 40" fill="none" xmlns="http://www.w3.org/2000/svg">
<mask id="mask0_346_16050" style="mask-type:alpha" maskUnits="userSpaceOnUse" x="0" y="0" width="40" height="40">
<rect width="40" height="40" fill="#D9D9D9"/>
</mask>
<g mask="url(#mask0_346_16050)">
<path d="M36 38.3333L30.875 33.25C30.375 33.5556 29.8403 33.7847 29.2708 33.9375C28.7014 34.0903 28.1111 34.1667 27.5 34.1667C25.6667 34.1667 24.0972 33.5139 22.7917 32.2083C21.4861 30.9028 20.8333 29.3333 20.8333 27.5C20.8333 25.6667 21.4861 24.0972 22.7917 22.7917C24.0972 21.4861 25.6667 20.8333 27.5 20.8333C29.3333 20.8333 30.9028 21.4861 32.2083 22.7917C33.5139 24.0972 34.1667 25.6667 34.1667 27.5C34.1667 28.1389 34.0833 28.7431 33.9167 29.3125C33.75 29.8819 33.5139 30.4167 33.2083 30.9167L38.3333 36L36 38.3333ZM9.16667 34.1667C7.33333 34.1667 5.76389 33.5139 4.45833 32.2083C3.15278 30.9028 2.5 29.3333 2.5 27.5C2.5 25.6667 3.15278 24.0972 4.45833 22.7917C5.76389 21.4861 7.33333 20.8333 9.16667 20.8333C11 20.8333 12.5694 21.4861 13.875 22.7917C15.1806 24.0972 15.8333 25.6667 15.8333 27.5C15.8333 29.3333 15.1806 30.9028 13.875 32.2083C12.5694 33.5139 11 34.1667 9.16667 34.1667ZM9.16667 30.8333C10.0833 30.8333 10.8681 30.5069 11.5208 29.8542C12.1736 29.2014 12.5 28.4167 12.5 27.5C12.5 26.5833 12.1736 25.7986 11.5208 25.1458C10.8681 24.4931 10.0833 24.1667 9.16667 24.1667C8.25 24.1667 7.46528 24.4931 6.8125 25.1458C6.15972 25.7986 5.83333 26.5833 5.83333 27.5C5.83333 28.4167 6.15972 29.2014 6.8125 29.8542C7.46528 30.5069 8.25 30.8333 9.16667 30.8333ZM27.5 30.8333C28.4167 30.8333 29.2014 30.5069 29.8542 29.8542C30.5069 29.2014 30.8333 28.4167 30.8333 27.5C30.8333 26.5833 30.5069 25.7986 29.8542 25.1458C29.2014 24.4931 28.4167 24.1667 27.5 24.1667C26.5833 24.1667 25.7986 24.4931 25.1458 25.1458C24.4931 25.7986 24.1667 26.5833 24.1667 27.5C24.1667 28.4167 24.4931 29.2014 25.1458 29.8542C25.7986 30.5069 26.5833 30.8333 27.5 30.8333ZM9.16667 15.8333C7.33333 15.8333 5.76389 15.1806 4.45833 13.875C3.15278 12.5694 2.5 11 2.5 9.16667C2.5 7.33333 3.15278 5.76389 4.45833 4.45833C5.76389 3.15278 7.33333 2.5 9.16667 2.5C11 2.5 12.5694 3.15278 13.875 4.45833C15.1806 5.76389 15.8333 7.33333 15.8333 9.16667C15.8333 11 15.1806 12.5694 13.875 13.875C12.5694 15.1806 11 15.8333 9.16667 15.8333ZM27.5 15.8333C25.6667 15.8333 24.0972 15.1806 22.7917 13.875C21.4861 12.5694 20.8333 11 20.8333 9.16667C20.8333 7.33333 21.4861 5.76389 22.7917 4.45833C24.0972 3.15278 25.6667 2.5 27.5 2.5C29.3333 2.5 30.9028 3.15278 32.2083 4.45833C33.5139 5.76389 34.1667 7.33333 34.1667 9.16667C34.1667 11 33.5139 12.5694 32.2083 13.875C30.9028 15.1806 29.3333 15.8333 27.5 15.8333ZM9.16667 12.5C10.0833 12.5 10.8681 12.1736 11.5208 11.5208C12.1736 10.8681 12.5 10.0833 12.5 9.16667C12.5 8.25 12.1736 7.46528 11.5208 6.8125C10.8681 6.15972 10.0833 5.83333 9.16667 5.83333C8.25 5.83333 7.46528 6.15972 6.8125 6.8125C6.15972 7.46528 5.83333 8.25 5.83333 9.16667C5.83333 10.0833 6.15972 10.8681 6.8125 11.5208C7.46528 12.1736 8.25 12.5 9.16667 12.5ZM27.5 12.5C28.4167 12.5 29.2014 12.1736 29.8542 11.5208C30.5069 10.8681 30.8333 10.0833 30.8333 9.16667C30.8333 8.25 30.5069 7.46528 29.8542 6.8125C29.2014 6.15972 28.4167 5.83333 27.5 5.83333C26.5833 5.83333 25.7986 6.15972 25.1458 6.8125C24.4931 7.46528 24.1667 8.25 24.1667 9.16667C24.1667 10.0833 24.4931 10.8681 25.1458 11.5208C25.7986 12.1736 26.5833 12.5 27.5 12.5Z" fill="#3C7BF6"/>
</g>
</svg>
