<svg width="40" height="40" viewBox="0 0 40 40" fill="none" xmlns="http://www.w3.org/2000/svg">
<mask id="mask0_346_20073" style="mask-type:alpha" maskUnits="userSpaceOnUse" x="0" y="0" width="40" height="40">
<rect width="40" height="40" fill="#D9D9D9"/>
</mask>
<g mask="url(#mask0_346_20073)">
<path d="M19.9993 26.6666C22.0827 26.6666 23.8535 25.9375 25.3118 24.4791C26.7702 23.0208 27.4993 21.25 27.4993 19.1666C27.4993 17.0833 26.7702 15.3125 25.3118 13.8541C23.8535 12.3958 22.0827 11.6666 19.9993 11.6666C17.916 11.6666 16.1452 12.3958 14.6868 13.8541C13.2285 15.3125 12.4993 17.0833 12.4993 19.1666C12.4993 21.25 13.2285 23.0208 14.6868 24.4791C16.1452 25.9375 17.916 26.6666 19.9993 26.6666ZM19.9993 23.6666C18.7493 23.6666 17.6869 23.2291 16.8119 22.3541C15.9369 21.4791 15.4993 20.4166 15.4993 19.1666C15.4993 17.9166 15.9369 16.8541 16.8119 15.9791C17.6869 15.1041 18.7493 14.6666 19.9993 14.6666C21.2493 14.6666 22.3118 15.1041 23.1869 15.9791C24.0619 16.8541 24.4993 17.9166 24.4993 19.1666C24.4993 20.4166 24.0619 21.4791 23.1869 22.3541C22.3118 23.2291 21.2493 23.6666 19.9993 23.6666ZM19.9993 31.6666C15.9438 31.6666 12.2493 30.5347 8.91602 28.2708C5.58268 26.0069 3.16602 22.9722 1.66602 19.1666C3.16602 15.3611 5.58268 12.3263 8.91602 10.0625C12.2493 7.79857 15.9438 6.66663 19.9993 6.66663C24.0549 6.66663 27.7493 7.79857 31.0827 10.0625C34.416 12.3263 36.8327 15.3611 38.3327 19.1666C36.8327 22.9722 34.416 26.0069 31.0827 28.2708C27.7493 30.5347 24.0549 31.6666 19.9993 31.6666ZM19.9993 28.3333C23.1382 28.3333 26.0202 27.5069 28.6452 25.8541C31.2702 24.2013 33.2771 21.9722 34.666 19.1666C33.2771 16.3611 31.2702 14.1319 28.6452 12.4791C26.0202 10.8263 23.1382 9.99996 19.9993 9.99996C16.8605 9.99996 13.9785 10.8263 11.3535 12.4791C8.72852 14.1319 6.72157 16.3611 5.33268 19.1666C6.72157 21.9722 8.72852 24.2013 11.3535 25.8541C13.9785 27.5069 16.8605 28.3333 19.9993 28.3333Z" fill="#3C7BF6"/>
</g>
</svg>
