<svg width="41" height="40" viewBox="0 0 41 40" fill="none" xmlns="http://www.w3.org/2000/svg">
<mask id="mask0_377_24387" style="mask-type:alpha" maskUnits="userSpaceOnUse" x="0" y="0" width="41" height="40">
<rect x="0.333008" width="40" height="40" fill="#D9D9D9"/>
</mask>
<g mask="url(#mask0_377_24387)">
<path d="M20.3333 33.3333C19 32.2777 17.5556 31.4583 16 30.8749C14.4444 30.2916 12.8333 29.9999 11.1667 29.9999C10 29.9999 8.85417 30.1527 7.72917 30.4583C6.60417 30.7638 5.52778 31.1944 4.5 31.7499C3.91667 32.0555 3.35417 32.0416 2.8125 31.7083C2.27083 31.3749 2 30.8888 2 30.2499V10.1666C2 9.86103 2.07639 9.56936 2.22917 9.29159C2.38194 9.01381 2.61111 8.80547 2.91667 8.66659C4.19444 7.99992 5.52778 7.49992 6.91667 7.16658C8.30556 6.83325 9.72222 6.66658 11.1667 6.66658C12.7778 6.66658 14.3542 6.87492 15.8958 7.29158C17.4375 7.70825 18.9167 8.33325 20.3333 9.16658V29.3333C21.75 28.4444 23.2361 27.7777 24.7917 27.3333C26.3472 26.8888 27.9167 26.6666 29.5 26.6666C30.5 26.6666 31.4792 26.7499 32.4375 26.9166C33.3958 27.0833 34.3611 27.3333 35.3333 27.6666V7.66658C35.75 7.80547 36.1597 7.95131 36.5625 8.10409C36.9653 8.25686 37.3611 8.44436 37.75 8.66659C38.0556 8.80547 38.2847 9.01381 38.4375 9.29159C38.5903 9.56936 38.6667 9.86103 38.6667 10.1666V30.2499C38.6667 30.8888 38.3958 31.3749 37.8542 31.7083C37.3125 32.0416 36.75 32.0555 36.1667 31.7499C35.1389 31.1944 34.0625 30.7638 32.9375 30.4583C31.8125 30.1527 30.6667 29.9999 29.5 29.9999C27.8333 29.9999 26.2222 30.2916 24.6667 30.8749C23.1111 31.4583 21.6667 32.2777 20.3333 33.3333ZM23.6667 24.9999V9.16658L32 0.833252V17.4999L23.6667 24.9999ZM17 27.7083V11.2083C16.0833 10.8194 15.1319 10.5208 14.1458 10.3124C13.1597 10.1041 12.1667 9.99992 11.1667 9.99992C10.1389 9.99992 9.13889 10.0971 8.16667 10.2916C7.19444 10.486 6.25 10.7777 5.33333 11.1666V27.7083C6.30556 27.3471 7.27083 27.0833 8.22917 26.9166C9.1875 26.7499 10.1667 26.6666 11.1667 26.6666C12.1667 26.6666 13.1458 26.7499 14.1042 26.9166C15.0625 27.0833 16.0278 27.3471 17 27.7083Z" fill="white"/>
</g>
</svg>
