<svg width="40" height="40" viewBox="0 0 40 40" fill="none" xmlns="http://www.w3.org/2000/svg">
<mask id="mask0_346_20098" style="mask-type:alpha" maskUnits="userSpaceOnUse" x="0" y="0" width="40" height="40">
<rect width="40" height="40" fill="#D9D9D9"/>
</mask>
<g mask="url(#mask0_346_20098)">
<path d="M20 36.6667C19.0833 36.6667 18.2986 36.3403 17.6458 35.6875C16.9931 35.0348 16.6667 34.25 16.6667 33.3334H23.3333C23.3333 34.25 23.0069 35.0348 22.3542 35.6875C21.7014 36.3403 20.9167 36.6667 20 36.6667ZM13.3333 31.6667V28.3334H26.6667V31.6667H13.3333ZM13.75 26.6667C11.8333 25.5278 10.3125 24 9.1875 22.0834C8.0625 20.1667 7.5 18.0834 7.5 15.8334C7.5 12.3612 8.71528 9.40976 11.1458 6.97921C13.5764 4.54865 16.5278 3.33337 20 3.33337C23.4722 3.33337 26.4236 4.54865 28.8542 6.97921C31.2847 9.40976 32.5 12.3612 32.5 15.8334C32.5 18.0834 31.9375 20.1667 30.8125 22.0834C29.6875 24 28.1667 25.5278 26.25 26.6667H13.75ZM14.75 23.3334H25.25C26.5 22.4445 27.4653 21.3473 28.1458 20.0417C28.8264 18.7362 29.1667 17.3334 29.1667 15.8334C29.1667 13.2778 28.2778 11.1112 26.5 9.33337C24.7222 7.5556 22.5556 6.66671 20 6.66671C17.4444 6.66671 15.2778 7.5556 13.5 9.33337C11.7222 11.1112 10.8333 13.2778 10.8333 15.8334C10.8333 17.3334 11.1736 18.7362 11.8542 20.0417C12.5347 21.3473 13.5 22.4445 14.75 23.3334Z" fill="#3C7BF6"/>
</g>
</svg>
