<svg width="40" height="40" viewBox="0 0 40 40" fill="none" xmlns="http://www.w3.org/2000/svg">
<mask id="mask0_382_17808" style="mask-type:alpha" maskUnits="userSpaceOnUse" x="0" y="0" width="40" height="40">
<rect width="40" height="40" fill="#D9D9D9"/>
</mask>
<g mask="url(#mask0_382_17808)">
<path d="M13.3332 29.9999H26.6665V9.99992H13.3332V29.9999ZM33.3332 33.3333C33.3332 34.2499 33.0068 35.0346 32.354 35.6874C31.7012 36.3402 30.9165 36.6666 29.9998 36.6666H9.99984C9.08317 36.6666 8.29845 36.3402 7.64567 35.6874C6.99289 35.0346 6.6665 34.2499 6.6665 33.3333V6.66659C6.6665 5.74992 6.99289 4.9652 7.64567 4.31242C8.29845 3.65964 9.08317 3.33325 9.99984 3.33325H29.9998C30.9165 3.33325 31.7012 3.65964 32.354 4.31242C33.0068 4.9652 33.3332 5.74992 33.3332 6.66659V33.3333ZM29.9998 33.3333V6.66659H9.99984V33.3333H29.9998Z" fill="white"/>
</g>
</svg>
