<svg width="38" height="38" viewBox="0 0 38 38" fill="none" xmlns="http://www.w3.org/2000/svg">
<g clip-path="url(#clip0_346_17735)">
<path d="M17.7571 0.0297477C17.6754 0.0371689 17.4157 0.0631429 17.1819 0.0816958C11.7905 0.567781 6.74036 3.47687 3.54184 7.94811C1.76077 10.4342 0.621621 13.2542 0.191194 16.2412C0.0390607 17.2839 0.0205078 17.5919 0.0205078 19.0056C0.0205078 20.4194 0.0390607 20.7273 0.191194 21.77C1.22273 28.898 6.29509 34.8869 13.1745 37.1058C14.4064 37.5028 15.7051 37.7737 17.1819 37.937C17.7571 38.0001 20.2431 38.0001 20.8183 37.937C23.3674 37.655 25.527 37.0242 27.6569 35.937C27.9834 35.77 28.0465 35.7255 28.002 35.6884C27.9723 35.6661 26.5808 33.7997 24.911 31.5437L21.8758 27.4435L18.0725 21.8145C15.9797 18.7199 14.258 16.1893 14.2431 16.1893C14.2283 16.1856 14.2135 18.6865 14.206 21.7403C14.1949 27.0873 14.1912 27.3025 14.1244 27.4286C14.0279 27.6105 13.9537 27.6847 13.7979 27.7663C13.6791 27.8257 13.5752 27.8368 13.0149 27.8368H12.373L12.2023 27.7292C12.091 27.6587 12.0094 27.5659 11.9537 27.4583L11.8758 27.2913L11.8832 19.8516L11.8943 12.4082L12.0094 12.2635C12.0687 12.1856 12.1949 12.0854 12.284 12.0372C12.4361 11.963 12.4955 11.9555 13.1374 11.9555C13.8943 11.9555 14.0205 11.9852 14.2172 12.2004C14.2728 12.2598 16.3322 15.3618 18.796 19.0984C21.2598 22.8349 24.629 27.937 26.284 30.4416L29.2895 34.9945L29.4417 34.8943C30.7886 34.0186 32.2135 32.7719 33.3415 31.4732C35.7422 28.7162 37.2895 25.3544 37.809 21.77C37.9611 20.7273 37.9797 20.4194 37.9797 19.0056C37.9797 17.5919 37.9611 17.2839 37.809 16.2412C36.7775 9.11323 31.7051 3.12437 24.8257 0.905443C23.6123 0.512122 22.3211 0.24125 20.8739 0.0779852C20.5177 0.0408794 18.065 6.31027e-05 17.7571 0.0297477ZM25.527 11.5103C25.7051 11.5993 25.8498 11.77 25.9018 11.9481C25.9315 12.0446 25.9389 14.1077 25.9315 18.757L25.9203 25.4286L24.7441 23.6253L23.5641 21.822V16.9722C23.5641 13.8368 23.5789 12.0743 23.6012 11.9889C23.6606 11.7811 23.7905 11.6179 23.9686 11.5214C24.1207 11.4435 24.1764 11.4361 24.7589 11.4361C25.3081 11.4361 25.4046 11.4435 25.527 11.5103Z" fill="#151515"/>
<path d="M29.104 35.076C28.9741 35.1576 28.9333 35.2133 29.0483 35.1502C29.13 35.1019 29.2635 35.0018 29.2413 34.998C29.2301 34.998 29.1671 35.0352 29.104 35.076ZM28.8479 35.2429C28.7812 35.2949 28.7812 35.2986 28.8628 35.2578C28.9073 35.2355 28.9444 35.2095 28.9444 35.2021C28.9444 35.1724 28.9259 35.1799 28.8479 35.2429ZM28.6624 35.3543C28.5956 35.4062 28.5956 35.4099 28.6773 35.3691C28.7218 35.3468 28.7589 35.3209 28.7589 35.3134C28.7589 35.2838 28.7403 35.2912 28.6624 35.3543ZM28.4769 35.4656C28.4101 35.5175 28.4101 35.5212 28.4917 35.4804C28.5363 35.4582 28.5734 35.4322 28.5734 35.4248C28.5734 35.3951 28.5548 35.4025 28.4769 35.4656ZM28.1949 35.614C28.0539 35.6882 28.0613 35.7179 28.2023 35.6474C28.2654 35.614 28.3136 35.5806 28.3136 35.5732C28.3136 35.5472 28.3099 35.5509 28.1949 35.614Z" fill="#151515"/>
</g>
<defs>
<clipPath id="clip0_346_17735">
<rect width="38" height="38" fill="white"/>
</clipPath>
</defs>
</svg>
