<svg width="41" height="40" viewBox="0 0 41 40" fill="none" xmlns="http://www.w3.org/2000/svg">
<mask id="mask0_377_24522" style="mask-type:alpha" maskUnits="userSpaceOnUse" x="0" y="0" width="41" height="40">
<rect x="0.666016" width="40" height="40" fill="#D9D9D9"/>
</mask>
<g mask="url(#mask0_377_24522)">
<path d="M36.666 38.3333L31.541 33.25C31.041 33.5556 30.5063 33.7847 29.9368 33.9375C29.3674 34.0903 28.7771 34.1667 28.166 34.1667C26.3327 34.1667 24.7632 33.5139 23.4577 32.2083C22.1521 30.9028 21.4993 29.3333 21.4993 27.5C21.4993 25.6667 22.1521 24.0972 23.4577 22.7917C24.7632 21.4861 26.3327 20.8333 28.166 20.8333C29.9993 20.8333 31.5688 21.4861 32.8743 22.7917C34.1799 24.0972 34.8327 25.6667 34.8327 27.5C34.8327 28.1389 34.7493 28.7431 34.5827 29.3125C34.416 29.8819 34.1799 30.4167 33.8743 30.9167L38.9993 36L36.666 38.3333ZM9.83268 34.1667C7.99935 34.1667 6.4299 33.5139 5.12435 32.2083C3.81879 30.9028 3.16602 29.3333 3.16602 27.5C3.16602 25.6667 3.81879 24.0972 5.12435 22.7917C6.4299 21.4861 7.99935 20.8333 9.83268 20.8333C11.666 20.8333 13.2355 21.4861 14.541 22.7917C15.8466 24.0972 16.4993 25.6667 16.4993 27.5C16.4993 29.3333 15.8466 30.9028 14.541 32.2083C13.2355 33.5139 11.666 34.1667 9.83268 34.1667ZM9.83268 30.8333C10.7493 30.8333 11.5341 30.5069 12.1868 29.8542C12.8396 29.2014 13.166 28.4167 13.166 27.5C13.166 26.5833 12.8396 25.7986 12.1868 25.1458C11.5341 24.4931 10.7493 24.1667 9.83268 24.1667C8.91602 24.1667 8.13129 24.4931 7.47852 25.1458C6.82574 25.7986 6.49935 26.5833 6.49935 27.5C6.49935 28.4167 6.82574 29.2014 7.47852 29.8542C8.13129 30.5069 8.91602 30.8333 9.83268 30.8333ZM28.166 30.8333C29.0827 30.8333 29.8674 30.5069 30.5202 29.8542C31.173 29.2014 31.4993 28.4167 31.4993 27.5C31.4993 26.5833 31.173 25.7986 30.5202 25.1458C29.8674 24.4931 29.0827 24.1667 28.166 24.1667C27.2493 24.1667 26.4646 24.4931 25.8118 25.1458C25.1591 25.7986 24.8327 26.5833 24.8327 27.5C24.8327 28.4167 25.1591 29.2014 25.8118 29.8542C26.4646 30.5069 27.2493 30.8333 28.166 30.8333ZM9.83268 15.8333C7.99935 15.8333 6.4299 15.1806 5.12435 13.875C3.81879 12.5694 3.16602 11 3.16602 9.16667C3.16602 7.33333 3.81879 5.76389 5.12435 4.45833C6.4299 3.15278 7.99935 2.5 9.83268 2.5C11.666 2.5 13.2355 3.15278 14.541 4.45833C15.8466 5.76389 16.4993 7.33333 16.4993 9.16667C16.4993 11 15.8466 12.5694 14.541 13.875C13.2355 15.1806 11.666 15.8333 9.83268 15.8333ZM28.166 15.8333C26.3327 15.8333 24.7632 15.1806 23.4577 13.875C22.1521 12.5694 21.4993 11 21.4993 9.16667C21.4993 7.33333 22.1521 5.76389 23.4577 4.45833C24.7632 3.15278 26.3327 2.5 28.166 2.5C29.9993 2.5 31.5688 3.15278 32.8743 4.45833C34.1799 5.76389 34.8327 7.33333 34.8327 9.16667C34.8327 11 34.1799 12.5694 32.8743 13.875C31.5688 15.1806 29.9993 15.8333 28.166 15.8333ZM9.83268 12.5C10.7493 12.5 11.5341 12.1736 12.1868 11.5208C12.8396 10.8681 13.166 10.0833 13.166 9.16667C13.166 8.25 12.8396 7.46528 12.1868 6.8125C11.5341 6.15972 10.7493 5.83333 9.83268 5.83333C8.91602 5.83333 8.13129 6.15972 7.47852 6.8125C6.82574 7.46528 6.49935 8.25 6.49935 9.16667C6.49935 10.0833 6.82574 10.8681 7.47852 11.5208C8.13129 12.1736 8.91602 12.5 9.83268 12.5ZM28.166 12.5C29.0827 12.5 29.8674 12.1736 30.5202 11.5208C31.173 10.8681 31.4993 10.0833 31.4993 9.16667C31.4993 8.25 31.173 7.46528 30.5202 6.8125C29.8674 6.15972 29.0827 5.83333 28.166 5.83333C27.2493 5.83333 26.4646 6.15972 25.8118 6.8125C25.1591 7.46528 24.8327 8.25 24.8327 9.16667C24.8327 10.0833 25.1591 10.8681 25.8118 11.5208C26.4646 12.1736 27.2493 12.5 28.166 12.5Z" fill="white"/>
</g>
</svg>
