<svg width="40" height="40" viewBox="0 0 40 40" fill="none" xmlns="http://www.w3.org/2000/svg">
<mask id="mask0_346_17800" style="mask-type:alpha" maskUnits="userSpaceOnUse" x="0" y="0" width="40" height="40">
<rect width="40" height="40" fill="#3C7BF6"/>
</mask>
<g mask="url(#mask0_346_17800)">
<path d="M25.8332 38.3334C22.9443 38.3334 20.3957 37.4723 18.1873 35.7501C15.979 34.0279 14.5137 31.8334 13.7915 29.1667C15.0415 29.2223 16.2776 29.0973 17.4998 28.7917C18.7221 28.4862 19.8887 28.0556 20.9998 27.5001H27.8332C27.8609 27.1945 27.8818 26.8959 27.8957 26.6042C27.9096 26.3126 27.9165 26.014 27.9165 25.7084C27.9165 25.4584 27.9096 25.2015 27.8957 24.9376C27.8818 24.6737 27.8609 24.4167 27.8332 24.1667H25.3748C25.8193 23.6667 26.229 23.139 26.604 22.5834C26.979 22.0279 27.3193 21.4445 27.6248 20.8334H33.4998C32.9443 20.0001 32.2776 19.2709 31.4998 18.6459C30.7221 18.0209 29.8471 17.5417 28.8748 17.2084C29.0137 16.6529 29.104 16.0834 29.1457 15.5001C29.1873 14.9167 29.1943 14.3473 29.1665 13.7917C31.8332 14.514 34.0276 15.9792 35.7498 18.1876C37.4721 20.3959 38.3332 22.9445 38.3332 25.8334C38.3332 29.3056 37.1179 32.257 34.6873 34.6876C32.2568 37.1181 29.3054 38.3334 25.8332 38.3334ZM21.8748 34.0834C21.6804 33.5279 21.5068 32.9862 21.354 32.4584C21.2012 31.9306 21.0693 31.389 20.9582 30.8334H18.1665C18.6387 31.5279 19.1873 32.1529 19.8123 32.7084C20.4373 33.264 21.1248 33.7223 21.8748 34.0834ZM25.8332 34.6668C26.1665 34.0556 26.4512 33.4306 26.6873 32.7918C26.9234 32.1529 27.1248 31.5001 27.2915 30.8334H24.3748C24.5415 31.5001 24.7498 32.1529 24.9998 32.7918C25.2498 33.4306 25.5276 34.0556 25.8332 34.6668ZM29.7915 34.0834C30.5415 33.7223 31.229 33.264 31.854 32.7084C32.479 32.1529 33.0276 31.5279 33.4998 30.8334H30.7082C30.5693 31.389 30.4304 31.9306 30.2915 32.4584C30.1526 32.9862 29.986 33.5279 29.7915 34.0834ZM31.1665 27.5001H34.8332C34.8887 27.2223 34.9304 26.9515 34.9582 26.6876C34.986 26.4237 34.9998 26.139 34.9998 25.8334C34.9998 25.5279 34.986 25.2431 34.9582 24.9792C34.9304 24.7154 34.8887 24.4445 34.8332 24.1667H31.1665C31.1943 24.4167 31.2151 24.6737 31.229 24.9376C31.2429 25.2015 31.2498 25.4584 31.2498 25.7084C31.2498 26.014 31.2429 26.3126 31.229 26.6042C31.2151 26.8959 31.1943 27.1945 31.1665 27.5001ZM14.1665 26.6667C10.6943 26.6667 7.74289 25.4515 5.31234 23.0209C2.88178 20.5904 1.6665 17.639 1.6665 14.1667C1.6665 10.6945 2.88178 7.74314 5.31234 5.31258C7.74289 2.88203 10.6943 1.66675 14.1665 1.66675C17.6387 1.66675 20.5901 2.88203 23.0207 5.31258C25.4512 7.74314 26.6665 10.6945 26.6665 14.1667C26.6665 17.639 25.4512 20.5904 23.0207 23.0209C20.5901 25.4515 17.6387 26.6667 14.1665 26.6667ZM14.1665 23.3334C16.6943 23.3334 18.854 22.4376 20.6457 20.6459C22.4373 18.8542 23.3332 16.6945 23.3332 14.1667C23.3332 11.639 22.4373 9.47925 20.6457 7.68758C18.854 5.89591 16.6943 5.00008 14.1665 5.00008C11.6387 5.00008 9.479 5.89591 7.68734 7.68758C5.89567 9.47925 4.99984 11.639 4.99984 14.1667C4.99984 16.6945 5.89567 18.8542 7.68734 20.6459C9.479 22.4376 11.6387 23.3334 14.1665 23.3334ZM9.99984 13.3334C10.4721 13.3334 10.8679 13.1737 11.1873 12.8542C11.5068 12.5348 11.6665 12.139 11.6665 11.6667C11.6665 11.1945 11.5068 10.7987 11.1873 10.4792C10.8679 10.1598 10.4721 10.0001 9.99984 10.0001C9.52762 10.0001 9.13178 10.1598 8.81234 10.4792C8.49289 10.7987 8.33317 11.1945 8.33317 11.6667C8.33317 12.139 8.49289 12.5348 8.81234 12.8542C9.13178 13.1737 9.52762 13.3334 9.99984 13.3334ZM14.1665 20.6667C15.4998 20.6667 16.6873 20.2917 17.729 19.5417C18.7707 18.7917 19.5276 17.8334 19.9998 16.6667H8.33317C8.80539 17.8334 9.56234 18.7917 10.604 19.5417C11.6457 20.2917 12.8332 20.6667 14.1665 20.6667ZM18.3332 13.3334C18.8054 13.3334 19.2012 13.1737 19.5207 12.8542C19.8401 12.5348 19.9998 12.139 19.9998 11.6667C19.9998 11.1945 19.8401 10.7987 19.5207 10.4792C19.2012 10.1598 18.8054 10.0001 18.3332 10.0001C17.8609 10.0001 17.4651 10.1598 17.1457 10.4792C16.8262 10.7987 16.6665 11.1945 16.6665 11.6667C16.6665 12.139 16.8262 12.5348 17.1457 12.8542C17.4651 13.1737 17.8609 13.3334 18.3332 13.3334Z" fill="#3C7BF6"/>
</g>
</svg>
