<svg width="40" height="40" viewBox="0 0 40 40" fill="none" xmlns="http://www.w3.org/2000/svg">
<mask id="mask0_346_17469" style="mask-type:alpha" maskUnits="userSpaceOnUse" x="0" y="0" width="40" height="40">
<rect width="40" height="40" fill="#D9D9D9"/>
</mask>
<g mask="url(#mask0_346_17469)">
<path d="M30.0002 35.0001H11.6668V13.3334L23.3335 1.66675L25.4168 3.75008C25.6113 3.94453 25.771 4.20841 25.896 4.54175C26.021 4.87508 26.0835 5.19453 26.0835 5.50008V6.08341L24.2502 13.3334H35.0002C35.889 13.3334 36.6668 13.6667 37.3335 14.3334C38.0002 15.0001 38.3335 15.7779 38.3335 16.6667V20.0001C38.3335 20.1945 38.3057 20.4029 38.2502 20.6251C38.1946 20.8473 38.1391 21.0556 38.0835 21.2501L33.0835 33.0001C32.8335 33.5556 32.4168 34.0279 31.8335 34.4167C31.2502 34.8056 30.6391 35.0001 30.0002 35.0001ZM15.0002 31.6667H30.0002L35.0002 20.0001V16.6667H20.0002L22.2502 7.50008L15.0002 14.7501V31.6667ZM11.6668 13.3334V16.6667H6.66683V31.6667H11.6668V35.0001H3.3335V13.3334H11.6668Z" fill="#2E7BEE"/>
</g>
</svg>
