<svg width="36" height="36" viewBox="0 0 36 36" fill="none" xmlns="http://www.w3.org/2000/svg">
<mask id="mask0_479_37584" style="mask-type:alpha" maskUnits="userSpaceOnUse" x="0" y="0" width="36" height="36">
<rect width="36" height="36" fill="#D9D9D9"/>
</mask>
<g mask="url(#mask0_479_37584)">
<path d="M19.65 33C19.475 33 19.3 32.9812 19.125 32.9437C18.95 32.9062 18.775 32.8625 18.6 32.8125L9.4875 29.4375C8.8875 29.2125 8.4125 28.8438 8.0625 28.3312C7.7125 27.8187 7.5375 27.2625 7.5375 26.6625C7.5375 26.5375 7.6 26.1875 7.725 25.6125L11.5125 15H9.3L13.275 9.0375C13.4 8.8875 13.4438 8.725 13.4062 8.55C13.3687 8.375 13.2875 8.225 13.1625 8.1L12.6375 7.575L5.025 14.175C4.6 14.525 4.28125 14.9437 4.06875 15.4312C3.85625 15.9187 3.75 16.4375 3.75 16.9875V26.25H1.5V16.9875C1.5 16.1125 1.68125 15.2812 2.04375 14.4937C2.40625 13.7062 2.9125 13.025 3.5625 12.45L12.75 4.5L14.5875 6.3375L15.075 4.9875C15.3 4.3875 15.6688 3.90625 16.1813 3.54375C16.6938 3.18125 17.2625 3 17.8875 3C18.0875 3 18.2688 3.0125 18.4313 3.0375C18.5938 3.0625 18.775 3.1125 18.975 3.1875L28.0875 6.5625C28.6875 6.7875 29.1625 7.1625 29.5125 7.6875C29.8625 8.2125 30.0375 8.775 30.0375 9.375C30.0375 9.525 29.975 9.8625 29.85 10.3875L28.9875 12.7875C29.7125 12.9125 30.3125 13.25 30.7875 13.8C31.2625 14.35 31.5 15 31.5 15.75C31.5 15.875 31.4938 16 31.4813 16.125C31.4688 16.25 31.4375 16.375 31.3875 16.5H31.5C32.325 16.5 33.0312 16.7937 33.6188 17.3812C34.2062 17.9688 34.5 18.675 34.5 19.5C34.5 20.1 34.3438 20.6375 34.0312 21.1125C33.7188 21.5875 33.3125 21.95 32.8125 22.2C32.8625 22.375 32.9062 22.5437 32.9437 22.7062C32.9812 22.8687 33 23.05 33 23.25C33 24.075 32.7063 24.7812 32.1188 25.3687C31.5312 25.9562 30.825 26.25 30 26.25H29.8875C29.9375 26.375 29.9688 26.5 29.9813 26.625C29.9938 26.75 30 26.875 30 27C30 27.825 29.7063 28.5312 29.1188 29.1187C28.5312 29.7062 27.825 30 27 30H22.8375L22.5 31.0125C22.3 31.6375 21.9312 32.125 21.3937 32.475C20.8562 32.825 20.275 33 19.65 33ZM20.625 27.2625L26.025 12.15L16.9125 8.775L11.5125 23.8875L20.625 27.2625ZM23.625 27.75H27C27.2 27.75 27.375 27.675 27.525 27.525C27.675 27.375 27.75 27.2 27.75 27C27.75 26.8 27.675 26.625 27.525 26.475C27.375 26.325 27.2 26.25 27 26.25H24.1875L23.625 27.75ZM24.975 24H30C30.2 24 30.375 23.925 30.525 23.775C30.675 23.625 30.75 23.45 30.75 23.25C30.75 23.05 30.675 22.875 30.525 22.725C30.375 22.575 30.2 22.5 30 22.5H25.5375L24.975 24ZM26.325 20.25H31.5C31.7 20.25 31.875 20.175 32.025 20.025C32.175 19.875 32.25 19.7 32.25 19.5C32.25 19.3 32.175 19.125 32.025 18.975C31.875 18.825 31.7 18.75 31.5 18.75H26.85L26.325 20.25ZM27.675 16.5H28.5C28.7 16.5 28.875 16.425 29.025 16.275C29.175 16.125 29.25 15.95 29.25 15.75C29.25 15.55 29.175 15.375 29.025 15.225C28.875 15.075 28.7 15 28.5 15H28.2L27.675 16.5Z" fill="#3C7BF6"/>
</g>
</svg>
