<svg width="40" height="40" viewBox="0 0 40 40" fill="none" xmlns="http://www.w3.org/2000/svg">
<mask id="mask0_346_20079" style="mask-type:alpha" maskUnits="userSpaceOnUse" x="0" y="0" width="40" height="40">
<rect width="40" height="40" fill="#D9D9D9"/>
</mask>
<g mask="url(#mask0_346_20079)">
<path d="M5.66732 30L3.33398 27.6667L12.1673 18.8333C13.1395 17.8611 14.3201 17.375 15.709 17.375C17.0979 17.375 18.2784 17.8611 19.2507 18.8333L21.1673 20.75C21.5007 21.0833 21.8965 21.25 22.3548 21.25C22.8132 21.25 23.209 21.0833 23.5423 20.75L30.959 13.3333H26.6673V10H36.6673V20H33.334V15.7083L25.8757 23.125C24.9034 24.0972 23.7229 24.5833 22.334 24.5833C20.9451 24.5833 19.7645 24.0972 18.7923 23.125L16.834 21.1667C16.5284 20.8611 16.1395 20.7083 15.6673 20.7083C15.1951 20.7083 14.8062 20.8611 14.5007 21.1667L5.66732 30Z" fill="#3C7BF6"/>
</g>
</svg>
