<svg width="40" height="40" viewBox="0 0 40 40" fill="none" xmlns="http://www.w3.org/2000/svg">
<mask id="mask0_435_21938" style="mask-type:alpha" maskUnits="userSpaceOnUse" x="0" y="0" width="40" height="40">
<rect width="40" height="40" fill="#D9D9D9"/>
</mask>
<g mask="url(#mask0_435_21938)">
<path d="M21.8327 36.6667C21.6382 36.6667 21.4438 36.6459 21.2493 36.6042C21.0549 36.5625 20.8605 36.5139 20.666 36.4584L10.541 32.7084C9.87435 32.4584 9.34657 32.0487 8.95768 31.4792C8.56879 30.9098 8.37435 30.2917 8.37435 29.625C8.37435 29.4862 8.44379 29.0973 8.58268 28.4584L12.791 16.6667H10.3327L14.7493 10.0417C14.8882 9.87504 14.9368 9.69449 14.8952 9.50004C14.8535 9.3056 14.7632 9.13893 14.6243 9.00004L14.041 8.41671L5.58268 15.75C5.11046 16.1389 4.75629 16.6042 4.52018 17.1459C4.28407 17.6875 4.16602 18.2639 4.16602 18.875V29.1667H1.66602V18.875C1.66602 17.9028 1.8674 16.9792 2.27018 16.1042C2.67296 15.2292 3.23546 14.4723 3.95768 13.8334L14.166 5.00004L16.2077 7.04171L16.7493 5.54171C16.9993 4.87504 17.4091 4.34032 17.9785 3.93754C18.548 3.53476 19.1799 3.33337 19.8743 3.33337C20.0966 3.33337 20.298 3.34726 20.4785 3.37504C20.6591 3.40282 20.8605 3.45837 21.0827 3.54171L31.2077 7.29171C31.8744 7.54171 32.4021 7.95837 32.791 8.54171C33.1799 9.12504 33.3743 9.75004 33.3743 10.4167C33.3743 10.5834 33.3049 10.9584 33.166 11.5417L32.2077 14.2084C33.0132 14.3473 33.6799 14.7223 34.2077 15.3334C34.7355 15.9445 34.9994 16.6667 34.9994 17.5C34.9994 17.6389 34.9924 17.7778 34.9785 17.9167C34.9646 18.0556 34.9299 18.1945 34.8744 18.3334H34.9994C35.916 18.3334 36.7007 18.6598 37.3535 19.3125C38.0063 19.9653 38.3327 20.75 38.3327 21.6667C38.3327 22.3334 38.1591 22.9306 37.8119 23.4584C37.4646 23.9862 37.0132 24.3889 36.4577 24.6667C36.5132 24.8612 36.5619 25.0487 36.6035 25.2292C36.6452 25.4098 36.666 25.6112 36.666 25.8334C36.666 26.75 36.3396 27.5348 35.6869 28.1875C35.0341 28.8403 34.2494 29.1667 33.3327 29.1667H33.2077C33.2632 29.3056 33.298 29.4445 33.3119 29.5834C33.3257 29.7223 33.3327 29.8612 33.3327 30C33.3327 30.9167 33.0063 31.7014 32.3535 32.3542C31.7007 33.007 30.916 33.3334 29.9993 33.3334H25.3744L24.9993 34.4584C24.7771 35.1528 24.3674 35.6945 23.7702 36.0834C23.173 36.4723 22.5271 36.6667 21.8327 36.6667ZM22.916 30.2917L28.916 13.5L18.791 9.75004L12.791 26.5417L22.916 30.2917ZM26.2493 30.8334H29.9993C30.2216 30.8334 30.416 30.75 30.5827 30.5834C30.7494 30.4167 30.8327 30.2223 30.8327 30C30.8327 29.7778 30.7494 29.5834 30.5827 29.4167C30.416 29.25 30.2216 29.1667 29.9993 29.1667H26.8743L26.2493 30.8334ZM27.7494 26.6667H33.3327C33.5549 26.6667 33.7494 26.5834 33.916 26.4167C34.0827 26.25 34.166 26.0556 34.166 25.8334C34.166 25.6112 34.0827 25.4167 33.916 25.25C33.7494 25.0834 33.5549 25 33.3327 25H28.3743L27.7494 26.6667ZM29.2494 22.5H34.9994C35.2216 22.5 35.416 22.4167 35.5827 22.25C35.7494 22.0834 35.8327 21.8889 35.8327 21.6667C35.8327 21.4445 35.7494 21.25 35.5827 21.0834C35.416 20.9167 35.2216 20.8334 34.9994 20.8334H29.8327L29.2494 22.5ZM30.7494 18.3334H31.666C31.8882 18.3334 32.0827 18.25 32.2494 18.0834C32.416 17.9167 32.4993 17.7223 32.4993 17.5C32.4993 17.2778 32.416 17.0834 32.2494 16.9167C32.0827 16.75 31.8882 16.6667 31.666 16.6667H31.3327L30.7494 18.3334Z" fill="white"/>
</g>
</svg>
