<svg width="40" height="40" viewBox="0 0 40 40" fill="none" xmlns="http://www.w3.org/2000/svg">
<mask id="mask0_346_18108" style="mask-type:alpha" maskUnits="userSpaceOnUse" x="0" y="0" width="40" height="40">
<rect width="40" height="40" fill="#D9D9D9"/>
</mask>
<g mask="url(#mask0_346_18108)">
<path d="M6.66699 33.3334V28.3334H13.3337V33.3334H6.66699ZM6.66699 26.6667V20.0001H13.3337V26.6667H6.66699ZM6.66699 18.3334V6.66675H13.3337V18.3334H6.66699ZM16.667 33.3334V21.6667H23.3337V33.3334H16.667ZM16.667 20.0001V13.3334H23.3337V20.0001H16.667ZM16.667 11.6667V6.66675H23.3337V11.6667H16.667ZM26.667 33.3334V30.0001H33.3337V33.3334H26.667ZM26.667 28.3334V21.6667H33.3337V28.3334H26.667ZM26.667 20.0001V6.66675H33.3337V20.0001H26.667Z" fill="#3C7BF6"/>
</g>
</svg>
