<svg width="40" height="40" viewBox="0 0 40 40" fill="none" xmlns="http://www.w3.org/2000/svg">
<mask id="mask0_346_18120" style="mask-type:alpha" maskUnits="userSpaceOnUse" x="0" y="0" width="40" height="40">
<rect width="40" height="40" fill="#D9D9D9"/>
</mask>
<g mask="url(#mask0_346_18120)">
<path d="M20.4583 25.8749C22.4028 25.8749 24.0556 25.2499 25.4167 23.9999C26.7778 22.7499 27.4583 21.236 27.4583 19.4583C27.4583 17.8749 26.9514 16.5346 25.9375 15.4374C24.9236 14.3402 23.6944 13.7916 22.25 13.7916C20.9444 13.7916 19.8403 14.2083 18.9375 15.0416C18.0347 15.8749 17.5833 16.9027 17.5833 18.1249C17.5833 18.6527 17.6875 19.1666 17.8958 19.6666C18.1042 20.1666 18.4028 20.6249 18.7917 21.0416L21.1667 18.6666C21.0833 18.611 21.0208 18.5416 20.9792 18.4583C20.9375 18.3749 20.9167 18.2777 20.9167 18.1666C20.9167 17.861 21.0417 17.618 21.2917 17.4374C21.5417 17.2569 21.8611 17.1666 22.25 17.1666C22.8056 17.1666 23.2639 17.3958 23.625 17.8541C23.9861 18.3124 24.1667 18.861 24.1667 19.4999C24.1667 20.361 23.8125 21.0902 23.1042 21.6874C22.3958 22.2846 21.5278 22.5833 20.5 22.5833C19.1944 22.5833 18.0903 22.0555 17.1875 20.9999C16.2847 19.9444 15.8333 18.6527 15.8333 17.1249C15.8333 16.3194 15.9861 15.5485 16.2917 14.8124C16.5972 14.0763 17.0278 13.4305 17.5833 12.8749L15.2083 10.4999C14.3194 11.361 13.6389 12.361 13.1667 13.4999C12.6944 14.6388 12.4583 15.8333 12.4583 17.0833C12.4583 19.5277 13.2361 21.6041 14.7917 23.3124C16.3472 25.0208 18.2361 25.8749 20.4583 25.8749ZM10 36.6666V29.4999C8.41667 28.0555 7.1875 26.368 6.3125 24.4374C5.4375 22.5069 5 20.4721 5 18.3333C5 14.1666 6.45833 10.6249 9.375 7.70825C12.2917 4.79159 15.8333 3.33325 20 3.33325C23.4722 3.33325 26.5486 4.35409 29.2292 6.39575C31.9097 8.43742 33.6528 11.0971 34.4583 14.3749L36.625 22.9166C36.7639 23.4444 36.6667 23.9235 36.3333 24.3541C36 24.7846 35.5556 24.9999 35 24.9999H31.6667V29.9999C31.6667 30.9166 31.3403 31.7013 30.6875 32.3541C30.0347 33.0069 29.25 33.3333 28.3333 33.3333H25V36.6666H21.6667V29.9999H28.3333V21.6666H32.8333L31.25 15.2083C30.6111 12.6805 29.25 10.6249 27.1667 9.04158C25.0833 7.45825 22.6944 6.66659 20 6.66659C16.7778 6.66659 14.0278 7.79159 11.75 10.0416C9.47222 12.2916 8.33333 15.0277 8.33333 18.2499C8.33333 19.9166 8.67361 21.4999 9.35417 22.9999C10.0347 24.4999 11 25.8333 12.25 26.9999L13.3333 27.9999V36.6666H10Z" fill="#3C7BF6"/>
</g>
</svg>
