<svg width="36" height="36" viewBox="0 0 36 36" fill="none" xmlns="http://www.w3.org/2000/svg">
<mask id="mask0_479_37591" style="mask-type:alpha" maskUnits="userSpaceOnUse" x="0" y="0" width="36" height="36">
<rect width="36" height="36" fill="#D9D9D9"/>
</mask>
<g mask="url(#mask0_479_37591)">
<path d="M3 30V25.5H6V9C6 8.175 6.29375 7.46875 6.88125 6.88125C7.46875 6.29375 8.175 6 9 6H31.5V9H9V25.5H18V30H3ZM22.5 30C22.075 30 21.7188 29.8563 21.4312 29.5688C21.1437 29.2812 21 28.925 21 28.5V13.5C21 13.075 21.1437 12.7188 21.4312 12.4312C21.7188 12.1437 22.075 12 22.5 12H31.5C31.925 12 32.2812 12.1437 32.5687 12.4312C32.8562 12.7188 33 13.075 33 13.5V28.5C33 28.925 32.8562 29.2812 32.5687 29.5688C32.2812 29.8563 31.925 30 31.5 30H22.5ZM24 25.5H30V15H24V25.5Z" fill="#3C7BF6"/>
</g>
</svg>
