<svg width="40" height="40" viewBox="0 0 40 40" fill="none" xmlns="http://www.w3.org/2000/svg">
<mask id="mask0_346_17438" style="mask-type:alpha" maskUnits="userSpaceOnUse" x="0" y="0" width="40" height="40">
<rect width="40" height="40" fill="#D9D9D9"/>
</mask>
<g mask="url(#mask0_346_17438)">
<path d="M26.6666 36.6666V32.9166C25.111 32.4166 23.8055 31.5277 22.7499 30.2499C21.6944 28.9721 21.0833 27.4999 20.9166 25.8333H24.2499C24.4721 27.0277 25.0346 28.0208 25.9374 28.8124C26.8402 29.6041 27.9166 29.9999 29.1666 29.9999H34.1666C34.861 29.9999 35.4513 30.243 35.9374 30.7291C36.4235 31.2152 36.6666 31.8055 36.6666 32.4999V36.6666H26.6666ZM31.6666 28.3333C30.7499 28.3333 29.9652 28.0069 29.3124 27.3541C28.6596 26.7013 28.3333 25.9166 28.3333 24.9999C28.3333 24.0833 28.6596 23.2985 29.3124 22.6458C29.9652 21.993 30.7499 21.6666 31.6666 21.6666C32.5833 21.6666 33.368 21.993 34.0208 22.6458C34.6735 23.2985 34.9999 24.0833 34.9999 24.9999C34.9999 25.9166 34.6735 26.7013 34.0208 27.3541C33.368 28.0069 32.5833 28.3333 31.6666 28.3333ZM14.9999 23.3333C14.9999 19.1666 16.4583 15.6249 19.3749 12.7083C22.2916 9.79158 25.8333 8.33325 29.9999 8.33325V11.6666C26.7499 11.6666 23.993 12.7985 21.7291 15.0624C19.4652 17.3263 18.3333 20.0833 18.3333 23.3333H14.9999ZM21.6666 23.3333C21.6666 21.0277 22.4791 19.0624 24.1041 17.4374C25.7291 15.8124 27.6944 14.9999 29.9999 14.9999V18.3333C28.611 18.3333 27.4305 18.8194 26.4583 19.7916C25.486 20.7638 24.9999 21.9444 24.9999 23.3333H21.6666ZM3.33325 18.3333V14.1666C3.33325 13.4721 3.57631 12.8819 4.06242 12.3958C4.54853 11.9096 5.13881 11.6666 5.83325 11.6666H10.8333C12.0833 11.6666 13.1596 11.2708 14.0624 10.4791C14.9652 9.68742 15.5277 8.69436 15.7499 7.49992H19.0833C18.9166 9.16658 18.3055 10.6388 17.2499 11.9166C16.1944 13.1944 14.8888 14.0833 13.3333 14.5833V18.3333H3.33325ZM8.33325 9.99992C7.41658 9.99992 6.63186 9.67353 5.97909 9.02075C5.32631 8.36797 4.99992 7.58325 4.99992 6.66659C4.99992 5.74992 5.32631 4.9652 5.97909 4.31242C6.63186 3.65964 7.41658 3.33325 8.33325 3.33325C9.24992 3.33325 10.0346 3.65964 10.6874 4.31242C11.3402 4.9652 11.6666 5.74992 11.6666 6.66659C11.6666 7.58325 11.3402 8.36797 10.6874 9.02075C10.0346 9.67353 9.24992 9.99992 8.33325 9.99992Z" fill="#2E7BEE"/>
</g>
</svg>
