<svg width="40" height="40" viewBox="0 0 40 40" fill="none" xmlns="http://www.w3.org/2000/svg">
<mask id="mask0_377_24405" style="mask-type:alpha" maskUnits="userSpaceOnUse" x="0" y="0" width="40" height="40">
<rect width="40" height="40" fill="#D9D9D9"/>
</mask>
<g mask="url(#mask0_377_24405)">
<path d="M6.66667 35V27.9167L28.625 6C28.9583 5.66667 29.3333 5.41667 29.75 5.25C30.1667 5.08333 30.5833 5 31 5C31.4444 5 31.8681 5.08333 32.2708 5.25C32.6736 5.41667 33.0278 5.66667 33.3333 6L35.6667 8.33333C36 8.63889 36.25 8.99306 36.4167 9.39583C36.5833 9.79861 36.6667 10.2222 36.6667 10.6667C36.6667 11.0833 36.5833 11.5 36.4167 11.9167C36.25 12.3333 36 12.7083 35.6667 13.0417L13.75 35H6.66667ZM10 31.6667H12.3333L28.7083 15.3333L27.5417 14.125L26.3333 12.9583L10 29.3333V31.6667ZM27.5417 14.125L26.3333 12.9583L28.7083 15.3333L27.5417 14.125ZM23.3333 35C25.3889 35 27.2917 34.4861 29.0417 33.4583C30.7917 32.4306 31.6667 31 31.6667 29.1667C31.6667 28.1667 31.4028 27.3056 30.875 26.5833C30.3472 25.8611 29.6389 25.2361 28.75 24.7083L26.2917 27.1667C26.9306 27.4444 27.4306 27.75 27.7917 28.0833C28.1528 28.4167 28.3333 28.7778 28.3333 29.1667C28.3333 29.8056 27.8264 30.3819 26.8125 30.8958C25.7986 31.4097 24.6389 31.6667 23.3333 31.6667C22.8611 31.6667 22.4653 31.8264 22.1458 32.1458C21.8264 32.4653 21.6667 32.8611 21.6667 33.3333C21.6667 33.8056 21.8264 34.2014 22.1458 34.5208C22.4653 34.8403 22.8611 35 23.3333 35ZM7.625 22.25L10.125 19.75C9.56944 19.5278 9.13194 19.2986 8.8125 19.0625C8.49306 18.8264 8.33333 18.5833 8.33333 18.3333C8.33333 18 8.58333 17.6667 9.08333 17.3333C9.58333 17 10.6389 16.4861 12.25 15.7917C14.6944 14.7361 16.3194 13.7778 17.125 12.9167C17.9306 12.0556 18.3333 11.0833 18.3333 10C18.3333 8.47222 17.7222 7.25694 16.5 6.35417C15.2778 5.45139 13.6667 5 11.6667 5C10.4167 5 9.29861 5.22222 8.3125 5.66667C7.32639 6.11111 6.56944 6.65278 6.04167 7.29167C5.73611 7.65278 5.61111 8.05556 5.66667 8.5C5.72222 8.94444 5.93056 9.30556 6.29167 9.58333C6.65278 9.88889 7.05556 10.0139 7.5 9.95833C7.94444 9.90278 8.31944 9.72222 8.625 9.41667C9.01389 9.02778 9.44444 8.75 9.91667 8.58333C10.3889 8.41667 10.9722 8.33333 11.6667 8.33333C12.8056 8.33333 13.6458 8.5 14.1875 8.83333C14.7292 9.16667 15 9.55556 15 10C15 10.3889 14.7569 10.7431 14.2708 11.0625C13.7847 11.3819 12.6667 11.9444 10.9167 12.75C8.69444 13.7222 7.15278 14.6042 6.29167 15.3958C5.43056 16.1875 5 17.1667 5 18.3333C5 19.2222 5.23611 19.9792 5.70833 20.6042C6.18056 21.2292 6.81944 21.7778 7.625 22.25Z" fill="white"/>
</g>
</svg>
