<svg width="40" height="40" viewBox="0 0 40 40" fill="none" xmlns="http://www.w3.org/2000/svg">
<mask id="mask0_435_21930" style="mask-type:alpha" maskUnits="userSpaceOnUse" x="0" y="0" width="40" height="40">
<rect width="40" height="40" fill="#D9D9D9"/>
</mask>
<g mask="url(#mask0_435_21930)">
<path d="M6.66732 33.3333C5.75065 33.3333 4.96593 33.0069 4.31315 32.3541C3.66037 31.7013 3.33398 30.9166 3.33398 29.9999V9.99992C3.33398 9.08325 3.66037 8.29853 4.31315 7.64575C4.96593 6.99297 5.75065 6.66659 6.66732 6.66659H23.5007C23.3895 7.22214 23.334 7.7777 23.334 8.33325C23.334 8.88881 23.3895 9.44436 23.5007 9.99992H6.66732L20.0007 18.3333L26.084 14.5416C26.4729 14.9027 26.8965 15.2152 27.3548 15.4791C27.8132 15.743 28.2923 15.9721 28.7923 16.1666L20.0007 21.6666L6.66732 13.3333V29.9999H33.334V16.4999C33.9729 16.361 34.5701 16.1666 35.1257 15.9166C35.6812 15.6666 36.1951 15.361 36.6673 14.9999V29.9999C36.6673 30.9166 36.3409 31.7013 35.6882 32.3541C35.0354 33.0069 34.2507 33.3333 33.334 33.3333H6.66732ZM31.6673 13.3333C30.2784 13.3333 29.0979 12.8471 28.1257 11.8749C27.1534 10.9027 26.6673 9.72214 26.6673 8.33325C26.6673 6.94436 27.1534 5.76381 28.1257 4.79159C29.0979 3.81936 30.2784 3.33325 31.6673 3.33325C33.0562 3.33325 34.2368 3.81936 35.209 4.79159C36.1812 5.76381 36.6673 6.94436 36.6673 8.33325C36.6673 9.72214 36.1812 10.9027 35.209 11.8749C34.2368 12.8471 33.0562 13.3333 31.6673 13.3333Z" fill="white"/>
</g>
</svg>
