<svg width="40" height="40" viewBox="0 0 40 40" fill="none" xmlns="http://www.w3.org/2000/svg">
<mask id="mask0_435_19794" style="mask-type:alpha" maskUnits="userSpaceOnUse" x="0" y="0" width="40" height="40">
<rect width="40" height="40" fill="white"/>
</mask>
<g mask="url(#mask0_435_19794)">
<path d="M25.4163 8.3335C24.833 8.3335 24.34 8.13211 23.9372 7.72933C23.5344 7.32655 23.333 6.8335 23.333 6.25016C23.333 5.66683 23.5344 5.17377 23.9372 4.771C24.34 4.36822 24.833 4.16683 25.4163 4.16683C25.9997 4.16683 26.4927 4.36822 26.8955 4.771C27.2983 5.17377 27.4997 5.66683 27.4997 6.25016C27.4997 6.8335 27.2983 7.32655 26.8955 7.72933C26.4927 8.13211 25.9997 8.3335 25.4163 8.3335ZM25.4163 35.8335C24.833 35.8335 24.34 35.6321 23.9372 35.2293C23.5344 34.8266 23.333 34.3335 23.333 33.7502C23.333 33.1668 23.5344 32.6738 23.9372 32.271C24.34 31.8682 24.833 31.6668 25.4163 31.6668C25.9997 31.6668 26.4927 31.8682 26.8955 32.271C27.2983 32.6738 27.4997 33.1668 27.4997 33.7502C27.4997 34.3335 27.2983 34.8266 26.8955 35.2293C26.4927 35.6321 25.9997 35.8335 25.4163 35.8335ZM32.083 14.1668C31.4997 14.1668 31.0066 13.9654 30.6038 13.5627C30.2011 13.1599 29.9997 12.6668 29.9997 12.0835C29.9997 11.5002 30.2011 11.0071 30.6038 10.6043C31.0066 10.2016 31.4997 10.0002 32.083 10.0002C32.6663 10.0002 33.1594 10.2016 33.5622 10.6043C33.965 11.0071 34.1663 11.5002 34.1663 12.0835C34.1663 12.6668 33.965 13.1599 33.5622 13.5627C33.1594 13.9654 32.6663 14.1668 32.083 14.1668ZM32.083 30.0002C31.4997 30.0002 31.0066 29.7988 30.6038 29.396C30.2011 28.9932 29.9997 28.5002 29.9997 27.9168C29.9997 27.3335 30.2011 26.8404 30.6038 26.4377C31.0066 26.0349 31.4997 25.8335 32.083 25.8335C32.6663 25.8335 33.1594 26.0349 33.5622 26.4377C33.965 26.8404 34.1663 27.3335 34.1663 27.9168C34.1663 28.5002 33.965 28.9932 33.5622 29.396C33.1594 29.7988 32.6663 30.0002 32.083 30.0002ZM34.583 22.0835C33.9997 22.0835 33.5066 21.8821 33.1038 21.4793C32.7011 21.0766 32.4997 20.5835 32.4997 20.0002C32.4997 19.4168 32.7011 18.9238 33.1038 18.521C33.5066 18.1182 33.9997 17.9168 34.583 17.9168C35.1663 17.9168 35.6594 18.1182 36.0622 18.521C36.465 18.9238 36.6663 19.4168 36.6663 20.0002C36.6663 20.5835 36.465 21.0766 36.0622 21.4793C35.6594 21.8821 35.1663 22.0835 34.583 22.0835ZM19.9997 36.6668C17.6941 36.6668 15.5275 36.2293 13.4997 35.3543C11.4719 34.4793 9.70801 33.2918 8.20801 31.7918C6.70801 30.2918 5.52051 28.5279 4.64551 26.5002C3.77051 24.4724 3.33301 22.3057 3.33301 20.0002C3.33301 17.6946 3.77051 15.5279 4.64551 13.5002C5.52051 11.4724 6.70801 9.7085 8.20801 8.2085C9.70801 6.7085 11.4719 5.521 13.4997 4.646C15.5275 3.771 17.6941 3.3335 19.9997 3.3335V6.66683C16.2775 6.66683 13.1247 7.9585 10.5413 10.5418C7.95801 13.1252 6.66634 16.2779 6.66634 20.0002C6.66634 23.7224 7.95801 26.8752 10.5413 29.4585C13.1247 32.0418 16.2775 33.3335 19.9997 33.3335V36.6668ZM19.9997 23.3335C19.083 23.3335 18.2983 23.0071 17.6455 22.3543C16.9927 21.7016 16.6663 20.9168 16.6663 20.0002C16.6663 19.8613 16.6733 19.7154 16.6872 19.5627C16.7011 19.4099 16.7358 19.2641 16.7913 19.1252L13.333 15.6668L15.6663 13.3335L19.1247 16.7918C19.2358 16.7641 19.5275 16.7224 19.9997 16.6668C20.9163 16.6668 21.7011 16.9932 22.3538 17.646C23.0066 18.2988 23.333 19.0835 23.333 20.0002C23.333 20.9168 23.0066 21.7016 22.3538 22.3543C21.7011 23.0071 20.9163 23.3335 19.9997 23.3335Z" fill="white"/>
</g>
</svg>
