<svg width="41" height="40" viewBox="0 0 41 40" fill="none" xmlns="http://www.w3.org/2000/svg">
<mask id="mask0_377_24516" style="mask-type:alpha" maskUnits="userSpaceOnUse" x="0" y="0" width="41" height="40">
<rect x="0.332031" width="40" height="40" fill="#D9D9D9"/>
</mask>
<g mask="url(#mask0_377_24516)">
<path d="M33.5814 26.5834L30.998 24.0001C32.2203 22.8612 33.1786 21.514 33.873 19.9584C34.5675 18.4029 34.9147 16.7501 34.9147 15.0001C34.9147 13.2501 34.5675 11.6112 33.873 10.0834C33.1786 8.55564 32.2203 7.2223 30.998 6.08341L33.5814 3.41675C35.1369 4.88897 36.3731 6.62508 37.2897 8.62508C38.2064 10.6251 38.6647 12.7501 38.6647 15.0001C38.6647 17.2501 38.2064 19.3751 37.2897 21.3751C36.3731 23.3751 35.1369 25.1112 33.5814 26.5834ZM28.248 21.2501L25.5814 18.5834C26.0814 18.1112 26.4842 17.5765 26.7897 16.9792C27.0953 16.382 27.248 15.7223 27.248 15.0001C27.248 14.2779 27.0953 13.6181 26.7897 13.0209C26.4842 12.4237 26.0814 11.889 25.5814 11.4167L28.248 8.75008C29.1369 9.55564 29.8314 10.4931 30.3314 11.5626C30.8314 12.632 31.0814 13.7779 31.0814 15.0001C31.0814 16.2223 30.8314 17.3681 30.3314 18.4376C29.8314 19.507 29.1369 20.4445 28.248 21.2501ZM15.3314 21.6667C13.498 21.6667 11.9286 21.014 10.623 19.7084C9.31749 18.4029 8.66471 16.8334 8.66471 15.0001C8.66471 13.1667 9.31749 11.5973 10.623 10.2917C11.9286 8.98619 13.498 8.33341 15.3314 8.33341C17.1647 8.33341 18.7342 8.98619 20.0397 10.2917C21.3453 11.5973 21.998 13.1667 21.998 15.0001C21.998 16.8334 21.3453 18.4029 20.0397 19.7084C18.7342 21.014 17.1647 21.6667 15.3314 21.6667ZM1.99805 35.0001V30.3334C1.99805 29.4167 2.23416 28.5556 2.70638 27.7501C3.1786 26.9445 3.83138 26.3334 4.66471 25.9167C6.08138 25.1945 7.6786 24.5834 9.45638 24.0834C11.2342 23.5834 13.1925 23.3334 15.3314 23.3334C17.4703 23.3334 19.4286 23.5834 21.2064 24.0834C22.9842 24.5834 24.5814 25.1945 25.998 25.9167C26.8314 26.3334 27.4842 26.9445 27.9564 27.7501C28.4286 28.5556 28.6647 29.4167 28.6647 30.3334V35.0001H1.99805ZM5.33138 31.6667H25.3314V30.3334C25.3314 30.0279 25.255 29.7501 25.1022 29.5001C24.9494 29.2501 24.748 29.0556 24.498 28.9167C23.498 28.4167 22.2133 27.9167 20.6439 27.4167C19.0744 26.9167 17.3036 26.6667 15.3314 26.6667C13.3592 26.6667 11.5883 26.9167 10.0189 27.4167C8.44944 27.9167 7.16471 28.4167 6.16471 28.9167C5.91471 29.0556 5.71333 29.2501 5.56055 29.5001C5.40777 29.7501 5.33138 30.0279 5.33138 30.3334V31.6667ZM15.3314 18.3334C16.248 18.3334 17.0328 18.007 17.6855 17.3542C18.3383 16.7015 18.6647 15.9167 18.6647 15.0001C18.6647 14.0834 18.3383 13.2987 17.6855 12.6459C17.0328 11.9931 16.248 11.6667 15.3314 11.6667C14.4147 11.6667 13.63 11.9931 12.9772 12.6459C12.3244 13.2987 11.998 14.0834 11.998 15.0001C11.998 15.9167 12.3244 16.7015 12.9772 17.3542C13.63 18.007 14.4147 18.3334 15.3314 18.3334Z" fill="white"/>
</g>
</svg>
