<svg width="36" height="36" viewBox="0 0 36 36" fill="none" xmlns="http://www.w3.org/2000/svg">
<mask id="mask0_479_37850" style="mask-type:alpha" maskUnits="userSpaceOnUse" x="0" y="0" width="36" height="36">
<rect width="36" height="36" fill="#D9D9D9"/>
</mask>
<g mask="url(#mask0_479_37850)">
<path d="M32.4 34.5L27.7875 29.925C27.3375 30.2 26.8563 30.4063 26.3438 30.5438C25.8312 30.6813 25.3 30.75 24.75 30.75C23.1 30.75 21.6875 30.1625 20.5125 28.9875C19.3375 27.8125 18.75 26.4 18.75 24.75C18.75 23.1 19.3375 21.6875 20.5125 20.5125C21.6875 19.3375 23.1 18.75 24.75 18.75C26.4 18.75 27.8125 19.3375 28.9875 20.5125C30.1625 21.6875 30.75 23.1 30.75 24.75C30.75 25.325 30.675 25.8687 30.525 26.3812C30.375 26.8937 30.1625 27.375 29.8875 27.825L34.5 32.4L32.4 34.5ZM8.25 30.75C6.6 30.75 5.1875 30.1625 4.0125 28.9875C2.8375 27.8125 2.25 26.4 2.25 24.75C2.25 23.1 2.8375 21.6875 4.0125 20.5125C5.1875 19.3375 6.6 18.75 8.25 18.75C9.9 18.75 11.3125 19.3375 12.4875 20.5125C13.6625 21.6875 14.25 23.1 14.25 24.75C14.25 26.4 13.6625 27.8125 12.4875 28.9875C11.3125 30.1625 9.9 30.75 8.25 30.75ZM8.25 27.75C9.075 27.75 9.78125 27.4563 10.3687 26.8688C10.9563 26.2812 11.25 25.575 11.25 24.75C11.25 23.925 10.9563 23.2188 10.3687 22.6313C9.78125 22.0438 9.075 21.75 8.25 21.75C7.425 21.75 6.71875 22.0438 6.13125 22.6313C5.54375 23.2188 5.25 23.925 5.25 24.75C5.25 25.575 5.54375 26.2812 6.13125 26.8688C6.71875 27.4563 7.425 27.75 8.25 27.75ZM24.75 27.75C25.575 27.75 26.2812 27.4563 26.8688 26.8688C27.4563 26.2812 27.75 25.575 27.75 24.75C27.75 23.925 27.4563 23.2188 26.8688 22.6313C26.2812 22.0438 25.575 21.75 24.75 21.75C23.925 21.75 23.2188 22.0438 22.6313 22.6313C22.0438 23.2188 21.75 23.925 21.75 24.75C21.75 25.575 22.0438 26.2812 22.6313 26.8688C23.2188 27.4563 23.925 27.75 24.75 27.75ZM8.25 14.25C6.6 14.25 5.1875 13.6625 4.0125 12.4875C2.8375 11.3125 2.25 9.9 2.25 8.25C2.25 6.6 2.8375 5.1875 4.0125 4.0125C5.1875 2.8375 6.6 2.25 8.25 2.25C9.9 2.25 11.3125 2.8375 12.4875 4.0125C13.6625 5.1875 14.25 6.6 14.25 8.25C14.25 9.9 13.6625 11.3125 12.4875 12.4875C11.3125 13.6625 9.9 14.25 8.25 14.25ZM24.75 14.25C23.1 14.25 21.6875 13.6625 20.5125 12.4875C19.3375 11.3125 18.75 9.9 18.75 8.25C18.75 6.6 19.3375 5.1875 20.5125 4.0125C21.6875 2.8375 23.1 2.25 24.75 2.25C26.4 2.25 27.8125 2.8375 28.9875 4.0125C30.1625 5.1875 30.75 6.6 30.75 8.25C30.75 9.9 30.1625 11.3125 28.9875 12.4875C27.8125 13.6625 26.4 14.25 24.75 14.25ZM8.25 11.25C9.075 11.25 9.78125 10.9563 10.3687 10.3687C10.9563 9.78125 11.25 9.075 11.25 8.25C11.25 7.425 10.9563 6.71875 10.3687 6.13125C9.78125 5.54375 9.075 5.25 8.25 5.25C7.425 5.25 6.71875 5.54375 6.13125 6.13125C5.54375 6.71875 5.25 7.425 5.25 8.25C5.25 9.075 5.54375 9.78125 6.13125 10.3687C6.71875 10.9563 7.425 11.25 8.25 11.25ZM24.75 11.25C25.575 11.25 26.2812 10.9563 26.8688 10.3687C27.4563 9.78125 27.75 9.075 27.75 8.25C27.75 7.425 27.4563 6.71875 26.8688 6.13125C26.2812 5.54375 25.575 5.25 24.75 5.25C23.925 5.25 23.2188 5.54375 22.6313 6.13125C22.0438 6.71875 21.75 7.425 21.75 8.25C21.75 9.075 22.0438 9.78125 22.6313 10.3687C23.2188 10.9563 23.925 11.25 24.75 11.25Z" fill="#3C7BF6"/>
</g>
</svg>
