<svg width="40" height="40" viewBox="0 0 40 40" fill="none" xmlns="http://www.w3.org/2000/svg">
<mask id="mask0_377_24528" style="mask-type:alpha" maskUnits="userSpaceOnUse" x="0" y="0" width="40" height="40">
<rect width="40" height="40" fill="#D9D9D9"/>
</mask>
<g mask="url(#mask0_377_24528)">
<path d="M19.9993 36.6666C19.2771 36.6666 18.6243 36.493 18.041 36.1458C17.4577 35.7985 16.9993 35.3333 16.666 34.7499C15.7493 34.7499 14.9646 34.4235 14.3118 33.7708C13.6591 33.118 13.3327 32.3333 13.3327 31.4166V25.4999C11.6938 24.4166 10.3813 22.986 9.39518 21.2083C8.40907 19.4305 7.91602 17.4999 7.91602 15.4166C7.91602 12.0555 9.08963 9.20131 11.4368 6.85409C13.7841 4.50686 16.6382 3.33325 19.9993 3.33325C23.3605 3.33325 26.2146 4.50686 28.5618 6.85409C30.9091 9.20131 32.0827 12.0555 32.0827 15.4166C32.0827 17.5555 31.5896 19.4999 30.6035 21.2499C29.6174 22.9999 28.3049 24.4166 26.666 25.4999V31.4166C26.666 32.3333 26.3396 33.118 25.6868 33.7708C25.0341 34.4235 24.2493 34.7499 23.3327 34.7499C22.9993 35.3333 22.541 35.7985 21.9577 36.1458C21.3743 36.493 20.7216 36.6666 19.9993 36.6666ZM16.666 31.4166H23.3327V29.9166H16.666V31.4166ZM16.666 28.2499H23.3327V26.6666H16.666V28.2499ZM16.3327 23.3333H18.7493V18.8333L15.0827 15.1666L16.8327 13.4166L19.9993 16.5833L23.166 13.4166L24.916 15.1666L21.2493 18.8333V23.3333H23.666C25.166 22.611 26.3882 21.5485 27.3327 20.1458C28.2771 18.743 28.7493 17.1666 28.7493 15.4166C28.7493 12.9721 27.9021 10.9027 26.2077 9.20825C24.5132 7.51381 22.4438 6.66659 19.9993 6.66659C17.5549 6.66659 15.4855 7.51381 13.791 9.20825C12.0966 10.9027 11.2493 12.9721 11.2493 15.4166C11.2493 17.1666 11.7216 18.743 12.666 20.1458C13.6105 21.5485 14.8327 22.611 16.3327 23.3333Z" fill="white"/>
</g>
</svg>
