<svg width="40" height="40" viewBox="0 0 40 40" fill="none" xmlns="http://www.w3.org/2000/svg">
<mask id="mask0_346_18127" style="mask-type:alpha" maskUnits="userSpaceOnUse" x="0" y="0" width="40" height="40">
<rect width="40" height="40" fill="#D9D9D9"/>
</mask>
<g mask="url(#mask0_346_18127)">
<path d="M20.0003 23.3334L16.667 20.0001L20.0003 16.6667L23.3337 20.0001L20.0003 23.3334ZM16.4587 13.5417L12.292 9.37508L20.0003 1.66675L27.7087 9.37508L23.542 13.5417L20.0003 10.0001L16.4587 13.5417ZM9.37533 27.7084L1.66699 20.0001L9.37533 12.2917L13.542 16.4584L10.0003 20.0001L13.542 23.5417L9.37533 27.7084ZM30.6253 27.7084L26.4587 23.5417L30.0003 20.0001L26.4587 16.4584L30.6253 12.2917L38.3337 20.0001L30.6253 27.7084ZM20.0003 38.3334L12.292 30.6251L16.4587 26.4584L20.0003 30.0001L23.542 26.4584L27.7087 30.6251L20.0003 38.3334Z" fill="#3C7BF6"/>
</g>
</svg>
