<svg width="36" height="36" viewBox="0 0 36 36" fill="none" xmlns="http://www.w3.org/2000/svg">
<mask id="mask0_479_37599" style="mask-type:alpha" maskUnits="userSpaceOnUse" x="0" y="0" width="36" height="36">
<rect width="36" height="36" fill="#D9D9D9"/>
</mask>
<g mask="url(#mask0_479_37599)">
<path d="M4.5 31.5V24H10.5L16.5 18V13.2C15.6 12.875 14.875 12.3313 14.325 11.5688C13.775 10.8063 13.5 9.95 13.5 9C13.5 7.75 13.9375 6.6875 14.8125 5.8125C15.6875 4.9375 16.75 4.5 18 4.5C19.25 4.5 20.3125 4.9375 21.1875 5.8125C22.0625 6.6875 22.5 7.75 22.5 9C22.5 9.95 22.225 10.8063 21.675 11.5688C21.125 12.3313 20.4 12.875 19.5 13.2V18L25.5 24H31.5V31.5H24V26.925L18 20.925L12 26.925V31.5H4.5Z" fill="#3C7BF6"/>
</g>
</svg>
