<svg width="40" height="40" viewBox="0 0 40 40" fill="none" xmlns="http://www.w3.org/2000/svg">
<mask id="mask0_382_17837" style="mask-type:alpha" maskUnits="userSpaceOnUse" x="0" y="0" width="40" height="40">
<rect width="40" height="40" fill="#D9D9D9"/>
</mask>
<g mask="url(#mask0_382_17837)">
<path d="M10.0003 36.6666C9.08366 36.6666 8.29894 36.3402 7.64616 35.6874C6.99338 35.0346 6.66699 34.2499 6.66699 33.3333V13.3333C6.66699 12.4166 6.99338 11.6319 7.64616 10.9791C8.29894 10.3263 9.08366 9.99992 10.0003 9.99992H13.3337C13.3337 8.16658 13.9864 6.59714 15.292 5.29159C16.5975 3.98603 18.167 3.33325 20.0003 3.33325C21.8337 3.33325 23.4031 3.98603 24.7087 5.29159C26.0142 6.59714 26.667 8.16658 26.667 9.99992H30.0003C30.917 9.99992 31.7017 10.3263 32.3545 10.9791C33.0073 11.6319 33.3337 12.4166 33.3337 13.3333V33.3333C33.3337 34.2499 33.0073 35.0346 32.3545 35.6874C31.7017 36.3402 30.917 36.6666 30.0003 36.6666H10.0003ZM10.0003 33.3333H30.0003V13.3333H26.667V16.6666C26.667 17.1388 26.5073 17.5346 26.1878 17.8541C25.8684 18.1735 25.4725 18.3333 25.0003 18.3333C24.5281 18.3333 24.1323 18.1735 23.8128 17.8541C23.4934 17.5346 23.3337 17.1388 23.3337 16.6666V13.3333H16.667V16.6666C16.667 17.1388 16.5073 17.5346 16.1878 17.8541C15.8684 18.1735 15.4725 18.3333 15.0003 18.3333C14.5281 18.3333 14.1323 18.1735 13.8128 17.8541C13.4934 17.5346 13.3337 17.1388 13.3337 16.6666V13.3333H10.0003V33.3333ZM16.667 9.99992H23.3337C23.3337 9.08325 23.0073 8.29853 22.3545 7.64575C21.7017 6.99297 20.917 6.66659 20.0003 6.66659C19.0837 6.66659 18.2989 6.99297 17.6462 7.64575C16.9934 8.29853 16.667 9.08325 16.667 9.99992Z" fill="white"/>
</g>
</svg>
