<svg width="40" height="40" viewBox="0 0 40 40" fill="none" xmlns="http://www.w3.org/2000/svg">
<mask id="mask0_346_20104" style="mask-type:alpha" maskUnits="userSpaceOnUse" x="0" y="0" width="40" height="40">
<rect x="40" y="40" width="40" height="40" transform="rotate(180 40 40)" fill="#D9D9D9"/>
</mask>
<g mask="url(#mask0_346_20104)">
<path d="M38.334 11.6667C38.334 14.1944 37.8548 16.5694 36.8965 18.7917C35.9382 21.0139 34.6257 22.9583 32.959 24.625C31.2923 26.2917 29.3479 27.6042 27.1257 28.5625C24.9034 29.5208 22.5284 30 20.0007 30C17.4729 30 15.0979 29.5208 12.8756 28.5625C10.6534 27.6042 8.70898 26.2917 7.04232 24.625C5.37565 22.9583 4.06315 21.0139 3.10482 18.7917C2.14648 16.5694 1.66732 14.1944 1.66731 11.6667L5.00065 11.6667C5.00065 15.8056 6.46592 19.3403 9.39648 22.2708C12.327 25.2014 15.8618 26.6667 20.0007 26.6667C24.1395 26.6667 27.6743 25.2014 30.6048 22.2708C33.5354 19.3403 35.0006 15.8056 35.0006 11.6667L38.334 11.6667ZM31.6673 11.6667C31.6673 14.8889 30.5284 17.6389 28.2506 19.9167C25.9729 22.1944 23.2229 23.3333 20.0006 23.3333C16.7784 23.3333 14.0284 22.1944 11.7506 19.9167C9.47287 17.6389 8.33398 14.8889 8.33398 11.6667L11.6673 11.6667C11.6673 13.9722 12.4798 15.9375 14.1048 17.5625C15.7298 19.1875 17.6951 20 20.0006 20C22.3062 20 24.2715 19.1875 25.8965 17.5625C27.5215 15.9375 28.334 13.9722 28.334 11.6667L31.6673 11.6667Z" fill="#3C7BF6"/>
</g>
</svg>
