<svg width="40" height="40" viewBox="0 0 40 40" fill="none" xmlns="http://www.w3.org/2000/svg">
<mask id="mask0_377_24546" style="mask-type:alpha" maskUnits="userSpaceOnUse" x="0" y="0" width="40" height="40">
<rect width="40" height="40" fill="#D9D9D9"/>
</mask>
<g mask="url(#mask0_377_24546)">
<path d="M13.3327 19.1667V16.6667H26.666V19.1667H13.3327ZM14.9993 24.1667V21.6667H24.9993V24.1667H14.9993ZM4.99935 33.3334C4.08268 33.3334 3.29796 33.007 2.64518 32.3542C1.9924 31.7015 1.66602 30.9167 1.66602 30.0001V10.0001C1.66602 9.08341 1.9924 8.29869 2.64518 7.64591C3.29796 6.99314 4.08268 6.66675 4.99935 6.66675H34.9994C35.916 6.66675 36.7007 6.99314 37.3535 7.64591C38.0063 8.29869 38.3327 9.08341 38.3327 10.0001V30.0001C38.3327 30.9167 38.0063 31.7015 37.3535 32.3542C36.7007 33.007 35.916 33.3334 34.9994 33.3334H4.99935ZM6.66602 10.0001H4.99935V30.0001H6.66602V10.0001ZM9.99935 30.0001H29.9993V10.0001H9.99935V30.0001ZM33.3327 10.0001V30.0001H34.9994V10.0001H33.3327Z" fill="white"/>
</g>
</svg>
