<svg width="41" height="40" viewBox="0 0 41 40" fill="none" xmlns="http://www.w3.org/2000/svg">
<mask id="mask0_382_17822" style="mask-type:alpha" maskUnits="userSpaceOnUse" x="0" y="0" width="41" height="40">
<rect x="0.666992" width="40" height="40" fill="#D9D9D9"/>
</mask>
<g mask="url(#mask0_382_17822)">
<path d="M5.66699 35V11.6667H12.3337V5H29.0003V18.3333H35.667V35H22.3337V28.3333H19.0003V35H5.66699ZM9.00033 31.6667H12.3337V28.3333H9.00033V31.6667ZM9.00033 25H12.3337V21.6667H9.00033V25ZM9.00033 18.3333H12.3337V15H9.00033V18.3333ZM15.667 25H19.0003V21.6667H15.667V25ZM15.667 18.3333H19.0003V15H15.667V18.3333ZM15.667 11.6667H19.0003V8.33333H15.667V11.6667ZM22.3337 25H25.667V21.6667H22.3337V25ZM22.3337 18.3333H25.667V15H22.3337V18.3333ZM22.3337 11.6667H25.667V8.33333H22.3337V11.6667ZM29.0003 31.6667H32.3337V28.3333H29.0003V31.6667ZM29.0003 25H32.3337V21.6667H29.0003V25Z" fill="white"/>
</g>
</svg>
