<svg width="40" height="40" viewBox="0 0 40 40" fill="none" xmlns="http://www.w3.org/2000/svg">
<mask id="mask0_346_18139" style="mask-type:alpha" maskUnits="userSpaceOnUse" x="0" y="0" width="40" height="40">
<rect width="40" height="40" fill="#D9D9D9"/>
</mask>
<g mask="url(#mask0_346_18139)">
<path d="M28.333 28.3334C26.333 28.3334 24.5691 27.7015 23.0413 26.4376C21.5136 25.1737 20.5552 23.5834 20.1663 21.6667H11.333C10.9997 22.4167 10.4858 23.0209 9.79134 23.4792C9.0969 23.9376 8.33301 24.1667 7.49967 24.1667C6.33301 24.1667 5.3469 23.764 4.54134 22.9584C3.73579 22.1529 3.33301 21.1667 3.33301 20.0001C3.33301 18.8334 3.73579 17.8473 4.54134 17.0417C5.3469 16.2362 6.33301 15.8334 7.49967 15.8334C8.33301 15.8334 9.0969 16.0626 9.79134 16.5209C10.4858 16.9792 10.9997 17.5834 11.333 18.3334H20.1663C20.5552 16.4167 21.5136 14.8265 23.0413 13.5626C24.5691 12.2987 26.333 11.6667 28.333 11.6667C30.6386 11.6667 32.6038 12.4792 34.2288 14.1042C35.8538 15.7292 36.6663 17.6945 36.6663 20.0001C36.6663 22.3056 35.8538 24.2709 34.2288 25.8959C32.6038 27.5209 30.6386 28.3334 28.333 28.3334ZM28.333 25.0001C29.7219 25.0001 30.9025 24.514 31.8747 23.5417C32.8469 22.5695 33.333 21.389 33.333 20.0001C33.333 18.6112 32.8469 17.4306 31.8747 16.4584C30.9025 15.4862 29.7219 15.0001 28.333 15.0001C26.9441 15.0001 25.7636 15.4862 24.7913 16.4584C23.8191 17.4306 23.333 18.6112 23.333 20.0001C23.333 21.389 23.8191 22.5695 24.7913 23.5417C25.7636 24.514 26.9441 25.0001 28.333 25.0001Z" fill="#3C7BF6"/>
</g>
</svg>
