<svg width="41" height="40" viewBox="0 0 41 40" fill="none" xmlns="http://www.w3.org/2000/svg">
<mask id="mask0_377_24552" style="mask-type:alpha" maskUnits="userSpaceOnUse" x="0" y="0" width="41" height="40">
<rect x="0.333984" width="40" height="40" fill="#D9D9D9"/>
</mask>
<g mask="url(#mask0_377_24552)">
<path d="M30.334 18.3334C28.0284 18.3334 26.0632 17.5209 24.4382 15.8959C22.8132 14.2709 22.0007 12.3056 22.0007 10.0001C22.0007 7.69453 22.8132 5.72925 24.4382 4.10425C26.0632 2.47925 28.0284 1.66675 30.334 1.66675C32.6395 1.66675 34.6048 2.47925 36.2298 4.10425C37.8548 5.72925 38.6673 7.69453 38.6673 10.0001C38.6673 12.3056 37.8548 14.2709 36.2298 15.8959C34.6048 17.5209 32.6395 18.3334 30.334 18.3334ZM6.33398 34.0001C6.02843 33.6945 5.78537 33.3473 5.60482 32.9584C5.42426 32.5695 5.33398 32.139 5.33398 31.6667V8.33341C5.33398 7.41675 5.66037 6.63203 6.31315 5.97925C6.96593 5.32647 7.75065 5.00008 8.66732 5.00008H19.834C19.4451 5.75008 19.1534 6.54869 18.959 7.39591C18.7645 8.24314 18.6673 9.11119 18.6673 10.0001C18.6673 11.639 18.9729 13.1598 19.584 14.5626C20.1951 15.9654 21.0284 17.1945 22.084 18.2501L6.33398 34.0001ZM20.334 35.0001V26.0001C20.334 24.8334 20.6882 23.7848 21.3965 22.8542C22.1048 21.9237 23.0284 21.3334 24.1673 21.0834C25.1395 20.8612 26.1395 20.6945 27.1673 20.5834C28.1951 20.4723 29.2507 20.4167 30.334 20.4167C31.2229 20.4167 32.077 20.4515 32.8965 20.5209C33.7159 20.5904 34.5284 20.6945 35.334 20.8334V31.6667C35.334 32.5834 35.0076 33.3681 34.3548 34.0209C33.702 34.6737 32.9173 35.0001 32.0007 35.0001H20.334Z" fill="white"/>
</g>
</svg>
