<svg width="40" height="40" viewBox="0 0 40 40" fill="none" xmlns="http://www.w3.org/2000/svg">
<mask id="mask0_435_21923" style="mask-type:alpha" maskUnits="userSpaceOnUse" x="0" y="0" width="40" height="40">
<rect width="40" height="40" fill="#D9D9D9"/>
</mask>
<g mask="url(#mask0_435_21923)">
<path d="M8.49935 26.7501C7.88824 25.6945 7.4299 24.6112 7.12435 23.5001C6.81879 22.389 6.66602 21.2501 6.66602 20.0834C6.66602 16.3612 7.95768 13.1945 10.541 10.5834C13.1243 7.9723 16.2771 6.66675 19.9993 6.66675H20.291L17.6243 4.00008L19.9577 1.66675L26.6243 8.33342L19.9577 15.0001L17.6243 12.6667L20.291 10.0001H19.9993C17.2216 10.0001 14.8605 10.9792 12.916 12.9376C10.9716 14.8959 9.99935 17.2779 9.99935 20.0834C9.99935 20.8056 10.0827 21.514 10.2493 22.2084C10.416 22.9029 10.666 23.5834 10.9993 24.2501L8.49935 26.7501ZM20.041 38.3334L13.3743 31.6667L20.041 25.0001L22.3743 27.3334L19.7077 30.0001H19.9993C22.7771 30.0001 25.1382 29.0209 27.0827 27.0626C29.0271 25.1042 29.9993 22.7223 29.9993 19.9167C29.9993 19.1945 29.916 18.4862 29.7493 17.7917C29.5827 17.0973 29.3327 16.4167 28.9993 15.7501L31.4993 13.2501C32.1105 14.3056 32.5688 15.389 32.8743 16.5001C33.1799 17.6112 33.3327 18.7501 33.3327 19.9167C33.3327 23.639 32.041 26.8056 29.4577 29.4167C26.8743 32.0279 23.7216 33.3334 19.9993 33.3334H19.7077L22.3743 36.0001L20.041 38.3334Z" fill="white"/>
</g>
</svg>
