<svg width="41" height="40" viewBox="0 0 41 40" fill="none" xmlns="http://www.w3.org/2000/svg">
<mask id="mask0_377_24558" style="mask-type:alpha" maskUnits="userSpaceOnUse" x="0" y="0" width="41" height="40">
<rect x="0.666016" width="40" height="40" fill="#D9D9D9"/>
</mask>
<g mask="url(#mask0_377_24558)">
<path d="M18.9993 21.6667C19.4716 21.6667 19.8674 21.5069 20.1868 21.1875C20.5063 20.8681 20.666 20.4722 20.666 20C20.666 19.5278 20.5063 19.1319 20.1868 18.8125C19.8674 18.4931 19.4716 18.3333 18.9993 18.3333C18.5271 18.3333 18.1313 18.4931 17.8118 18.8125C17.4924 19.1319 17.3327 19.5278 17.3327 20C17.3327 20.4722 17.4924 20.8681 17.8118 21.1875C18.1313 21.5069 18.5271 21.6667 18.9993 21.6667ZM12.3327 35V31.6667L22.3327 30V11.4583C22.3327 11.0417 22.2077 10.6667 21.9577 10.3333C21.7077 10 21.3882 9.80556 20.9993 9.75L12.3327 8.33333V5L21.4993 6.5C22.7216 6.72222 23.7216 7.29167 24.4993 8.20833C25.2771 9.125 25.666 10.1944 25.666 11.4167V32.75L12.3327 35ZM5.66602 35V31.6667H8.99935V8.33333C8.99935 7.38889 9.32574 6.59722 9.97852 5.95833C10.6313 5.31944 11.416 5 12.3327 5H28.9993C29.9438 5 30.7355 5.31944 31.3743 5.95833C32.0132 6.59722 32.3327 7.38889 32.3327 8.33333V31.6667H35.666V35H5.66602ZM12.3327 31.6667H28.9993V8.33333H12.3327V31.6667Z" fill="white"/>
</g>
</svg>
