<svg width="40" height="40" viewBox="0 0 40 40" fill="none" xmlns="http://www.w3.org/2000/svg">
<mask id="mask0_346_17649" style="mask-type:alpha" maskUnits="userSpaceOnUse" x="0" y="0" width="40" height="40">
<rect width="40" height="40" fill="#D9D9D9"/>
</mask>
<g mask="url(#mask0_346_17649)">
<path d="M26.6668 36.6668V32.9168C25.1113 32.4168 23.8057 31.5279 22.7502 30.2502C21.6946 28.9724 21.0835 27.5002 20.9168 25.8335H24.2502C24.4724 27.0279 25.0349 28.021 25.9377 28.8127C26.8404 29.6043 27.9168 30.0002 29.1668 30.0002H34.1668C34.8613 30.0002 35.4515 30.2432 35.9377 30.7293C36.4238 31.2154 36.6668 31.8057 36.6668 32.5002V36.6668H26.6668ZM31.6668 28.3335C30.7502 28.3335 29.9654 28.0071 29.3127 27.3543C28.6599 26.7016 28.3335 25.9168 28.3335 25.0002C28.3335 24.0835 28.6599 23.2988 29.3127 22.646C29.9654 21.9932 30.7502 21.6668 31.6668 21.6668C32.5835 21.6668 33.3682 21.9932 34.021 22.646C34.6738 23.2988 35.0002 24.0835 35.0002 25.0002C35.0002 25.9168 34.6738 26.7016 34.021 27.3543C33.3682 28.0071 32.5835 28.3335 31.6668 28.3335ZM15.0002 23.3335C15.0002 19.1668 16.4585 15.6252 19.3752 12.7085C22.2918 9.79183 25.8335 8.3335 30.0002 8.3335V11.6668C26.7502 11.6668 23.9932 12.7988 21.7293 15.0627C19.4654 17.3266 18.3335 20.0835 18.3335 23.3335H15.0002ZM21.6668 23.3335C21.6668 21.0279 22.4793 19.0627 24.1043 17.4377C25.7293 15.8127 27.6946 15.0002 30.0002 15.0002V18.3335C28.6113 18.3335 27.4307 18.8196 26.4585 19.7918C25.4863 20.7641 25.0002 21.9446 25.0002 23.3335H21.6668ZM3.3335 18.3335V14.1668C3.3335 13.4724 3.57655 12.8821 4.06266 12.396C4.54877 11.9099 5.13905 11.6668 5.8335 11.6668H10.8335C12.0835 11.6668 13.1599 11.271 14.0627 10.4793C14.9654 9.68766 15.5279 8.69461 15.7502 7.50016H19.0835C18.9168 9.16683 18.3057 10.6391 17.2502 11.9168C16.1946 13.1946 14.8891 14.0835 13.3335 14.5835V18.3335H3.3335ZM8.3335 10.0002C7.41683 10.0002 6.63211 9.67377 5.97933 9.021C5.32655 8.36822 5.00016 7.5835 5.00016 6.66683C5.00016 5.75016 5.32655 4.96544 5.97933 4.31266C6.63211 3.65989 7.41683 3.3335 8.3335 3.3335C9.25016 3.3335 10.0349 3.65989 10.6877 4.31266C11.3404 4.96544 11.6668 5.75016 11.6668 6.66683C11.6668 7.5835 11.3404 8.36822 10.6877 9.021C10.0349 9.67377 9.25016 10.0002 8.3335 10.0002Z" fill="#3C7BF6"/>
</g>
</svg>
