<svg width="40" height="40" viewBox="0 0 40 40" fill="none" xmlns="http://www.w3.org/2000/svg">
<mask id="mask0_346_20085" style="mask-type:alpha" maskUnits="userSpaceOnUse" x="0" y="0" width="40" height="40">
<rect width="40" height="40" fill="#D9D9D9"/>
</mask>
<g mask="url(#mask0_346_20085)">
<path d="M29.9993 23.3333V18.3333H24.9993V15H29.9993V9.99996H33.3327V15H38.3327V18.3333H33.3327V23.3333H29.9993ZM14.9993 20C13.166 20 11.5966 19.3472 10.291 18.0416C8.98546 16.7361 8.33268 15.1666 8.33268 13.3333C8.33268 11.5 8.98546 9.93052 10.291 8.62496C11.5966 7.3194 13.166 6.66663 14.9993 6.66663C16.8327 6.66663 18.4021 7.3194 19.7077 8.62496C21.0132 9.93052 21.666 11.5 21.666 13.3333C21.666 15.1666 21.0132 16.7361 19.7077 18.0416C18.4021 19.3472 16.8327 20 14.9993 20ZM1.66602 33.3333V28.6666C1.66602 27.7222 1.90907 26.8541 2.39518 26.0625C2.88129 25.2708 3.52713 24.6666 4.33268 24.25C6.0549 23.3888 7.8049 22.743 9.58268 22.3125C11.3605 21.8819 13.166 21.6666 14.9993 21.6666C16.8327 21.6666 18.6382 21.8819 20.416 22.3125C22.1938 22.743 23.9438 23.3888 25.666 24.25C26.4716 24.6666 27.1174 25.2708 27.6035 26.0625C28.0896 26.8541 28.3327 27.7222 28.3327 28.6666V33.3333H1.66602ZM4.99935 30H24.9993V28.6666C24.9993 28.3611 24.923 28.0833 24.7702 27.8333C24.6174 27.5833 24.416 27.3888 24.166 27.25C22.666 26.5 21.1521 25.9375 19.6244 25.5625C18.0966 25.1875 16.5549 25 14.9993 25C13.4438 25 11.9021 25.1875 10.3743 25.5625C8.84657 25.9375 7.33268 26.5 5.83268 27.25C5.58268 27.3888 5.38129 27.5833 5.22852 27.8333C5.07574 28.0833 4.99935 28.3611 4.99935 28.6666V30ZM14.9993 16.6666C15.916 16.6666 16.7007 16.3402 17.3535 15.6875C18.0063 15.0347 18.3327 14.25 18.3327 13.3333C18.3327 12.4166 18.0063 11.6319 17.3535 10.9791C16.7007 10.3263 15.916 9.99996 14.9993 9.99996C14.0827 9.99996 13.298 10.3263 12.6452 10.9791C11.9924 11.6319 11.666 12.4166 11.666 13.3333C11.666 14.25 11.9924 15.0347 12.6452 15.6875C13.298 16.3402 14.0827 16.6666 14.9993 16.6666Z" fill="#3C7BF6"/>
</g>
</svg>
