<svg width="41" height="40" viewBox="0 0 41 40" fill="none" xmlns="http://www.w3.org/2000/svg">
<mask id="mask0_377_24462" style="mask-type:alpha" maskUnits="userSpaceOnUse" x="0" y="0" width="41" height="40">
<rect x="0.666992" width="40" height="40" fill="#D9D9D9"/>
</mask>
<g mask="url(#mask0_377_24462)">
<path d="M5.66732 24.1667C5.4451 24.1667 5.25065 24.0834 5.08398 23.9167C4.91732 23.7501 4.83398 23.5556 4.83398 23.3334C4.83398 23.1112 4.91732 22.9167 5.08398 22.7501C5.25065 22.5834 5.4451 22.5001 5.66732 22.5001C5.88954 22.5001 6.08398 22.5834 6.25065 22.7501C6.41732 22.9167 6.50065 23.1112 6.50065 23.3334C6.50065 23.5556 6.41732 23.7501 6.25065 23.9167C6.08398 24.0834 5.88954 24.1667 5.66732 24.1667ZM5.66732 17.5001C5.4451 17.5001 5.25065 17.4167 5.08398 17.2501C4.91732 17.0834 4.83398 16.889 4.83398 16.6667C4.83398 16.4445 4.91732 16.2501 5.08398 16.0834C5.25065 15.9167 5.4451 15.8334 5.66732 15.8334C5.88954 15.8334 6.08398 15.9167 6.25065 16.0834C6.41732 16.2501 6.50065 16.4445 6.50065 16.6667C6.50065 16.889 6.41732 17.0834 6.25065 17.2501C6.08398 17.4167 5.88954 17.5001 5.66732 17.5001ZM10.6673 31.6667C10.1951 31.6667 9.79926 31.507 9.47982 31.1876C9.16037 30.8681 9.00065 30.4723 9.00065 30.0001C9.00065 29.5279 9.16037 29.132 9.47982 28.8126C9.79926 28.4931 10.1951 28.3334 10.6673 28.3334C11.1395 28.3334 11.5354 28.4931 11.8548 28.8126C12.1743 29.132 12.334 29.5279 12.334 30.0001C12.334 30.4723 12.1743 30.8681 11.8548 31.1876C11.5354 31.507 11.1395 31.6667 10.6673 31.6667ZM10.6673 25.0001C10.1951 25.0001 9.79926 24.8404 9.47982 24.5209C9.16037 24.2015 9.00065 23.8056 9.00065 23.3334C9.00065 22.8612 9.16037 22.4654 9.47982 22.1459C9.79926 21.8265 10.1951 21.6667 10.6673 21.6667C11.1395 21.6667 11.5354 21.8265 11.8548 22.1459C12.1743 22.4654 12.334 22.8612 12.334 23.3334C12.334 23.8056 12.1743 24.2015 11.8548 24.5209C11.5354 24.8404 11.1395 25.0001 10.6673 25.0001ZM10.6673 18.3334C10.1951 18.3334 9.79926 18.1737 9.47982 17.8542C9.16037 17.5348 9.00065 17.139 9.00065 16.6667C9.00065 16.1945 9.16037 15.7987 9.47982 15.4792C9.79926 15.1598 10.1951 15.0001 10.6673 15.0001C11.1395 15.0001 11.5354 15.1598 11.8548 15.4792C12.1743 15.7987 12.334 16.1945 12.334 16.6667C12.334 17.139 12.1743 17.5348 11.8548 17.8542C11.5354 18.1737 11.1395 18.3334 10.6673 18.3334ZM10.6673 11.6667C10.1951 11.6667 9.79926 11.507 9.47982 11.1876C9.16037 10.8681 9.00065 10.4723 9.00065 10.0001C9.00065 9.52786 9.16037 9.13203 9.47982 8.81258C9.79926 8.49314 10.1951 8.33341 10.6673 8.33341C11.1395 8.33341 11.5354 8.49314 11.8548 8.81258C12.1743 9.13203 12.334 9.52786 12.334 10.0001C12.334 10.4723 12.1743 10.8681 11.8548 11.1876C11.5354 11.507 11.1395 11.6667 10.6673 11.6667ZM17.334 25.8334C16.6395 25.8334 16.0493 25.5904 15.5632 25.1042C15.077 24.6181 14.834 24.0279 14.834 23.3334C14.834 22.639 15.077 22.0487 15.5632 21.5626C16.0493 21.0765 16.6395 20.8334 17.334 20.8334C18.0284 20.8334 18.6187 21.0765 19.1048 21.5626C19.5909 22.0487 19.834 22.639 19.834 23.3334C19.834 24.0279 19.5909 24.6181 19.1048 25.1042C18.6187 25.5904 18.0284 25.8334 17.334 25.8334ZM17.334 19.1667C16.6395 19.1667 16.0493 18.9237 15.5632 18.4376C15.077 17.9515 14.834 17.3612 14.834 16.6667C14.834 15.9723 15.077 15.382 15.5632 14.8959C16.0493 14.4098 16.6395 14.1667 17.334 14.1667C18.0284 14.1667 18.6187 14.4098 19.1048 14.8959C19.5909 15.382 19.834 15.9723 19.834 16.6667C19.834 17.3612 19.5909 17.9515 19.1048 18.4376C18.6187 18.9237 18.0284 19.1667 17.334 19.1667ZM17.334 31.6667C16.8618 31.6667 16.4659 31.507 16.1465 31.1876C15.827 30.8681 15.6673 30.4723 15.6673 30.0001C15.6673 29.5279 15.827 29.132 16.1465 28.8126C16.4659 28.4931 16.8618 28.3334 17.334 28.3334C17.8062 28.3334 18.202 28.4931 18.5215 28.8126C18.8409 29.132 19.0007 29.5279 19.0007 30.0001C19.0007 30.4723 18.8409 30.8681 18.5215 31.1876C18.202 31.507 17.8062 31.6667 17.334 31.6667ZM17.334 11.6667C16.8618 11.6667 16.4659 11.507 16.1465 11.1876C15.827 10.8681 15.6673 10.4723 15.6673 10.0001C15.6673 9.52786 15.827 9.13203 16.1465 8.81258C16.4659 8.49314 16.8618 8.33341 17.334 8.33341C17.8062 8.33341 18.202 8.49314 18.5215 8.81258C18.8409 9.13203 19.0007 9.52786 19.0007 10.0001C19.0007 10.4723 18.8409 10.8681 18.5215 11.1876C18.202 11.507 17.8062 11.6667 17.334 11.6667ZM17.334 35.8334C17.1118 35.8334 16.9173 35.7501 16.7507 35.5834C16.584 35.4167 16.5007 35.2223 16.5007 35.0001C16.5007 34.7779 16.584 34.5834 16.7507 34.4167C16.9173 34.2501 17.1118 34.1667 17.334 34.1667C17.5562 34.1667 17.7507 34.2501 17.9173 34.4167C18.084 34.5834 18.1673 34.7779 18.1673 35.0001C18.1673 35.2223 18.084 35.4167 17.9173 35.5834C17.7507 35.7501 17.5562 35.8334 17.334 35.8334ZM17.334 5.83341C17.1118 5.83341 16.9173 5.75008 16.7507 5.58341C16.584 5.41675 16.5007 5.2223 16.5007 5.00008C16.5007 4.77786 16.584 4.58341 16.7507 4.41675C16.9173 4.25008 17.1118 4.16675 17.334 4.16675C17.5562 4.16675 17.7507 4.25008 17.9173 4.41675C18.084 4.58341 18.1673 4.77786 18.1673 5.00008C18.1673 5.2223 18.084 5.41675 17.9173 5.58341C17.7507 5.75008 17.5562 5.83341 17.334 5.83341ZM24.0007 25.8334C23.3062 25.8334 22.7159 25.5904 22.2298 25.1042C21.7437 24.6181 21.5007 24.0279 21.5007 23.3334C21.5007 22.639 21.7437 22.0487 22.2298 21.5626C22.7159 21.0765 23.3062 20.8334 24.0007 20.8334C24.6951 20.8334 25.2854 21.0765 25.7715 21.5626C26.2576 22.0487 26.5007 22.639 26.5007 23.3334C26.5007 24.0279 26.2576 24.6181 25.7715 25.1042C25.2854 25.5904 24.6951 25.8334 24.0007 25.8334ZM24.0007 19.1667C23.3062 19.1667 22.7159 18.9237 22.2298 18.4376C21.7437 17.9515 21.5007 17.3612 21.5007 16.6667C21.5007 15.9723 21.7437 15.382 22.2298 14.8959C22.7159 14.4098 23.3062 14.1667 24.0007 14.1667C24.6951 14.1667 25.2854 14.4098 25.7715 14.8959C26.2576 15.382 26.5007 15.9723 26.5007 16.6667C26.5007 17.3612 26.2576 17.9515 25.7715 18.4376C25.2854 18.9237 24.6951 19.1667 24.0007 19.1667ZM24.0007 31.6667C23.5284 31.6667 23.1326 31.507 22.8132 31.1876C22.4937 30.8681 22.334 30.4723 22.334 30.0001C22.334 29.5279 22.4937 29.132 22.8132 28.8126C23.1326 28.4931 23.5284 28.3334 24.0007 28.3334C24.4729 28.3334 24.8687 28.4931 25.1882 28.8126C25.5076 29.132 25.6673 29.5279 25.6673 30.0001C25.6673 30.4723 25.5076 30.8681 25.1882 31.1876C24.8687 31.507 24.4729 31.6667 24.0007 31.6667ZM24.0007 11.6667C23.5284 11.6667 23.1326 11.507 22.8132 11.1876C22.4937 10.8681 22.334 10.4723 22.334 10.0001C22.334 9.52786 22.4937 9.13203 22.8132 8.81258C23.1326 8.49314 23.5284 8.33341 24.0007 8.33341C24.4729 8.33341 24.8687 8.49314 25.1882 8.81258C25.5076 9.13203 25.6673 9.52786 25.6673 10.0001C25.6673 10.4723 25.5076 10.8681 25.1882 11.1876C24.8687 11.507 24.4729 11.6667 24.0007 11.6667ZM24.0007 35.8334C23.7784 35.8334 23.584 35.7501 23.4173 35.5834C23.2507 35.4167 23.1673 35.2223 23.1673 35.0001C23.1673 34.7779 23.2507 34.5834 23.4173 34.4167C23.584 34.2501 23.7784 34.1667 24.0007 34.1667C24.2229 34.1667 24.4173 34.2501 24.584 34.4167C24.7507 34.5834 24.834 34.7779 24.834 35.0001C24.834 35.2223 24.7507 35.4167 24.584 35.5834C24.4173 35.7501 24.2229 35.8334 24.0007 35.8334ZM24.0007 5.83341C23.7784 5.83341 23.584 5.75008 23.4173 5.58341C23.2507 5.41675 23.1673 5.2223 23.1673 5.00008C23.1673 4.77786 23.2507 4.58341 23.4173 4.41675C23.584 4.25008 23.7784 4.16675 24.0007 4.16675C24.2229 4.16675 24.4173 4.25008 24.584 4.41675C24.7507 4.58341 24.834 4.77786 24.834 5.00008C24.834 5.2223 24.7507 5.41675 24.584 5.58341C24.4173 5.75008 24.2229 5.83341 24.0007 5.83341ZM30.6673 31.6667C30.1951 31.6667 29.7993 31.507 29.4798 31.1876C29.1604 30.8681 29.0007 30.4723 29.0007 30.0001C29.0007 29.5279 29.1604 29.132 29.4798 28.8126C29.7993 28.4931 30.1951 28.3334 30.6673 28.3334C31.1395 28.3334 31.5354 28.4931 31.8548 28.8126C32.1743 29.132 32.334 29.5279 32.334 30.0001C32.334 30.4723 32.1743 30.8681 31.8548 31.1876C31.5354 31.507 31.1395 31.6667 30.6673 31.6667ZM30.6673 25.0001C30.1951 25.0001 29.7993 24.8404 29.4798 24.5209C29.1604 24.2015 29.0007 23.8056 29.0007 23.3334C29.0007 22.8612 29.1604 22.4654 29.4798 22.1459C29.7993 21.8265 30.1951 21.6667 30.6673 21.6667C31.1395 21.6667 31.5354 21.8265 31.8548 22.1459C32.1743 22.4654 32.334 22.8612 32.334 23.3334C32.334 23.8056 32.1743 24.2015 31.8548 24.5209C31.5354 24.8404 31.1395 25.0001 30.6673 25.0001ZM30.6673 18.3334C30.1951 18.3334 29.7993 18.1737 29.4798 17.8542C29.1604 17.5348 29.0007 17.139 29.0007 16.6667C29.0007 16.1945 29.1604 15.7987 29.4798 15.4792C29.7993 15.1598 30.1951 15.0001 30.6673 15.0001C31.1395 15.0001 31.5354 15.1598 31.8548 15.4792C32.1743 15.7987 32.334 16.1945 32.334 16.6667C32.334 17.139 32.1743 17.5348 31.8548 17.8542C31.5354 18.1737 31.1395 18.3334 30.6673 18.3334ZM30.6673 11.6667C30.1951 11.6667 29.7993 11.507 29.4798 11.1876C29.1604 10.8681 29.0007 10.4723 29.0007 10.0001C29.0007 9.52786 29.1604 9.13203 29.4798 8.81258C29.7993 8.49314 30.1951 8.33341 30.6673 8.33341C31.1395 8.33341 31.5354 8.49314 31.8548 8.81258C32.1743 9.13203 32.334 9.52786 32.334 10.0001C32.334 10.4723 32.1743 10.8681 31.8548 11.1876C31.5354 11.507 31.1395 11.6667 30.6673 11.6667ZM35.6673 24.1667C35.4451 24.1667 35.2507 24.0834 35.084 23.9167C34.9173 23.7501 34.834 23.5556 34.834 23.3334C34.834 23.1112 34.9173 22.9167 35.084 22.7501C35.2507 22.5834 35.4451 22.5001 35.6673 22.5001C35.8895 22.5001 36.084 22.5834 36.2507 22.7501C36.4173 22.9167 36.5007 23.1112 36.5007 23.3334C36.5007 23.5556 36.4173 23.7501 36.2507 23.9167C36.084 24.0834 35.8895 24.1667 35.6673 24.1667ZM35.6673 17.5001C35.4451 17.5001 35.2507 17.4167 35.084 17.2501C34.9173 17.0834 34.834 16.889 34.834 16.6667C34.834 16.4445 34.9173 16.2501 35.084 16.0834C35.2507 15.9167 35.4451 15.8334 35.6673 15.8334C35.8895 15.8334 36.084 15.9167 36.2507 16.0834C36.4173 16.2501 36.5007 16.4445 36.5007 16.6667C36.5007 16.889 36.4173 17.0834 36.2507 17.2501C36.084 17.4167 35.8895 17.5001 35.6673 17.5001Z" fill="white"/>
</g>
</svg>
