<svg width="24" height="24" viewBox="0 0 24 24" fill="none" xmlns="http://www.w3.org/2000/svg">
<mask id="mask0_2202_14044" style="mask-type:alpha" maskUnits="userSpaceOnUse" x="0" y="0" width="24" height="24">
<rect width="24" height="24" fill="#D9D9D9"/>
</mask>
<g mask="url(#mask0_2202_14044)">
<path d="M18 11C16.6167 11 15.4375 10.5125 14.4625 9.5375C13.4875 8.5625 13 7.38333 13 6C13 4.61667 13.4875 3.4375 14.4625 2.4625C15.4375 1.4875 16.6167 1 18 1C19.3833 1 20.5625 1.4875 21.5375 2.4625C22.5125 3.4375 23 4.61667 23 6C23 7.38333 22.5125 8.5625 21.5375 9.5375C20.5625 10.5125 19.3833 11 18 11ZM3.6 20.4C3.41667 20.2167 3.27083 20.0083 3.1625 19.775C3.05417 19.5417 3 19.2833 3 19V5C3 4.45 3.19583 3.97917 3.5875 3.5875C3.97917 3.19583 4.45 3 5 3H11.7C11.4667 3.45 11.2917 3.92917 11.175 4.4375C11.0583 4.94583 11 5.46667 11 6C11 6.98333 11.1833 7.89583 11.55 8.7375C11.9167 9.57917 12.4167 10.3167 13.05 10.95L3.6 20.4ZM12 21V15.6C12 14.9 12.2125 14.2708 12.6375 13.7125C13.0625 13.1542 13.6167 12.8 14.3 12.65C14.8833 12.5167 15.4833 12.4167 16.1 12.35C16.7167 12.2833 17.35 12.25 18 12.25C18.5333 12.25 19.0458 12.2708 19.5375 12.3125C20.0292 12.3542 20.5167 12.4167 21 12.5V19C21 19.55 20.8042 20.0208 20.4125 20.4125C20.0208 20.8042 19.55 21 19 21H12Z" fill="white"/>
</g>
</svg>
