<svg width="36" height="36" viewBox="0 0 36 36" fill="none" xmlns="http://www.w3.org/2000/svg">
<mask id="mask0_479_37614" style="mask-type:alpha" maskUnits="userSpaceOnUse" x="0" y="0" width="36" height="36">
<rect width="36" height="36" fill="#D9D9D9"/>
</mask>
<g mask="url(#mask0_479_37614)">
<path d="M14.25 33C12.8 33 11.5625 32.4875 10.5375 31.4625C9.5125 30.4375 9 29.2 9 27.75V6C9 5.175 9.29375 4.46875 9.88125 3.88125C10.4688 3.29375 11.175 3 12 3H16.5C17.325 3 18.0312 3.29375 18.6187 3.88125C19.2063 4.46875 19.5 5.175 19.5 6V27.75C19.5 29.2 18.9875 30.4375 17.9625 31.4625C16.9375 32.4875 15.7 33 14.25 33ZM12 23.025C12.35 22.85 12.7063 22.7188 13.0688 22.6312C13.4313 22.5437 13.825 22.5 14.25 22.5C14.675 22.5 15.0687 22.5437 15.4312 22.6312C15.7937 22.7188 16.15 22.85 16.5 23.025V6H12V23.025ZM14.25 30C14.875 30 15.4062 29.7812 15.8438 29.3437C16.2812 28.9062 16.5 28.375 16.5 27.75C16.5 27.125 16.2812 26.5937 15.8438 26.1562C15.4062 25.7187 14.875 25.5 14.25 25.5C13.625 25.5 13.0938 25.7187 12.6562 26.1562C12.2188 26.5937 12 27.125 12 27.75C12 28.375 12.2188 28.9062 12.6562 29.3437C13.0938 29.7812 13.625 30 14.25 30ZM25.5 27C24.675 27 23.9688 26.7062 23.3813 26.1187C22.7938 25.5312 22.5 24.825 22.5 24V12C22.5 11.175 22.7938 10.4687 23.3813 9.88125C23.9688 9.29375 24.675 9 25.5 9H27C27.825 9 28.5312 9.29375 29.1188 9.88125C29.7063 10.4687 30 11.175 30 12V24C30 24.825 29.7063 25.5312 29.1188 26.1187C28.5312 26.7062 27.825 27 27 27H25.5ZM25.5 24H27V12H25.5V24Z" fill="#3C7BF6"/>
</g>
</svg>
