<svg width="40" height="40" viewBox="0 0 40 40" fill="none" xmlns="http://www.w3.org/2000/svg">
<mask id="mask0_346_18133" style="mask-type:alpha" maskUnits="userSpaceOnUse" x="0" y="0" width="40" height="40">
<rect width="40" height="40" fill="#D9D9D9"/>
</mask>
<g mask="url(#mask0_346_18133)">
<path d="M9.74967 19.9999L9.24967 17.4999C8.91634 17.361 8.60384 17.2152 8.31217 17.0624C8.02051 16.9096 7.7219 16.7221 7.41634 16.4999L4.99967 17.2499L3.33301 14.4166L5.24967 12.7499C5.19412 12.3888 5.16634 12.0277 5.16634 11.6666C5.16634 11.3055 5.19412 10.9444 5.24967 10.5833L3.33301 8.91659L4.99967 6.08325L7.41634 6.83325C7.7219 6.61103 8.02051 6.42353 8.31217 6.27075C8.60384 6.11797 8.91634 5.97214 9.24967 5.83325L9.74967 3.33325H13.083L13.583 5.83325C13.9163 5.97214 14.2288 6.11797 14.5205 6.27075C14.8122 6.42353 15.1108 6.61103 15.4163 6.83325L17.833 6.08325L19.4997 8.91659L17.583 10.5833C17.6386 10.9444 17.6663 11.3055 17.6663 11.6666C17.6663 12.0277 17.6386 12.3888 17.583 12.7499L19.4997 14.4166L17.833 17.2499L15.4163 16.4999C15.1108 16.7221 14.8122 16.9096 14.5205 17.0624C14.2288 17.2152 13.9163 17.361 13.583 17.4999L13.083 19.9999H9.74967ZM11.4163 14.9999C12.333 14.9999 13.1177 14.6735 13.7705 14.0208C14.4233 13.368 14.7497 12.5833 14.7497 11.6666C14.7497 10.7499 14.4233 9.9652 13.7705 9.31242C13.1177 8.65964 12.333 8.33325 11.4163 8.33325C10.4997 8.33325 9.71495 8.65964 9.06217 9.31242C8.4094 9.9652 8.08301 10.7499 8.08301 11.6666C8.08301 12.5833 8.4094 13.368 9.06217 14.0208C9.71495 14.6735 10.4997 14.9999 11.4163 14.9999ZM24.6663 38.3333L23.9163 34.8333C23.4441 34.6666 23.0066 34.4652 22.6038 34.2291C22.2011 33.993 21.8052 33.7221 21.4163 33.4166L18.083 34.4999L15.7497 30.4999L18.4163 28.1666C18.3608 27.6666 18.333 27.1666 18.333 26.6666C18.333 26.1666 18.3608 25.6666 18.4163 25.1666L15.7497 22.8333L18.083 18.8333L21.4163 19.9166C21.8052 19.611 22.2011 19.3402 22.6038 19.1041C23.0066 18.868 23.4441 18.6666 23.9163 18.4999L24.6663 14.9999H29.333L30.083 18.4999C30.5552 18.6666 30.9927 18.868 31.3955 19.1041C31.7983 19.3402 32.1941 19.611 32.583 19.9166L35.9163 18.8333L38.2497 22.8333L35.583 25.1666C35.6386 25.6666 35.6663 26.1666 35.6663 26.6666C35.6663 27.1666 35.6386 27.6666 35.583 28.1666L38.2497 30.4999L35.9163 34.4999L32.583 33.4166C32.1941 33.7221 31.7983 33.993 31.3955 34.2291C30.9927 34.4652 30.5552 34.6666 30.083 34.8333L29.333 38.3333H24.6663ZM26.9997 31.6666C28.3886 31.6666 29.5691 31.1805 30.5413 30.2083C31.5136 29.236 31.9997 28.0555 31.9997 26.6666C31.9997 25.2777 31.5136 24.0971 30.5413 23.1249C29.5691 22.1527 28.3886 21.6666 26.9997 21.6666C25.6108 21.6666 24.4302 22.1527 23.458 23.1249C22.4858 24.0971 21.9997 25.2777 21.9997 26.6666C21.9997 28.0555 22.4858 29.236 23.458 30.2083C24.4302 31.1805 25.6108 31.6666 26.9997 31.6666Z" fill="#3C7BF6"/>
</g>
</svg>
