<svg width="41" height="40" viewBox="0 0 41 40" fill="none" xmlns="http://www.w3.org/2000/svg">
<mask id="mask0_382_17815" style="mask-type:alpha" maskUnits="userSpaceOnUse" x="0" y="0" width="41" height="40">
<rect x="0.333496" width="40" height="40" fill="#D9D9D9"/>
</mask>
<g mask="url(#mask0_382_17815)">
<path d="M23.667 21.6667H32.0003V18.3334H23.667V21.6667ZM23.667 16.6667H32.0003V13.3334H23.667V16.6667ZM8.66699 26.6667H22.0003V25.7501C22.0003 24.5001 21.3892 23.507 20.167 22.7709C18.9448 22.0348 17.3337 21.6667 15.3337 21.6667C13.3337 21.6667 11.7225 22.0348 10.5003 22.7709C9.2781 23.507 8.66699 24.5001 8.66699 25.7501V26.6667ZM15.3337 20.0001C16.2503 20.0001 17.035 19.6737 17.6878 19.0209C18.3406 18.3681 18.667 17.5834 18.667 16.6667C18.667 15.7501 18.3406 14.9654 17.6878 14.3126C17.035 13.6598 16.2503 13.3334 15.3337 13.3334C14.417 13.3334 13.6323 13.6598 12.9795 14.3126C12.3267 14.9654 12.0003 15.7501 12.0003 16.6667C12.0003 17.5834 12.3267 18.3681 12.9795 19.0209C13.6323 19.6737 14.417 20.0001 15.3337 20.0001ZM7.00033 33.3334C6.08366 33.3334 5.29894 33.007 4.64616 32.3542C3.99338 31.7015 3.66699 30.9167 3.66699 30.0001V10.0001C3.66699 9.08341 3.99338 8.29869 4.64616 7.64591C5.29894 6.99314 6.08366 6.66675 7.00033 6.66675H33.667C34.5837 6.66675 35.3684 6.99314 36.0212 7.64591C36.6739 8.29869 37.0003 9.08341 37.0003 10.0001V30.0001C37.0003 30.9167 36.6739 31.7015 36.0212 32.3542C35.3684 33.007 34.5837 33.3334 33.667 33.3334H7.00033ZM7.00033 30.0001H33.667V10.0001H7.00033V30.0001Z" fill="white"/>
</g>
</svg>
