<svg width="40" height="40" viewBox="0 0 40 40" fill="none" xmlns="http://www.w3.org/2000/svg">
<mask id="mask0_346_17812" style="mask-type:alpha" maskUnits="userSpaceOnUse" x="0" y="0" width="40" height="40">
<rect width="40" height="40" fill="#3C7BF6"/>
</mask>
<g mask="url(#mask0_346_17812)">
<path d="M25.4163 8.33325C24.833 8.33325 24.34 8.13186 23.9372 7.72909C23.5344 7.32631 23.333 6.83325 23.333 6.24992C23.333 5.66659 23.5344 5.17353 23.9372 4.77075C24.34 4.36797 24.833 4.16659 25.4163 4.16659C25.9997 4.16659 26.4927 4.36797 26.8955 4.77075C27.2983 5.17353 27.4997 5.66659 27.4997 6.24992C27.4997 6.83325 27.2983 7.32631 26.8955 7.72909C26.4927 8.13186 25.9997 8.33325 25.4163 8.33325ZM25.4163 35.8333C24.833 35.8333 24.34 35.6319 23.9372 35.2291C23.5344 34.8263 23.333 34.3333 23.333 33.7499C23.333 33.1666 23.5344 32.6735 23.9372 32.2708C24.34 31.868 24.833 31.6666 25.4163 31.6666C25.9997 31.6666 26.4927 31.868 26.8955 32.2708C27.2983 32.6735 27.4997 33.1666 27.4997 33.7499C27.4997 34.3333 27.2983 34.8263 26.8955 35.2291C26.4927 35.6319 25.9997 35.8333 25.4163 35.8333ZM32.083 14.1666C31.4997 14.1666 31.0066 13.9652 30.6038 13.5624C30.2011 13.1596 29.9997 12.6666 29.9997 12.0833C29.9997 11.4999 30.2011 11.0069 30.6038 10.6041C31.0066 10.2013 31.4997 9.99992 32.083 9.99992C32.6663 9.99992 33.1594 10.2013 33.5622 10.6041C33.965 11.0069 34.1663 11.4999 34.1663 12.0833C34.1663 12.6666 33.965 13.1596 33.5622 13.5624C33.1594 13.9652 32.6663 14.1666 32.083 14.1666ZM32.083 29.9999C31.4997 29.9999 31.0066 29.7985 30.6038 29.3958C30.2011 28.993 29.9997 28.4999 29.9997 27.9166C29.9997 27.3333 30.2011 26.8402 30.6038 26.4374C31.0066 26.0346 31.4997 25.8333 32.083 25.8333C32.6663 25.8333 33.1594 26.0346 33.5622 26.4374C33.965 26.8402 34.1663 27.3333 34.1663 27.9166C34.1663 28.4999 33.965 28.993 33.5622 29.3958C33.1594 29.7985 32.6663 29.9999 32.083 29.9999ZM34.583 22.0833C33.9997 22.0833 33.5066 21.8819 33.1038 21.4791C32.7011 21.0763 32.4997 20.5833 32.4997 19.9999C32.4997 19.4166 32.7011 18.9235 33.1038 18.5208C33.5066 18.118 33.9997 17.9166 34.583 17.9166C35.1663 17.9166 35.6594 18.118 36.0622 18.5208C36.465 18.9235 36.6663 19.4166 36.6663 19.9999C36.6663 20.5833 36.465 21.0763 36.0622 21.4791C35.6594 21.8819 35.1663 22.0833 34.583 22.0833ZM19.9997 36.6666C17.6941 36.6666 15.5275 36.2291 13.4997 35.3541C11.4719 34.4791 9.70801 33.2916 8.20801 31.7916C6.70801 30.2916 5.52051 28.5277 4.64551 26.4999C3.77051 24.4721 3.33301 22.3055 3.33301 19.9999C3.33301 17.6944 3.77051 15.5277 4.64551 13.4999C5.52051 11.4721 6.70801 9.70825 8.20801 8.20825C9.70801 6.70825 11.4719 5.52075 13.4997 4.64575C15.5275 3.77075 17.6941 3.33325 19.9997 3.33325V6.66659C16.2775 6.66659 13.1247 7.95825 10.5413 10.5416C7.95801 13.1249 6.66634 16.2777 6.66634 19.9999C6.66634 23.7221 7.95801 26.8749 10.5413 29.4583C13.1247 32.0416 16.2775 33.3333 19.9997 33.3333V36.6666ZM19.9997 23.3333C19.083 23.3333 18.2983 23.0069 17.6455 22.3541C16.9927 21.7013 16.6663 20.9166 16.6663 19.9999C16.6663 19.861 16.6733 19.7152 16.6872 19.5624C16.7011 19.4096 16.7358 19.2638 16.7913 19.1249L13.333 15.6666L15.6663 13.3333L19.1247 16.7916C19.2358 16.7638 19.5275 16.7221 19.9997 16.6666C20.9163 16.6666 21.7011 16.993 22.3538 17.6458C23.0066 18.2985 23.333 19.0833 23.333 19.9999C23.333 20.9166 23.0066 21.7013 22.3538 22.3541C21.7011 23.0069 20.9163 23.3333 19.9997 23.3333Z" fill="#3C7BF6"/>
</g>
</svg>
