<svg width="36" height="36" viewBox="0 0 36 36" fill="none" xmlns="http://www.w3.org/2000/svg">
<mask id="mask0_479_37865" style="mask-type:alpha" maskUnits="userSpaceOnUse" x="0" y="0" width="36" height="36">
<rect width="36" height="36" fill="#D9D9D9"/>
</mask>
<g mask="url(#mask0_479_37865)">
<path d="M16.5 24.0001V15.0001H12V12.0001H24V15.0001H19.5V24.0001H16.5ZM1.5 34.5001V25.5001H4.5V10.5001H1.5V1.50012H10.5V4.50012H25.5V1.50012H34.5V10.5001H31.5V25.5001H34.5V34.5001H25.5V31.5001H10.5V34.5001H1.5ZM10.5 28.5001H25.5V25.5001H28.5V10.5001H25.5V7.50012H10.5V10.5001H7.5V25.5001H10.5V28.5001ZM4.5 7.50012H7.5V4.50012H4.5V7.50012ZM28.5 7.50012H31.5V4.50012H28.5V7.50012ZM28.5 31.5001H31.5V28.5001H28.5V31.5001ZM4.5 31.5001H7.5V28.5001H4.5V31.5001Z" fill="#3C7BF6"/>
</g>
</svg>
