<svg width="36" height="36" viewBox="0 0 36 36" fill="none" xmlns="http://www.w3.org/2000/svg">
<mask id="mask0_479_37872" style="mask-type:alpha" maskUnits="userSpaceOnUse" x="0" y="0" width="36" height="36">
<rect width="36" height="36" fill="#D9D9D9"/>
</mask>
<g mask="url(#mask0_479_37872)">
<path d="M18 32.9999C17.35 32.9999 16.7625 32.8436 16.2375 32.5311C15.7125 32.2186 15.3 31.7999 15 31.2749C14.175 31.2749 13.4688 30.9811 12.8813 30.3936C12.2938 29.8061 12 29.0999 12 28.2749V22.9499C10.525 21.9749 9.34375 20.6874 8.45625 19.0874C7.56875 17.4874 7.125 15.7499 7.125 13.8749C7.125 10.8499 8.18125 8.28113 10.2937 6.16863C12.4062 4.05613 14.975 2.99988 18 2.99988C21.025 2.99988 23.5938 4.05613 25.7062 6.16863C27.8188 8.28113 28.875 10.8499 28.875 13.8749C28.875 15.7999 28.4312 17.5499 27.5438 19.1249C26.6562 20.6999 25.475 21.9749 24 22.9499V28.2749C24 29.0999 23.7063 29.8061 23.1188 30.3936C22.5313 30.9811 21.825 31.2749 21 31.2749C20.7 31.7999 20.2875 32.2186 19.7625 32.5311C19.2375 32.8436 18.65 32.9999 18 32.9999ZM15 28.2749H21V26.9249H15V28.2749ZM15 25.4249H21V23.9999H15V25.4249ZM14.7 20.9999H16.875V16.9499L13.575 13.6499L15.15 12.0749L18 14.9249L20.85 12.0749L22.425 13.6499L19.125 16.9499V20.9999H21.3C22.65 20.3499 23.75 19.3936 24.6 18.1311C25.45 16.8686 25.875 15.4499 25.875 13.8749C25.875 11.6749 25.1125 9.81238 23.5875 8.28738C22.0625 6.76238 20.2 5.99988 18 5.99988C15.8 5.99988 13.9375 6.76238 12.4125 8.28738C10.8875 9.81238 10.125 11.6749 10.125 13.8749C10.125 15.4499 10.55 16.8686 11.4 18.1311C12.25 19.3936 13.35 20.3499 14.7 20.9999Z" fill="#3C7BF6"/>
</g>
</svg>
