<svg width="36" height="36" viewBox="0 0 36 36" fill="none" xmlns="http://www.w3.org/2000/svg">
<mask id="mask0_479_37857" style="mask-type:alpha" maskUnits="userSpaceOnUse" x="0" y="0" width="36" height="36">
<rect width="36" height="36" fill="#D9D9D9"/>
</mask>
<g mask="url(#mask0_479_37857)">
<path d="M29.925 23.9252L27.6 21.6002C28.7 20.5752 29.5625 19.3627 30.1875 17.9627C30.8125 16.5627 31.125 15.0752 31.125 13.5002C31.125 11.9252 30.8125 10.4502 30.1875 9.0752C29.5625 7.7002 28.7 6.5002 27.6 5.4752L29.925 3.0752C31.325 4.4002 32.4375 5.9627 33.2625 7.7627C34.0875 9.5627 34.5 11.4752 34.5 13.5002C34.5 15.5252 34.0875 17.4377 33.2625 19.2377C32.4375 21.0377 31.325 22.6002 29.925 23.9252ZM25.125 19.1252L22.725 16.7252C23.175 16.3002 23.5375 15.8189 23.8125 15.2814C24.0875 14.7439 24.225 14.1502 24.225 13.5002C24.225 12.8502 24.0875 12.2564 23.8125 11.7189C23.5375 11.1814 23.175 10.7002 22.725 10.2752L25.125 7.8752C25.925 8.6002 26.55 9.44395 27 10.4064C27.45 11.3689 27.675 12.4002 27.675 13.5002C27.675 14.6002 27.45 15.6314 27 16.5939C26.55 17.5564 25.925 18.4002 25.125 19.1252ZM13.5 19.5002C11.85 19.5002 10.4375 18.9127 9.2625 17.7377C8.0875 16.5627 7.5 15.1502 7.5 13.5002C7.5 11.8502 8.0875 10.4377 9.2625 9.2627C10.4375 8.0877 11.85 7.5002 13.5 7.5002C15.15 7.5002 16.5625 8.0877 17.7375 9.2627C18.9125 10.4377 19.5 11.8502 19.5 13.5002C19.5 15.1502 18.9125 16.5627 17.7375 17.7377C16.5625 18.9127 15.15 19.5002 13.5 19.5002ZM1.5 31.5002V27.3002C1.5 26.4752 1.7125 25.7002 2.1375 24.9752C2.5625 24.2502 3.15 23.7002 3.9 23.3252C5.175 22.6752 6.6125 22.1252 8.2125 21.6752C9.8125 21.2252 11.575 21.0002 13.5 21.0002C15.425 21.0002 17.1875 21.2252 18.7875 21.6752C20.3875 22.1252 21.825 22.6752 23.1 23.3252C23.85 23.7002 24.4375 24.2502 24.8625 24.9752C25.2875 25.7002 25.5 26.4752 25.5 27.3002V31.5002H1.5ZM4.5 28.5002H22.5V27.3002C22.5 27.0252 22.4312 26.7752 22.2938 26.5502C22.1562 26.3252 21.975 26.1502 21.75 26.0252C20.85 25.5752 19.6938 25.1252 18.2812 24.6752C16.8687 24.2252 15.275 24.0002 13.5 24.0002C11.725 24.0002 10.1313 24.2252 8.71875 24.6752C7.30625 25.1252 6.15 25.5752 5.25 26.0252C5.025 26.1502 4.84375 26.3252 4.70625 26.5502C4.56875 26.7752 4.5 27.0252 4.5 27.3002V28.5002ZM13.5 16.5002C14.325 16.5002 15.0313 16.2064 15.6188 15.6189C16.2063 15.0314 16.5 14.3252 16.5 13.5002C16.5 12.6752 16.2063 11.9689 15.6188 11.3814C15.0313 10.7939 14.325 10.5002 13.5 10.5002C12.675 10.5002 11.9688 10.7939 11.3813 11.3814C10.7937 11.9689 10.5 12.6752 10.5 13.5002C10.5 14.3252 10.7937 15.0314 11.3813 15.6189C11.9688 16.2064 12.675 16.5002 13.5 16.5002Z" fill="#3C7BF6"/>
</g>
</svg>
