<svg width="40" height="40" viewBox="0 0 40 40" fill="none" xmlns="http://www.w3.org/2000/svg">
<mask id="mask0_435_21945" style="mask-type:alpha" maskUnits="userSpaceOnUse" x="0" y="0" width="40" height="40">
<rect width="40" height="40" fill="#D9D9D9"/>
</mask>
<g mask="url(#mask0_435_21945)">
<path d="M3.33398 33.3333V28.3333H6.66732V9.99996C6.66732 9.08329 6.99371 8.29857 7.64648 7.64579C8.29926 6.99301 9.08398 6.66663 10.0007 6.66663H35.0007V9.99996H10.0007V28.3333H20.0007V33.3333H3.33398ZM25.0007 33.3333C24.5284 33.3333 24.1326 33.1736 23.8132 32.8541C23.4937 32.5347 23.334 32.1388 23.334 31.6666V15C23.334 14.5277 23.4937 14.1319 23.8132 13.8125C24.1326 13.493 24.5284 13.3333 25.0007 13.3333H35.0007C35.4729 13.3333 35.8687 13.493 36.1881 13.8125C36.5076 14.1319 36.6673 14.5277 36.6673 15V31.6666C36.6673 32.1388 36.5076 32.5347 36.1881 32.8541C35.8687 33.1736 35.4729 33.3333 35.0007 33.3333H25.0007ZM26.6673 28.3333H33.334V16.6666H26.6673V28.3333Z" fill="white"/>
</g>
</svg>
