<svg width="39" height="38" viewBox="0 0 39 38" fill="none" xmlns="http://www.w3.org/2000/svg">
<g clip-path="url(#clip0_346_18019)">
<path fill-rule="evenodd" clip-rule="evenodd" d="M35.5029 29.6C33.4362 29.5424 31.8328 29.7543 30.489 30.3196C30.102 30.475 29.4811 30.475 29.4301 30.962C29.6369 31.1663 29.6618 31.5008 29.8431 31.784C30.153 32.2981 30.6963 32.9906 31.187 33.3498L32.8407 34.5316C33.8486 35.1476 34.9856 35.5074 35.9675 36.1239C36.5363 36.4837 37.1045 36.9459 37.6733 37.3316C37.963 37.5371 38.1385 37.8716 38.5005 37.9994V37.9217C38.3198 37.6914 38.2677 37.3575 38.0875 37.0996L37.3113 36.3553C36.5624 35.3537 35.6315 34.4798 34.6236 33.7614C33.7965 33.1961 31.988 32.4259 31.6521 31.476L31.6011 31.4185C32.1688 31.3609 32.8407 31.1612 33.384 31.0069C34.2633 30.7766 35.0638 30.8273 35.9675 30.5964L37.2088 30.2367V30.0064C36.7437 29.5441 36.4077 28.9276 35.9171 28.4913C34.5993 27.3613 33.1512 26.2566 31.6521 25.3321C30.851 24.8186 29.817 24.4841 28.9644 24.0484C28.6533 23.8941 28.1372 23.8169 27.9565 23.5602C27.4902 22.9961 27.2324 22.2506 26.8965 21.5823L24.7776 17.1134C24.3125 16.1118 24.0275 15.1102 23.4598 14.1857C20.7976 9.81931 17.9025 7.17417 13.4574 4.57969C12.5016 4.0403 11.3646 3.80831 10.1557 3.52624L8.21752 3.42262C7.80336 3.24302 7.39036 2.75486 7.02833 2.52345C5.55531 1.59895 1.75604 -0.404334 0.669949 2.23562C-0.0280425 3.90502 1.7039 5.54852 2.29184 6.39646C2.73206 6.98708 3.29972 7.65484 3.61078 8.3226C3.78455 8.75895 3.84248 9.22178 4.02378 9.68403C4.43679 10.814 4.82488 12.073 5.36764 13.1264C5.65726 13.6658 5.96136 14.2317 6.32339 14.7193C6.53018 15.0071 6.89221 15.1303 6.96925 15.5926C6.60722 16.1066 6.58231 16.8763 6.37552 17.5193C5.44467 20.4217 5.8067 24.0173 7.12449 26.1541C7.53865 26.796 8.51468 28.2092 9.83884 27.6692C11.002 27.207 10.7425 25.7431 11.0784 24.4588C11.1566 24.1508 11.1045 23.9453 11.2591 23.7392V23.7968L12.3192 25.9285C13.1203 27.1868 14.5162 28.497 15.6788 29.3709C16.2986 29.8331 16.7898 30.6298 17.5648 30.9119V30.8342H17.5138C17.3586 30.6039 17.1257 30.5003 16.919 30.3207C16.4538 29.8585 15.9371 29.2932 15.5751 28.7797C14.4902 27.3417 13.5344 25.7488 12.6812 24.1054C12.267 23.3092 11.905 22.4359 11.5702 21.6398C11.4138 21.3313 11.4138 20.8684 11.156 20.7153C10.7679 21.2795 10.2003 21.7688 9.91472 22.4619C9.42352 23.566 9.37254 24.9274 9.19182 26.34C9.08755 26.3659 9.1339 26.34 9.08756 26.3976C8.26155 26.1927 7.97656 25.3442 7.66666 24.6257C6.89163 22.8021 6.76188 19.8743 7.4338 17.768C7.61453 17.2286 8.39072 15.5333 8.08082 15.0198C7.92443 14.5316 7.40889 14.2496 7.1239 13.8639C6.78794 13.3757 6.42707 12.7598 6.19422 12.2204C5.57442 10.7812 5.26453 9.18954 4.59202 7.75098C4.28097 7.08322 3.7388 6.38955 3.29915 5.7736C2.80795 5.07994 2.26635 4.59178 1.87826 3.77032C1.74908 3.48249 1.56836 3.02542 1.77515 2.71687C1.82612 2.51136 1.93039 2.42904 2.13602 2.38299C2.47198 2.09516 3.4289 2.46013 3.76486 2.61325C4.72061 2.99894 5.52171 3.35815 6.32281 3.89697C6.68484 4.15371 7.07294 4.64186 7.53807 4.77081H8.0814C8.90856 4.95042 9.83826 4.82838 10.6127 5.05864C11.9826 5.49614 13.2228 6.13742 14.3349 6.83166C17.7201 8.96331 20.512 11.9941 22.398 15.6162C22.7079 16.2068 22.8371 16.7462 23.1221 17.3627C23.6654 18.6217 24.3374 19.9054 24.879 21.139C25.4223 22.3461 25.939 23.5798 26.714 24.5814C27.1021 25.1208 28.6522 25.4029 29.3496 25.6855C29.8668 25.9158 30.6674 26.123 31.1337 26.4051C32.0118 26.9445 32.8905 27.561 33.7171 28.1516C34.1301 28.459 35.423 29.1015 35.5 29.6138L35.5029 29.6ZM9.14722 7.28067C8.79015 7.27753 8.43419 7.32068 8.08835 7.40904V7.4666H8.13933C8.34612 7.87762 8.70815 8.16027 8.96649 8.52005L9.56138 9.75311L9.61235 9.69554C9.97438 9.4388 10.1557 9.02778 10.1557 8.41183C10.0004 8.23223 9.97496 8.05205 9.84578 7.87244C9.69055 7.6157 9.35459 7.48675 9.14722 7.28182V7.28067Z" fill="#151515"/>
</g>
<defs>
<clipPath id="clip0_346_18019">
<rect width="38" height="38" fill="white" transform="translate(0.5)"/>
</clipPath>
</defs>
</svg>
