<svg width="36" height="36" viewBox="0 0 36 36" fill="none" xmlns="http://www.w3.org/2000/svg">
<mask id="mask0_479_37606" style="mask-type:alpha" maskUnits="userSpaceOnUse" x="0" y="0" width="36" height="36">
<rect width="36" height="36" fill="#D9D9D9"/>
</mask>
<g mask="url(#mask0_479_37606)">
<path d="M7.65 24.0751C7.1 23.1251 6.6875 22.1501 6.4125 21.1501C6.1375 20.1501 6 19.1251 6 18.0751C6 14.7251 7.1625 11.8751 9.4875 9.52512C11.8125 7.17512 14.65 6.00012 18 6.00012H18.2625L15.8625 3.60012L17.9625 1.50012L23.9625 7.50012L17.9625 13.5001L15.8625 11.4001L18.2625 9.00012H18C15.5 9.00012 13.375 9.88137 11.625 11.6439C9.875 13.4064 9 15.5501 9 18.0751C9 18.7251 9.075 19.3626 9.225 19.9876C9.375 20.6126 9.6 21.2251 9.9 21.8251L7.65 24.0751ZM18.0375 34.5001L12.0375 28.5001L18.0375 22.5001L20.1375 24.6001L17.7375 27.0001H18C20.5 27.0001 22.625 26.1189 24.375 24.3564C26.125 22.5939 27 20.4501 27 17.9251C27 17.2751 26.925 16.6376 26.775 16.0126C26.625 15.3876 26.4 14.7751 26.1 14.1751L28.35 11.9251C28.9 12.8751 29.3125 13.8501 29.5875 14.8501C29.8625 15.8501 30 16.8751 30 17.9251C30 21.2751 28.8375 24.1251 26.5125 26.4751C24.1875 28.8251 21.35 30.0001 18 30.0001H17.7375L20.1375 32.4001L18.0375 34.5001Z" fill="#3C7BF6"/>
</g>
</svg>
