<svg width="40" height="40" viewBox="0 0 40 40" fill="none" xmlns="http://www.w3.org/2000/svg">
<mask id="mask0_377_24540" style="mask-type:alpha" maskUnits="userSpaceOnUse" x="0" y="0" width="40" height="40">
<rect width="40" height="40" fill="#D9D9D9"/>
</mask>
<g mask="url(#mask0_377_24540)">
<path d="M18.3337 26.6667V16.6667H13.3337V13.3334H26.667V16.6667H21.667V26.6667H18.3337ZM1.66699 38.3334V28.3334H5.00033V11.6667H1.66699V1.66675H11.667V5.00008H28.3337V1.66675H38.3337V11.6667H35.0003V28.3334H38.3337V38.3334H28.3337V35.0001H11.667V38.3334H1.66699ZM11.667 31.6667H28.3337V28.3334H31.667V11.6667H28.3337V8.33342H11.667V11.6667H8.33366V28.3334H11.667V31.6667ZM5.00033 8.33342H8.33366V5.00008H5.00033V8.33342ZM31.667 8.33342H35.0003V5.00008H31.667V8.33342ZM31.667 35.0001H35.0003V31.6667H31.667V35.0001ZM5.00033 35.0001H8.33366V31.6667H5.00033V35.0001Z" fill="white"/>
</g>
</svg>
