<svg width="40" height="40" viewBox="0 0 40 40" fill="none" xmlns="http://www.w3.org/2000/svg">
<mask id="mask0_346_17463" style="mask-type:alpha" maskUnits="userSpaceOnUse" x="0" y="0" width="40" height="40">
<rect width="40" height="40" fill="#D9D9D9"/>
</mask>
<g mask="url(#mask0_346_17463)">
<path d="M25.0001 33.3334C21.2779 33.3334 18.1251 32.0417 15.5417 29.4584C12.9584 26.8751 11.6667 23.7223 11.6667 20.0001C11.6667 16.3056 12.9584 13.1598 15.5417 10.5626C18.1251 7.96536 21.2779 6.66675 25.0001 6.66675C28.6945 6.66675 31.8404 7.96536 34.4376 10.5626C37.0348 13.1598 38.3334 16.3056 38.3334 20.0001C38.3334 23.7223 37.0348 26.8751 34.4376 29.4584C31.8404 32.0417 28.6945 33.3334 25.0001 33.3334ZM25.0001 30.0001C27.7779 30.0001 30.139 29.0279 32.0834 27.0834C34.0279 25.139 35.0001 22.7779 35.0001 20.0001C35.0001 17.2223 34.0279 14.8612 32.0834 12.9167C30.139 10.9723 27.7779 10.0001 25.0001 10.0001C22.2223 10.0001 19.8612 10.9723 17.9167 12.9167C15.9723 14.8612 15.0001 17.2223 15.0001 20.0001C15.0001 22.7779 15.9723 25.139 17.9167 27.0834C19.8612 29.0279 22.2223 30.0001 25.0001 30.0001ZM28.7917 26.2084L31.1667 23.8334L26.6667 19.3334V13.3334H23.3334V20.7084L28.7917 26.2084ZM3.33341 15.0001V11.6667H10.0001V15.0001H3.33341ZM1.66675 21.6667V18.3334H10.0001V21.6667H1.66675ZM3.33341 28.3334V25.0001H10.0001V28.3334H3.33341Z" fill="#2E7BEE"/>
</g>
</svg>
